; NON-PLATED HOLES START AT T1
; THROUGH (PLATED) HOLES START AT T100
M48
INCH
T100C0.038000
T101C0.035000
T102C0.040000
%
T100
X001799Y011547
X016299Y004047
X000799Y004547
X002799Y011547
X000799Y005547
X003799Y011547
X016299Y007047
X000799Y006547
X016299Y005047
X000799Y003547
X016299Y006047
X000799Y002547
X000799Y001547
T101
X004799Y002047
X006799Y004047
X009799Y009547
X002799Y004047
X007799Y003047
X019027Y011606
X004792Y004041
X019027Y003606
X005799Y008547
X009799Y008547
X014299Y004047
X020799Y009047
X019027Y001047
X005799Y009547
X020799Y001047
X020799Y005047
X019027Y009047
X019027Y007606
X020799Y007606
X003799Y003047
X019027Y005047
X008799Y002047
X020799Y011606
X020799Y003606
T102
X010812Y007059
X014799Y011547
X006812Y007059
X001812Y005559
X010799Y011547
X001812Y001559
X012812Y007059
X013799Y011547
X012812Y001059
X009812Y007059
X013812Y001059
X003812Y001059
X012799Y011547
X004812Y007059
X015799Y011547
X002812Y001059
X011812Y007059
X009799Y011547
X008799Y011547
X013812Y007059
X001812Y002559
X002812Y007059
X007262Y005909
X007812Y007059
X011799Y011547
X003812Y007059
X008812Y001059
X010812Y001059
X008812Y007059
X005812Y007059
X009812Y001059
X001812Y003559
X001812Y006559
X011812Y001059
X004812Y001059
X006812Y001059
X006262Y005909
X001812Y004559
X007812Y001059
X005812Y001059
T00
M30
