G04 MADE WITH FRITZING*
G04 WWW.FRITZING.ORG*
G04 DOUBLE SIDED*
G04 HOLES PLATED*
G04 CONTOUR ON CENTER OF CONTOUR VECTOR*
%ASAXBY*%
%FSLAX23Y23*%
%MOIN*%
%OFA0B0*%
%SFA1.0B1.0*%
%ADD10C,0.082000X0.058*%
%ADD11C,0.024000X0*%
%ADD12C,0.015874X-0.00012598*%
%ADD13C,0.010000*%
%ADD14C,0.012000*%
%ADD15C,0.008000*%
%ADD16C,0.005000*%
%ADD17R,0.001000X0.001000*%
%LNSILK0*%
G90*
G70*
G54D10*
X1503Y866D03*
G54D11*
X1503Y866D03*
G54D12*
X1269Y855D03*
G54D13*
X389Y372D02*
X589Y372D01*
D02*
X589Y372D02*
X589Y438D01*
D02*
X389Y438D02*
X389Y372D01*
D02*
X489Y272D02*
X689Y272D01*
D02*
X689Y272D02*
X689Y338D01*
D02*
X689Y338D02*
X489Y338D01*
D02*
X489Y338D02*
X489Y272D01*
D02*
X589Y172D02*
X789Y172D01*
D02*
X789Y172D02*
X789Y238D01*
D02*
X789Y238D02*
X589Y238D01*
D02*
X589Y238D02*
X589Y172D01*
G54D14*
D02*
X1430Y940D02*
X1580Y940D01*
D02*
X1430Y940D02*
X1430Y785D01*
D02*
X1430Y785D02*
X1400Y815D01*
D02*
X1430Y785D02*
X1460Y815D01*
D02*
X1550Y910D02*
X1580Y940D01*
D02*
X1550Y970D02*
X1580Y940D01*
G54D15*
D02*
X1455Y1105D02*
X1505Y1105D01*
D02*
X1505Y1105D02*
X1530Y1130D01*
D02*
X1530Y1180D02*
X1505Y1205D01*
D02*
X1330Y1130D02*
X1355Y1105D01*
D02*
X1355Y1105D02*
X1405Y1105D01*
D02*
X1405Y1105D02*
X1430Y1130D01*
D02*
X1430Y1180D02*
X1405Y1205D01*
D02*
X1405Y1205D02*
X1355Y1205D01*
D02*
X1355Y1205D02*
X1330Y1180D01*
D02*
X1455Y1105D02*
X1430Y1130D01*
D02*
X1430Y1180D02*
X1455Y1205D01*
D02*
X1505Y1205D02*
X1455Y1205D01*
D02*
X1155Y1105D02*
X1205Y1105D01*
D02*
X1205Y1105D02*
X1230Y1130D01*
D02*
X1230Y1180D02*
X1205Y1205D01*
D02*
X1230Y1130D02*
X1255Y1105D01*
D02*
X1255Y1105D02*
X1305Y1105D01*
D02*
X1305Y1105D02*
X1330Y1130D01*
D02*
X1330Y1180D02*
X1305Y1205D01*
D02*
X1305Y1205D02*
X1255Y1205D01*
D02*
X1255Y1205D02*
X1230Y1180D01*
D02*
X1030Y1130D02*
X1055Y1105D01*
D02*
X1055Y1105D02*
X1105Y1105D01*
D02*
X1105Y1105D02*
X1130Y1130D01*
D02*
X1130Y1180D02*
X1105Y1205D01*
D02*
X1105Y1205D02*
X1055Y1205D01*
D02*
X1055Y1205D02*
X1030Y1180D01*
D02*
X1155Y1105D02*
X1130Y1130D01*
D02*
X1130Y1180D02*
X1155Y1205D01*
D02*
X1205Y1205D02*
X1155Y1205D01*
D02*
X855Y1105D02*
X905Y1105D01*
D02*
X930Y1130D02*
X955Y1105D01*
D02*
X955Y1105D02*
X1005Y1105D01*
D02*
X1005Y1105D02*
X1030Y1130D01*
D02*
X1030Y1180D02*
X1005Y1205D01*
D02*
X1005Y1205D02*
X955Y1205D01*
D02*
X955Y1205D02*
X930Y1180D01*
D02*
X830Y1130D02*
X830Y1180D01*
D02*
X905Y1205D02*
X855Y1205D01*
D02*
X1555Y1105D02*
X1605Y1105D01*
D02*
X1605Y1105D02*
X1630Y1130D01*
D02*
X1630Y1130D02*
X1630Y1180D01*
D02*
X1630Y1180D02*
X1605Y1205D01*
D02*
X1555Y1105D02*
X1530Y1130D01*
D02*
X1530Y1180D02*
X1555Y1205D01*
D02*
X1605Y1205D02*
X1555Y1205D01*
D02*
X1328Y796D02*
X1328Y827D01*
D02*
X1328Y882D02*
X1328Y914D01*
D02*
X1132Y914D02*
X1132Y882D01*
D02*
X1132Y827D02*
X1132Y796D01*
G54D13*
D02*
X130Y705D02*
X130Y105D01*
D02*
X130Y105D02*
X30Y105D01*
D02*
X30Y105D02*
X30Y705D01*
D02*
X30Y705D02*
X130Y705D01*
G54D16*
D02*
X130Y670D02*
X95Y705D01*
G54D17*
X0Y1299D02*
X2164Y1299D01*
X0Y1298D02*
X2164Y1298D01*
X0Y1297D02*
X2164Y1297D01*
X0Y1296D02*
X2164Y1296D01*
X0Y1295D02*
X2164Y1295D01*
X0Y1294D02*
X2164Y1294D01*
X0Y1293D02*
X2164Y1293D01*
X0Y1292D02*
X2164Y1292D01*
X0Y1291D02*
X7Y1291D01*
X2157Y1291D02*
X2164Y1291D01*
X0Y1290D02*
X7Y1290D01*
X2157Y1290D02*
X2164Y1290D01*
X0Y1289D02*
X7Y1289D01*
X2157Y1289D02*
X2164Y1289D01*
X0Y1288D02*
X7Y1288D01*
X2157Y1288D02*
X2164Y1288D01*
X0Y1287D02*
X7Y1287D01*
X2157Y1287D02*
X2164Y1287D01*
X0Y1286D02*
X7Y1286D01*
X2157Y1286D02*
X2164Y1286D01*
X0Y1285D02*
X7Y1285D01*
X2157Y1285D02*
X2164Y1285D01*
X0Y1284D02*
X7Y1284D01*
X489Y1284D02*
X514Y1284D01*
X565Y1284D02*
X568Y1284D01*
X591Y1284D02*
X620Y1284D01*
X666Y1284D02*
X670Y1284D01*
X689Y1284D02*
X692Y1284D01*
X716Y1284D02*
X720Y1284D01*
X752Y1284D02*
X770Y1284D01*
X802Y1284D02*
X806Y1284D01*
X2157Y1284D02*
X2164Y1284D01*
X0Y1283D02*
X7Y1283D01*
X488Y1283D02*
X514Y1283D01*
X564Y1283D02*
X569Y1283D01*
X590Y1283D02*
X621Y1283D01*
X665Y1283D02*
X671Y1283D01*
X688Y1283D02*
X693Y1283D01*
X715Y1283D02*
X721Y1283D01*
X750Y1283D02*
X771Y1283D01*
X802Y1283D02*
X807Y1283D01*
X2157Y1283D02*
X2164Y1283D01*
X0Y1282D02*
X7Y1282D01*
X488Y1282D02*
X514Y1282D01*
X563Y1282D02*
X569Y1282D01*
X589Y1282D02*
X621Y1282D01*
X665Y1282D02*
X671Y1282D01*
X687Y1282D02*
X694Y1282D01*
X715Y1282D02*
X721Y1282D01*
X748Y1282D02*
X771Y1282D01*
X801Y1282D02*
X807Y1282D01*
X2157Y1282D02*
X2164Y1282D01*
X0Y1281D02*
X7Y1281D01*
X487Y1281D02*
X514Y1281D01*
X563Y1281D02*
X569Y1281D01*
X588Y1281D02*
X621Y1281D01*
X665Y1281D02*
X671Y1281D01*
X687Y1281D02*
X694Y1281D01*
X714Y1281D02*
X721Y1281D01*
X747Y1281D02*
X771Y1281D01*
X801Y1281D02*
X807Y1281D01*
X2157Y1281D02*
X2164Y1281D01*
X0Y1280D02*
X7Y1280D01*
X488Y1280D02*
X514Y1280D01*
X563Y1280D02*
X569Y1280D01*
X588Y1280D02*
X621Y1280D01*
X665Y1280D02*
X671Y1280D01*
X688Y1280D02*
X695Y1280D01*
X714Y1280D02*
X721Y1280D01*
X747Y1280D02*
X771Y1280D01*
X801Y1280D02*
X808Y1280D01*
X2157Y1280D02*
X2164Y1280D01*
X0Y1279D02*
X7Y1279D01*
X488Y1279D02*
X514Y1279D01*
X563Y1279D02*
X569Y1279D01*
X588Y1279D02*
X620Y1279D01*
X665Y1279D02*
X671Y1279D01*
X688Y1279D02*
X695Y1279D01*
X713Y1279D02*
X720Y1279D01*
X746Y1279D02*
X770Y1279D01*
X800Y1279D02*
X808Y1279D01*
X2157Y1279D02*
X2164Y1279D01*
X0Y1278D02*
X7Y1278D01*
X491Y1278D02*
X514Y1278D01*
X544Y1278D02*
X548Y1278D01*
X563Y1278D02*
X569Y1278D01*
X587Y1278D02*
X618Y1278D01*
X665Y1278D02*
X671Y1278D01*
X689Y1278D02*
X696Y1278D01*
X712Y1278D02*
X720Y1278D01*
X746Y1278D02*
X768Y1278D01*
X800Y1278D02*
X808Y1278D01*
X2157Y1278D02*
X2164Y1278D01*
X0Y1277D02*
X7Y1277D01*
X508Y1277D02*
X514Y1277D01*
X543Y1277D02*
X548Y1277D01*
X563Y1277D02*
X569Y1277D01*
X587Y1277D02*
X593Y1277D01*
X665Y1277D02*
X671Y1277D01*
X689Y1277D02*
X697Y1277D01*
X712Y1277D02*
X719Y1277D01*
X745Y1277D02*
X752Y1277D01*
X758Y1277D02*
X764Y1277D01*
X800Y1277D02*
X809Y1277D01*
X2157Y1277D02*
X2164Y1277D01*
X0Y1276D02*
X7Y1276D01*
X508Y1276D02*
X514Y1276D01*
X543Y1276D02*
X549Y1276D01*
X563Y1276D02*
X569Y1276D01*
X587Y1276D02*
X593Y1276D01*
X665Y1276D02*
X671Y1276D01*
X690Y1276D02*
X697Y1276D01*
X711Y1276D02*
X718Y1276D01*
X745Y1276D02*
X752Y1276D01*
X758Y1276D02*
X764Y1276D01*
X799Y1276D02*
X809Y1276D01*
X2157Y1276D02*
X2164Y1276D01*
X0Y1275D02*
X7Y1275D01*
X508Y1275D02*
X514Y1275D01*
X543Y1275D02*
X549Y1275D01*
X563Y1275D02*
X569Y1275D01*
X587Y1275D02*
X593Y1275D01*
X665Y1275D02*
X671Y1275D01*
X691Y1275D02*
X698Y1275D01*
X711Y1275D02*
X718Y1275D01*
X744Y1275D02*
X751Y1275D01*
X758Y1275D02*
X764Y1275D01*
X799Y1275D02*
X809Y1275D01*
X2157Y1275D02*
X2164Y1275D01*
X0Y1274D02*
X7Y1274D01*
X508Y1274D02*
X514Y1274D01*
X543Y1274D02*
X549Y1274D01*
X563Y1274D02*
X569Y1274D01*
X587Y1274D02*
X593Y1274D01*
X665Y1274D02*
X671Y1274D01*
X691Y1274D02*
X698Y1274D01*
X710Y1274D02*
X717Y1274D01*
X744Y1274D02*
X751Y1274D01*
X758Y1274D02*
X764Y1274D01*
X799Y1274D02*
X810Y1274D01*
X2157Y1274D02*
X2164Y1274D01*
X0Y1273D02*
X7Y1273D01*
X508Y1273D02*
X514Y1273D01*
X543Y1273D02*
X549Y1273D01*
X563Y1273D02*
X569Y1273D01*
X587Y1273D02*
X593Y1273D01*
X665Y1273D02*
X671Y1273D01*
X692Y1273D02*
X699Y1273D01*
X709Y1273D02*
X717Y1273D01*
X743Y1273D02*
X750Y1273D01*
X758Y1273D02*
X764Y1273D01*
X799Y1273D02*
X810Y1273D01*
X2157Y1273D02*
X2164Y1273D01*
X0Y1272D02*
X7Y1272D01*
X508Y1272D02*
X514Y1272D01*
X543Y1272D02*
X549Y1272D01*
X563Y1272D02*
X569Y1272D01*
X587Y1272D02*
X593Y1272D01*
X665Y1272D02*
X671Y1272D01*
X692Y1272D02*
X700Y1272D01*
X709Y1272D02*
X716Y1272D01*
X743Y1272D02*
X749Y1272D01*
X758Y1272D02*
X764Y1272D01*
X798Y1272D02*
X810Y1272D01*
X2157Y1272D02*
X2164Y1272D01*
X0Y1271D02*
X7Y1271D01*
X508Y1271D02*
X514Y1271D01*
X543Y1271D02*
X549Y1271D01*
X563Y1271D02*
X569Y1271D01*
X587Y1271D02*
X593Y1271D01*
X665Y1271D02*
X671Y1271D01*
X693Y1271D02*
X700Y1271D01*
X708Y1271D02*
X715Y1271D01*
X742Y1271D02*
X749Y1271D01*
X758Y1271D02*
X764Y1271D01*
X798Y1271D02*
X810Y1271D01*
X2157Y1271D02*
X2164Y1271D01*
X0Y1270D02*
X7Y1270D01*
X508Y1270D02*
X514Y1270D01*
X543Y1270D02*
X549Y1270D01*
X563Y1270D02*
X569Y1270D01*
X587Y1270D02*
X593Y1270D01*
X665Y1270D02*
X671Y1270D01*
X694Y1270D02*
X701Y1270D01*
X708Y1270D02*
X715Y1270D01*
X742Y1270D02*
X748Y1270D01*
X758Y1270D02*
X764Y1270D01*
X798Y1270D02*
X811Y1270D01*
X2157Y1270D02*
X2164Y1270D01*
X0Y1269D02*
X7Y1269D01*
X508Y1269D02*
X514Y1269D01*
X543Y1269D02*
X549Y1269D01*
X563Y1269D02*
X569Y1269D01*
X587Y1269D02*
X593Y1269D01*
X665Y1269D02*
X671Y1269D01*
X694Y1269D02*
X701Y1269D01*
X707Y1269D02*
X714Y1269D01*
X741Y1269D02*
X748Y1269D01*
X758Y1269D02*
X764Y1269D01*
X797Y1269D02*
X811Y1269D01*
X2157Y1269D02*
X2164Y1269D01*
X0Y1268D02*
X7Y1268D01*
X508Y1268D02*
X514Y1268D01*
X543Y1268D02*
X549Y1268D01*
X563Y1268D02*
X569Y1268D01*
X587Y1268D02*
X593Y1268D01*
X665Y1268D02*
X671Y1268D01*
X695Y1268D02*
X702Y1268D01*
X707Y1268D02*
X714Y1268D01*
X741Y1268D02*
X747Y1268D01*
X758Y1268D02*
X764Y1268D01*
X797Y1268D02*
X811Y1268D01*
X2157Y1268D02*
X2164Y1268D01*
X0Y1267D02*
X7Y1267D01*
X508Y1267D02*
X514Y1267D01*
X543Y1267D02*
X549Y1267D01*
X563Y1267D02*
X569Y1267D01*
X587Y1267D02*
X593Y1267D01*
X665Y1267D02*
X671Y1267D01*
X695Y1267D02*
X702Y1267D01*
X706Y1267D02*
X713Y1267D01*
X740Y1267D02*
X747Y1267D01*
X758Y1267D02*
X764Y1267D01*
X797Y1267D02*
X803Y1267D01*
X805Y1267D02*
X812Y1267D01*
X2157Y1267D02*
X2164Y1267D01*
X0Y1266D02*
X7Y1266D01*
X508Y1266D02*
X514Y1266D01*
X543Y1266D02*
X549Y1266D01*
X563Y1266D02*
X569Y1266D01*
X587Y1266D02*
X593Y1266D01*
X665Y1266D02*
X671Y1266D01*
X696Y1266D02*
X703Y1266D01*
X705Y1266D02*
X713Y1266D01*
X740Y1266D02*
X746Y1266D01*
X758Y1266D02*
X764Y1266D01*
X797Y1266D02*
X803Y1266D01*
X806Y1266D02*
X812Y1266D01*
X2157Y1266D02*
X2164Y1266D01*
X0Y1265D02*
X7Y1265D01*
X508Y1265D02*
X514Y1265D01*
X543Y1265D02*
X549Y1265D01*
X563Y1265D02*
X569Y1265D01*
X587Y1265D02*
X593Y1265D01*
X665Y1265D02*
X671Y1265D01*
X696Y1265D02*
X712Y1265D01*
X739Y1265D02*
X746Y1265D01*
X758Y1265D02*
X764Y1265D01*
X796Y1265D02*
X803Y1265D01*
X806Y1265D02*
X812Y1265D01*
X2157Y1265D02*
X2164Y1265D01*
X0Y1264D02*
X7Y1264D01*
X508Y1264D02*
X514Y1264D01*
X543Y1264D02*
X549Y1264D01*
X563Y1264D02*
X569Y1264D01*
X587Y1264D02*
X594Y1264D01*
X665Y1264D02*
X671Y1264D01*
X697Y1264D02*
X711Y1264D01*
X739Y1264D02*
X745Y1264D01*
X758Y1264D02*
X764Y1264D01*
X796Y1264D02*
X802Y1264D01*
X806Y1264D02*
X812Y1264D01*
X2157Y1264D02*
X2164Y1264D01*
X0Y1263D02*
X7Y1263D01*
X508Y1263D02*
X514Y1263D01*
X543Y1263D02*
X549Y1263D01*
X563Y1263D02*
X569Y1263D01*
X588Y1263D02*
X594Y1263D01*
X665Y1263D02*
X671Y1263D01*
X698Y1263D02*
X711Y1263D01*
X738Y1263D02*
X745Y1263D01*
X758Y1263D02*
X764Y1263D01*
X796Y1263D02*
X802Y1263D01*
X806Y1263D02*
X813Y1263D01*
X2157Y1263D02*
X2164Y1263D01*
X0Y1262D02*
X7Y1262D01*
X508Y1262D02*
X514Y1262D01*
X543Y1262D02*
X549Y1262D01*
X563Y1262D02*
X569Y1262D01*
X588Y1262D02*
X595Y1262D01*
X665Y1262D02*
X671Y1262D01*
X698Y1262D02*
X710Y1262D01*
X738Y1262D02*
X744Y1262D01*
X758Y1262D02*
X764Y1262D01*
X795Y1262D02*
X802Y1262D01*
X807Y1262D02*
X813Y1262D01*
X2157Y1262D02*
X2164Y1262D01*
X0Y1261D02*
X7Y1261D01*
X492Y1261D02*
X514Y1261D01*
X543Y1261D02*
X549Y1261D01*
X563Y1261D02*
X569Y1261D01*
X588Y1261D02*
X612Y1261D01*
X665Y1261D02*
X671Y1261D01*
X699Y1261D02*
X710Y1261D01*
X738Y1261D02*
X744Y1261D01*
X758Y1261D02*
X764Y1261D01*
X795Y1261D02*
X801Y1261D01*
X807Y1261D02*
X813Y1261D01*
X2157Y1261D02*
X2164Y1261D01*
X0Y1260D02*
X7Y1260D01*
X490Y1260D02*
X514Y1260D01*
X543Y1260D02*
X549Y1260D01*
X563Y1260D02*
X569Y1260D01*
X589Y1260D02*
X613Y1260D01*
X665Y1260D02*
X671Y1260D01*
X699Y1260D02*
X709Y1260D01*
X738Y1260D02*
X744Y1260D01*
X758Y1260D02*
X764Y1260D01*
X795Y1260D02*
X801Y1260D01*
X807Y1260D02*
X814Y1260D01*
X2157Y1260D02*
X2164Y1260D01*
X0Y1259D02*
X7Y1259D01*
X489Y1259D02*
X514Y1259D01*
X543Y1259D02*
X549Y1259D01*
X563Y1259D02*
X569Y1259D01*
X589Y1259D02*
X614Y1259D01*
X665Y1259D02*
X671Y1259D01*
X700Y1259D02*
X708Y1259D01*
X737Y1259D02*
X744Y1259D01*
X758Y1259D02*
X764Y1259D01*
X794Y1259D02*
X801Y1259D01*
X808Y1259D02*
X814Y1259D01*
X2157Y1259D02*
X2164Y1259D01*
X0Y1258D02*
X7Y1258D01*
X489Y1258D02*
X514Y1258D01*
X543Y1258D02*
X549Y1258D01*
X563Y1258D02*
X569Y1258D01*
X590Y1258D02*
X614Y1258D01*
X665Y1258D02*
X671Y1258D01*
X700Y1258D02*
X708Y1258D01*
X737Y1258D02*
X743Y1258D01*
X758Y1258D02*
X764Y1258D01*
X794Y1258D02*
X801Y1258D01*
X808Y1258D02*
X814Y1258D01*
X2157Y1258D02*
X2164Y1258D01*
X0Y1257D02*
X7Y1257D01*
X488Y1257D02*
X514Y1257D01*
X543Y1257D02*
X549Y1257D01*
X563Y1257D02*
X569Y1257D01*
X590Y1257D02*
X614Y1257D01*
X665Y1257D02*
X671Y1257D01*
X700Y1257D02*
X708Y1257D01*
X737Y1257D02*
X743Y1257D01*
X758Y1257D02*
X764Y1257D01*
X794Y1257D02*
X800Y1257D01*
X808Y1257D02*
X814Y1257D01*
X2157Y1257D02*
X2164Y1257D01*
X0Y1256D02*
X7Y1256D01*
X488Y1256D02*
X514Y1256D01*
X543Y1256D02*
X549Y1256D01*
X563Y1256D02*
X569Y1256D01*
X589Y1256D02*
X614Y1256D01*
X665Y1256D02*
X671Y1256D01*
X700Y1256D02*
X709Y1256D01*
X738Y1256D02*
X744Y1256D01*
X758Y1256D02*
X764Y1256D01*
X794Y1256D02*
X800Y1256D01*
X808Y1256D02*
X815Y1256D01*
X2157Y1256D02*
X2164Y1256D01*
X0Y1255D02*
X7Y1255D01*
X487Y1255D02*
X514Y1255D01*
X541Y1255D02*
X569Y1255D01*
X588Y1255D02*
X613Y1255D01*
X665Y1255D02*
X671Y1255D01*
X699Y1255D02*
X709Y1255D01*
X738Y1255D02*
X744Y1255D01*
X758Y1255D02*
X764Y1255D01*
X793Y1255D02*
X800Y1255D01*
X809Y1255D02*
X815Y1255D01*
X2157Y1255D02*
X2164Y1255D01*
X0Y1254D02*
X7Y1254D01*
X487Y1254D02*
X493Y1254D01*
X540Y1254D02*
X569Y1254D01*
X588Y1254D02*
X596Y1254D01*
X665Y1254D02*
X671Y1254D01*
X698Y1254D02*
X710Y1254D01*
X738Y1254D02*
X744Y1254D01*
X758Y1254D02*
X764Y1254D01*
X793Y1254D02*
X799Y1254D01*
X809Y1254D02*
X815Y1254D01*
X2157Y1254D02*
X2164Y1254D01*
X0Y1253D02*
X7Y1253D01*
X487Y1253D02*
X493Y1253D01*
X539Y1253D02*
X569Y1253D01*
X588Y1253D02*
X594Y1253D01*
X665Y1253D02*
X671Y1253D01*
X698Y1253D02*
X711Y1253D01*
X738Y1253D02*
X745Y1253D01*
X758Y1253D02*
X764Y1253D01*
X793Y1253D02*
X799Y1253D01*
X809Y1253D02*
X816Y1253D01*
X2157Y1253D02*
X2164Y1253D01*
X0Y1252D02*
X7Y1252D01*
X487Y1252D02*
X493Y1252D01*
X539Y1252D02*
X569Y1252D01*
X587Y1252D02*
X594Y1252D01*
X665Y1252D02*
X671Y1252D01*
X697Y1252D02*
X711Y1252D01*
X739Y1252D02*
X745Y1252D01*
X758Y1252D02*
X764Y1252D01*
X792Y1252D02*
X799Y1252D01*
X810Y1252D02*
X816Y1252D01*
X2157Y1252D02*
X2164Y1252D01*
X0Y1251D02*
X7Y1251D01*
X487Y1251D02*
X493Y1251D01*
X539Y1251D02*
X569Y1251D01*
X587Y1251D02*
X593Y1251D01*
X665Y1251D02*
X671Y1251D01*
X697Y1251D02*
X712Y1251D01*
X739Y1251D02*
X746Y1251D01*
X758Y1251D02*
X764Y1251D01*
X792Y1251D02*
X798Y1251D01*
X810Y1251D02*
X816Y1251D01*
X2157Y1251D02*
X2164Y1251D01*
X0Y1250D02*
X7Y1250D01*
X487Y1250D02*
X493Y1250D01*
X540Y1250D02*
X569Y1250D01*
X587Y1250D02*
X593Y1250D01*
X665Y1250D02*
X671Y1250D01*
X696Y1250D02*
X703Y1250D01*
X705Y1250D02*
X712Y1250D01*
X739Y1250D02*
X746Y1250D01*
X758Y1250D02*
X764Y1250D01*
X792Y1250D02*
X798Y1250D01*
X810Y1250D02*
X817Y1250D01*
X2157Y1250D02*
X2164Y1250D01*
X0Y1249D02*
X7Y1249D01*
X487Y1249D02*
X493Y1249D01*
X541Y1249D02*
X569Y1249D01*
X587Y1249D02*
X593Y1249D01*
X665Y1249D02*
X671Y1249D01*
X695Y1249D02*
X703Y1249D01*
X706Y1249D02*
X713Y1249D01*
X740Y1249D02*
X747Y1249D01*
X758Y1249D02*
X764Y1249D01*
X792Y1249D02*
X817Y1249D01*
X2157Y1249D02*
X2164Y1249D01*
X0Y1248D02*
X7Y1248D01*
X487Y1248D02*
X493Y1248D01*
X543Y1248D02*
X549Y1248D01*
X587Y1248D02*
X593Y1248D01*
X665Y1248D02*
X671Y1248D01*
X695Y1248D02*
X702Y1248D01*
X706Y1248D02*
X714Y1248D01*
X740Y1248D02*
X747Y1248D01*
X758Y1248D02*
X764Y1248D01*
X791Y1248D02*
X817Y1248D01*
X2157Y1248D02*
X2164Y1248D01*
X0Y1247D02*
X7Y1247D01*
X487Y1247D02*
X493Y1247D01*
X543Y1247D02*
X549Y1247D01*
X587Y1247D02*
X593Y1247D01*
X665Y1247D02*
X671Y1247D01*
X694Y1247D02*
X701Y1247D01*
X707Y1247D02*
X714Y1247D01*
X741Y1247D02*
X748Y1247D01*
X758Y1247D02*
X764Y1247D01*
X791Y1247D02*
X817Y1247D01*
X2157Y1247D02*
X2164Y1247D01*
X0Y1246D02*
X7Y1246D01*
X487Y1246D02*
X493Y1246D01*
X543Y1246D02*
X549Y1246D01*
X587Y1246D02*
X593Y1246D01*
X665Y1246D02*
X671Y1246D01*
X694Y1246D02*
X701Y1246D01*
X708Y1246D02*
X715Y1246D01*
X741Y1246D02*
X748Y1246D01*
X758Y1246D02*
X764Y1246D01*
X791Y1246D02*
X818Y1246D01*
X2157Y1246D02*
X2164Y1246D01*
X0Y1245D02*
X7Y1245D01*
X487Y1245D02*
X493Y1245D01*
X543Y1245D02*
X549Y1245D01*
X587Y1245D02*
X593Y1245D01*
X665Y1245D02*
X671Y1245D01*
X693Y1245D02*
X700Y1245D01*
X708Y1245D02*
X715Y1245D01*
X742Y1245D02*
X749Y1245D01*
X758Y1245D02*
X764Y1245D01*
X790Y1245D02*
X818Y1245D01*
X2157Y1245D02*
X2164Y1245D01*
X0Y1244D02*
X7Y1244D01*
X487Y1244D02*
X493Y1244D01*
X543Y1244D02*
X549Y1244D01*
X587Y1244D02*
X593Y1244D01*
X665Y1244D02*
X671Y1244D01*
X693Y1244D02*
X700Y1244D01*
X709Y1244D02*
X716Y1244D01*
X742Y1244D02*
X749Y1244D01*
X758Y1244D02*
X764Y1244D01*
X790Y1244D02*
X818Y1244D01*
X2157Y1244D02*
X2164Y1244D01*
X0Y1243D02*
X7Y1243D01*
X487Y1243D02*
X493Y1243D01*
X543Y1243D02*
X549Y1243D01*
X587Y1243D02*
X593Y1243D01*
X665Y1243D02*
X671Y1243D01*
X692Y1243D02*
X699Y1243D01*
X709Y1243D02*
X716Y1243D01*
X743Y1243D02*
X750Y1243D01*
X758Y1243D02*
X764Y1243D01*
X790Y1243D02*
X819Y1243D01*
X2157Y1243D02*
X2164Y1243D01*
X0Y1242D02*
X7Y1242D01*
X487Y1242D02*
X493Y1242D01*
X543Y1242D02*
X549Y1242D01*
X587Y1242D02*
X593Y1242D01*
X665Y1242D02*
X671Y1242D01*
X691Y1242D02*
X699Y1242D01*
X710Y1242D02*
X717Y1242D01*
X743Y1242D02*
X750Y1242D01*
X758Y1242D02*
X764Y1242D01*
X790Y1242D02*
X796Y1242D01*
X813Y1242D02*
X819Y1242D01*
X2157Y1242D02*
X2164Y1242D01*
X0Y1241D02*
X7Y1241D01*
X487Y1241D02*
X493Y1241D01*
X543Y1241D02*
X549Y1241D01*
X587Y1241D02*
X593Y1241D01*
X665Y1241D02*
X671Y1241D01*
X691Y1241D02*
X698Y1241D01*
X710Y1241D02*
X718Y1241D01*
X744Y1241D02*
X751Y1241D01*
X758Y1241D02*
X764Y1241D01*
X789Y1241D02*
X795Y1241D01*
X813Y1241D02*
X819Y1241D01*
X2157Y1241D02*
X2164Y1241D01*
X0Y1240D02*
X7Y1240D01*
X487Y1240D02*
X493Y1240D01*
X516Y1240D02*
X520Y1240D01*
X543Y1240D02*
X549Y1240D01*
X587Y1240D02*
X593Y1240D01*
X665Y1240D02*
X671Y1240D01*
X690Y1240D02*
X697Y1240D01*
X711Y1240D02*
X718Y1240D01*
X744Y1240D02*
X751Y1240D01*
X758Y1240D02*
X764Y1240D01*
X789Y1240D02*
X795Y1240D01*
X813Y1240D02*
X819Y1240D01*
X2157Y1240D02*
X2164Y1240D01*
X0Y1239D02*
X7Y1239D01*
X487Y1239D02*
X493Y1239D01*
X514Y1239D02*
X520Y1239D01*
X543Y1239D02*
X549Y1239D01*
X587Y1239D02*
X593Y1239D01*
X665Y1239D02*
X671Y1239D01*
X690Y1239D02*
X697Y1239D01*
X712Y1239D02*
X719Y1239D01*
X745Y1239D02*
X752Y1239D01*
X758Y1239D02*
X764Y1239D01*
X789Y1239D02*
X795Y1239D01*
X813Y1239D02*
X820Y1239D01*
X2157Y1239D02*
X2164Y1239D01*
X0Y1238D02*
X7Y1238D01*
X487Y1238D02*
X494Y1238D01*
X511Y1238D02*
X521Y1238D01*
X543Y1238D02*
X549Y1238D01*
X587Y1238D02*
X594Y1238D01*
X665Y1238D02*
X671Y1238D01*
X689Y1238D02*
X696Y1238D01*
X712Y1238D02*
X719Y1238D01*
X745Y1238D02*
X753Y1238D01*
X758Y1238D02*
X764Y1238D01*
X788Y1238D02*
X795Y1238D01*
X814Y1238D02*
X820Y1238D01*
X2157Y1238D02*
X2164Y1238D01*
X0Y1237D02*
X7Y1237D01*
X487Y1237D02*
X521Y1237D01*
X543Y1237D02*
X549Y1237D01*
X587Y1237D02*
X620Y1237D01*
X639Y1237D02*
X671Y1237D01*
X688Y1237D02*
X696Y1237D01*
X713Y1237D02*
X720Y1237D01*
X746Y1237D02*
X770Y1237D01*
X788Y1237D02*
X794Y1237D01*
X814Y1237D02*
X820Y1237D01*
X2157Y1237D02*
X2164Y1237D01*
X0Y1236D02*
X7Y1236D01*
X488Y1236D02*
X521Y1236D01*
X543Y1236D02*
X549Y1236D01*
X588Y1236D02*
X620Y1236D01*
X638Y1236D02*
X671Y1236D01*
X688Y1236D02*
X695Y1236D01*
X713Y1236D02*
X721Y1236D01*
X746Y1236D02*
X770Y1236D01*
X788Y1236D02*
X794Y1236D01*
X814Y1236D02*
X821Y1236D01*
X2157Y1236D02*
X2164Y1236D01*
X0Y1235D02*
X7Y1235D01*
X488Y1235D02*
X520Y1235D01*
X543Y1235D02*
X549Y1235D01*
X588Y1235D02*
X621Y1235D01*
X638Y1235D02*
X671Y1235D01*
X688Y1235D02*
X694Y1235D01*
X714Y1235D02*
X721Y1235D01*
X747Y1235D02*
X771Y1235D01*
X787Y1235D02*
X794Y1235D01*
X815Y1235D02*
X821Y1235D01*
X2157Y1235D02*
X2164Y1235D01*
X0Y1234D02*
X7Y1234D01*
X489Y1234D02*
X519Y1234D01*
X543Y1234D02*
X549Y1234D01*
X589Y1234D02*
X621Y1234D01*
X637Y1234D02*
X671Y1234D01*
X687Y1234D02*
X694Y1234D01*
X715Y1234D02*
X721Y1234D01*
X748Y1234D02*
X771Y1234D01*
X787Y1234D02*
X793Y1234D01*
X815Y1234D02*
X821Y1234D01*
X2157Y1234D02*
X2164Y1234D01*
X0Y1233D02*
X7Y1233D01*
X489Y1233D02*
X517Y1233D01*
X543Y1233D02*
X548Y1233D01*
X589Y1233D02*
X621Y1233D01*
X638Y1233D02*
X671Y1233D01*
X688Y1233D02*
X693Y1233D01*
X715Y1233D02*
X721Y1233D01*
X749Y1233D02*
X771Y1233D01*
X788Y1233D02*
X793Y1233D01*
X815Y1233D02*
X821Y1233D01*
X2157Y1233D02*
X2164Y1233D01*
X0Y1232D02*
X7Y1232D01*
X491Y1232D02*
X515Y1232D01*
X544Y1232D02*
X548Y1232D01*
X591Y1232D02*
X620Y1232D01*
X638Y1232D02*
X671Y1232D01*
X688Y1232D02*
X692Y1232D01*
X716Y1232D02*
X720Y1232D01*
X751Y1232D02*
X770Y1232D01*
X788Y1232D02*
X792Y1232D01*
X816Y1232D02*
X820Y1232D01*
X2157Y1232D02*
X2164Y1232D01*
X0Y1231D02*
X7Y1231D01*
X493Y1231D02*
X511Y1231D01*
X545Y1231D02*
X546Y1231D01*
X593Y1231D02*
X619Y1231D01*
X640Y1231D02*
X671Y1231D01*
X690Y1231D02*
X691Y1231D01*
X717Y1231D02*
X719Y1231D01*
X754Y1231D02*
X769Y1231D01*
X790Y1231D02*
X791Y1231D01*
X817Y1231D02*
X819Y1231D01*
X2157Y1231D02*
X2164Y1231D01*
X0Y1230D02*
X7Y1230D01*
X2157Y1230D02*
X2164Y1230D01*
X0Y1229D02*
X7Y1229D01*
X2157Y1229D02*
X2164Y1229D01*
X0Y1228D02*
X7Y1228D01*
X2157Y1228D02*
X2164Y1228D01*
X0Y1227D02*
X7Y1227D01*
X2157Y1227D02*
X2164Y1227D01*
X0Y1226D02*
X7Y1226D01*
X2157Y1226D02*
X2164Y1226D01*
X0Y1225D02*
X7Y1225D01*
X2157Y1225D02*
X2164Y1225D01*
X0Y1224D02*
X7Y1224D01*
X2157Y1224D02*
X2164Y1224D01*
X0Y1223D02*
X7Y1223D01*
X2157Y1223D02*
X2164Y1223D01*
X0Y1222D02*
X7Y1222D01*
X2157Y1222D02*
X2164Y1222D01*
X0Y1221D02*
X7Y1221D01*
X2157Y1221D02*
X2164Y1221D01*
X0Y1220D02*
X7Y1220D01*
X2157Y1220D02*
X2164Y1220D01*
X0Y1219D02*
X7Y1219D01*
X2157Y1219D02*
X2164Y1219D01*
X0Y1218D02*
X7Y1218D01*
X2157Y1218D02*
X2164Y1218D01*
X0Y1217D02*
X7Y1217D01*
X2157Y1217D02*
X2164Y1217D01*
X0Y1216D02*
X7Y1216D01*
X2157Y1216D02*
X2164Y1216D01*
X0Y1215D02*
X7Y1215D01*
X2157Y1215D02*
X2164Y1215D01*
X0Y1214D02*
X7Y1214D01*
X2157Y1214D02*
X2164Y1214D01*
X0Y1213D02*
X7Y1213D01*
X2157Y1213D02*
X2164Y1213D01*
X0Y1212D02*
X7Y1212D01*
X2157Y1212D02*
X2164Y1212D01*
X0Y1211D02*
X7Y1211D01*
X2157Y1211D02*
X2164Y1211D01*
X0Y1210D02*
X7Y1210D01*
X2157Y1210D02*
X2164Y1210D01*
X0Y1209D02*
X7Y1209D01*
X854Y1209D02*
X854Y1209D01*
X904Y1209D02*
X904Y1209D01*
X2157Y1209D02*
X2164Y1209D01*
X0Y1208D02*
X7Y1208D01*
X852Y1208D02*
X856Y1208D01*
X902Y1208D02*
X906Y1208D01*
X2157Y1208D02*
X2164Y1208D01*
X0Y1207D02*
X7Y1207D01*
X851Y1207D02*
X857Y1207D01*
X901Y1207D02*
X908Y1207D01*
X2157Y1207D02*
X2164Y1207D01*
X0Y1206D02*
X7Y1206D01*
X850Y1206D02*
X858Y1206D01*
X901Y1206D02*
X909Y1206D01*
X2157Y1206D02*
X2164Y1206D01*
X0Y1205D02*
X7Y1205D01*
X830Y1205D02*
X1628Y1205D01*
X2157Y1205D02*
X2164Y1205D01*
X0Y1204D02*
X7Y1204D01*
X830Y1204D02*
X1629Y1204D01*
X2157Y1204D02*
X2164Y1204D01*
X0Y1203D02*
X7Y1203D01*
X830Y1203D02*
X1629Y1203D01*
X2157Y1203D02*
X2164Y1203D01*
X0Y1202D02*
X7Y1202D01*
X830Y1202D02*
X1629Y1202D01*
X2157Y1202D02*
X2164Y1202D01*
X0Y1201D02*
X7Y1201D01*
X830Y1201D02*
X1629Y1201D01*
X2157Y1201D02*
X2164Y1201D01*
X0Y1200D02*
X7Y1200D01*
X830Y1200D02*
X1629Y1200D01*
X2157Y1200D02*
X2164Y1200D01*
X0Y1199D02*
X7Y1199D01*
X830Y1199D02*
X1629Y1199D01*
X2157Y1199D02*
X2164Y1199D01*
X0Y1198D02*
X7Y1198D01*
X830Y1198D02*
X1629Y1198D01*
X2157Y1198D02*
X2164Y1198D01*
X0Y1197D02*
X7Y1197D01*
X830Y1197D02*
X837Y1197D01*
X1621Y1197D02*
X1629Y1197D01*
X2157Y1197D02*
X2164Y1197D01*
X0Y1196D02*
X7Y1196D01*
X830Y1196D02*
X837Y1196D01*
X1622Y1196D02*
X1629Y1196D01*
X2157Y1196D02*
X2164Y1196D01*
X0Y1195D02*
X7Y1195D01*
X830Y1195D02*
X837Y1195D01*
X1622Y1195D02*
X1629Y1195D01*
X2157Y1195D02*
X2164Y1195D01*
X0Y1194D02*
X7Y1194D01*
X830Y1194D02*
X837Y1194D01*
X1622Y1194D02*
X1629Y1194D01*
X2157Y1194D02*
X2164Y1194D01*
X0Y1193D02*
X7Y1193D01*
X830Y1193D02*
X837Y1193D01*
X922Y1193D02*
X922Y1193D01*
X1622Y1193D02*
X1629Y1193D01*
X2157Y1193D02*
X2164Y1193D01*
X0Y1192D02*
X7Y1192D01*
X830Y1192D02*
X837Y1192D01*
X922Y1192D02*
X923Y1192D01*
X1622Y1192D02*
X1629Y1192D01*
X2157Y1192D02*
X2164Y1192D01*
X0Y1191D02*
X7Y1191D01*
X830Y1191D02*
X837Y1191D01*
X922Y1191D02*
X924Y1191D01*
X1622Y1191D02*
X1629Y1191D01*
X2157Y1191D02*
X2164Y1191D01*
X0Y1190D02*
X7Y1190D01*
X830Y1190D02*
X837Y1190D01*
X922Y1190D02*
X925Y1190D01*
X1622Y1190D02*
X1629Y1190D01*
X2157Y1190D02*
X2164Y1190D01*
X0Y1189D02*
X7Y1189D01*
X830Y1189D02*
X837Y1189D01*
X922Y1189D02*
X926Y1189D01*
X1622Y1189D02*
X1629Y1189D01*
X2157Y1189D02*
X2164Y1189D01*
X0Y1188D02*
X7Y1188D01*
X830Y1188D02*
X837Y1188D01*
X922Y1188D02*
X927Y1188D01*
X1622Y1188D02*
X1629Y1188D01*
X2157Y1188D02*
X2164Y1188D01*
X0Y1187D02*
X7Y1187D01*
X830Y1187D02*
X837Y1187D01*
X922Y1187D02*
X928Y1187D01*
X1622Y1187D02*
X1629Y1187D01*
X2157Y1187D02*
X2164Y1187D01*
X0Y1186D02*
X7Y1186D01*
X830Y1186D02*
X837Y1186D01*
X922Y1186D02*
X929Y1186D01*
X1622Y1186D02*
X1629Y1186D01*
X2157Y1186D02*
X2164Y1186D01*
X0Y1185D02*
X7Y1185D01*
X829Y1185D02*
X837Y1185D01*
X922Y1185D02*
X930Y1185D01*
X1622Y1185D02*
X1629Y1185D01*
X2157Y1185D02*
X2164Y1185D01*
X0Y1184D02*
X7Y1184D01*
X828Y1184D02*
X837Y1184D01*
X922Y1184D02*
X931Y1184D01*
X1622Y1184D02*
X1629Y1184D01*
X2157Y1184D02*
X2164Y1184D01*
X0Y1183D02*
X7Y1183D01*
X827Y1183D02*
X837Y1183D01*
X922Y1183D02*
X931Y1183D01*
X1622Y1183D02*
X1629Y1183D01*
X2157Y1183D02*
X2164Y1183D01*
X0Y1182D02*
X7Y1182D01*
X826Y1182D02*
X837Y1182D01*
X922Y1182D02*
X932Y1182D01*
X1622Y1182D02*
X1629Y1182D01*
X2157Y1182D02*
X2164Y1182D01*
X0Y1181D02*
X7Y1181D01*
X826Y1181D02*
X837Y1181D01*
X923Y1181D02*
X933Y1181D01*
X1622Y1181D02*
X1629Y1181D01*
X2157Y1181D02*
X2164Y1181D01*
X0Y1180D02*
X7Y1180D01*
X826Y1180D02*
X837Y1180D01*
X924Y1180D02*
X933Y1180D01*
X1622Y1180D02*
X1629Y1180D01*
X2157Y1180D02*
X2164Y1180D01*
X0Y1179D02*
X7Y1179D01*
X826Y1179D02*
X837Y1179D01*
X925Y1179D02*
X933Y1179D01*
X1622Y1179D02*
X1629Y1179D01*
X2157Y1179D02*
X2164Y1179D01*
X0Y1178D02*
X7Y1178D01*
X826Y1178D02*
X837Y1178D01*
X926Y1178D02*
X932Y1178D01*
X1622Y1178D02*
X1629Y1178D01*
X2157Y1178D02*
X2164Y1178D01*
X0Y1177D02*
X7Y1177D01*
X827Y1177D02*
X837Y1177D01*
X927Y1177D02*
X931Y1177D01*
X1622Y1177D02*
X1629Y1177D01*
X2157Y1177D02*
X2164Y1177D01*
X0Y1176D02*
X7Y1176D01*
X830Y1176D02*
X837Y1176D01*
X1622Y1176D02*
X1629Y1176D01*
X2157Y1176D02*
X2164Y1176D01*
X0Y1175D02*
X7Y1175D01*
X830Y1175D02*
X837Y1175D01*
X1622Y1175D02*
X1629Y1175D01*
X2157Y1175D02*
X2164Y1175D01*
X0Y1174D02*
X7Y1174D01*
X830Y1174D02*
X837Y1174D01*
X1622Y1174D02*
X1629Y1174D01*
X2157Y1174D02*
X2164Y1174D01*
X0Y1173D02*
X7Y1173D01*
X830Y1173D02*
X837Y1173D01*
X1622Y1173D02*
X1629Y1173D01*
X2157Y1173D02*
X2164Y1173D01*
X0Y1172D02*
X7Y1172D01*
X830Y1172D02*
X837Y1172D01*
X1622Y1172D02*
X1629Y1172D01*
X2157Y1172D02*
X2164Y1172D01*
X0Y1171D02*
X7Y1171D01*
X830Y1171D02*
X837Y1171D01*
X1622Y1171D02*
X1629Y1171D01*
X2157Y1171D02*
X2164Y1171D01*
X0Y1170D02*
X7Y1170D01*
X830Y1170D02*
X837Y1170D01*
X1622Y1170D02*
X1629Y1170D01*
X2157Y1170D02*
X2164Y1170D01*
X0Y1169D02*
X7Y1169D01*
X830Y1169D02*
X837Y1169D01*
X1622Y1169D02*
X1629Y1169D01*
X2157Y1169D02*
X2164Y1169D01*
X0Y1168D02*
X7Y1168D01*
X830Y1168D02*
X837Y1168D01*
X1622Y1168D02*
X1629Y1168D01*
X2157Y1168D02*
X2164Y1168D01*
X0Y1167D02*
X7Y1167D01*
X830Y1167D02*
X837Y1167D01*
X1622Y1167D02*
X1629Y1167D01*
X2157Y1167D02*
X2164Y1167D01*
X0Y1166D02*
X7Y1166D01*
X830Y1166D02*
X837Y1166D01*
X1622Y1166D02*
X1629Y1166D01*
X2157Y1166D02*
X2164Y1166D01*
X0Y1165D02*
X7Y1165D01*
X830Y1165D02*
X837Y1165D01*
X1622Y1165D02*
X1629Y1165D01*
X2157Y1165D02*
X2164Y1165D01*
X0Y1164D02*
X7Y1164D01*
X830Y1164D02*
X837Y1164D01*
X1622Y1164D02*
X1629Y1164D01*
X2157Y1164D02*
X2164Y1164D01*
X0Y1163D02*
X7Y1163D01*
X830Y1163D02*
X837Y1163D01*
X1622Y1163D02*
X1629Y1163D01*
X2157Y1163D02*
X2164Y1163D01*
X0Y1162D02*
X7Y1162D01*
X830Y1162D02*
X837Y1162D01*
X1622Y1162D02*
X1629Y1162D01*
X2157Y1162D02*
X2164Y1162D01*
X0Y1161D02*
X7Y1161D01*
X830Y1161D02*
X837Y1161D01*
X1622Y1161D02*
X1629Y1161D01*
X2157Y1161D02*
X2164Y1161D01*
X0Y1160D02*
X7Y1160D01*
X830Y1160D02*
X837Y1160D01*
X1622Y1160D02*
X1629Y1160D01*
X2157Y1160D02*
X2164Y1160D01*
X0Y1159D02*
X7Y1159D01*
X830Y1159D02*
X837Y1159D01*
X1622Y1159D02*
X1629Y1159D01*
X2157Y1159D02*
X2164Y1159D01*
X0Y1158D02*
X7Y1158D01*
X830Y1158D02*
X837Y1158D01*
X1622Y1158D02*
X1629Y1158D01*
X2157Y1158D02*
X2164Y1158D01*
X0Y1157D02*
X7Y1157D01*
X830Y1157D02*
X837Y1157D01*
X1622Y1157D02*
X1629Y1157D01*
X2157Y1157D02*
X2164Y1157D01*
X0Y1156D02*
X7Y1156D01*
X830Y1156D02*
X837Y1156D01*
X1622Y1156D02*
X1629Y1156D01*
X2157Y1156D02*
X2164Y1156D01*
X0Y1155D02*
X7Y1155D01*
X830Y1155D02*
X837Y1155D01*
X1622Y1155D02*
X1629Y1155D01*
X2157Y1155D02*
X2164Y1155D01*
X0Y1154D02*
X7Y1154D01*
X830Y1154D02*
X837Y1154D01*
X1622Y1154D02*
X1629Y1154D01*
X2157Y1154D02*
X2164Y1154D01*
X0Y1153D02*
X7Y1153D01*
X830Y1153D02*
X837Y1153D01*
X1622Y1153D02*
X1629Y1153D01*
X2157Y1153D02*
X2164Y1153D01*
X0Y1152D02*
X7Y1152D01*
X830Y1152D02*
X837Y1152D01*
X1622Y1152D02*
X1629Y1152D01*
X2157Y1152D02*
X2164Y1152D01*
X0Y1151D02*
X7Y1151D01*
X830Y1151D02*
X837Y1151D01*
X1622Y1151D02*
X1629Y1151D01*
X2157Y1151D02*
X2164Y1151D01*
X0Y1150D02*
X7Y1150D01*
X830Y1150D02*
X837Y1150D01*
X1622Y1150D02*
X1629Y1150D01*
X2157Y1150D02*
X2164Y1150D01*
X0Y1149D02*
X7Y1149D01*
X830Y1149D02*
X837Y1149D01*
X1622Y1149D02*
X1629Y1149D01*
X2157Y1149D02*
X2164Y1149D01*
X0Y1148D02*
X7Y1148D01*
X830Y1148D02*
X837Y1148D01*
X1622Y1148D02*
X1629Y1148D01*
X2157Y1148D02*
X2164Y1148D01*
X0Y1147D02*
X7Y1147D01*
X830Y1147D02*
X837Y1147D01*
X1622Y1147D02*
X1629Y1147D01*
X2157Y1147D02*
X2164Y1147D01*
X0Y1146D02*
X7Y1146D01*
X830Y1146D02*
X837Y1146D01*
X1622Y1146D02*
X1629Y1146D01*
X2157Y1146D02*
X2164Y1146D01*
X0Y1145D02*
X7Y1145D01*
X830Y1145D02*
X837Y1145D01*
X1622Y1145D02*
X1629Y1145D01*
X2157Y1145D02*
X2164Y1145D01*
X0Y1144D02*
X7Y1144D01*
X830Y1144D02*
X837Y1144D01*
X1622Y1144D02*
X1629Y1144D01*
X2157Y1144D02*
X2164Y1144D01*
X0Y1143D02*
X7Y1143D01*
X830Y1143D02*
X837Y1143D01*
X1622Y1143D02*
X1629Y1143D01*
X2157Y1143D02*
X2164Y1143D01*
X0Y1142D02*
X7Y1142D01*
X830Y1142D02*
X837Y1142D01*
X1622Y1142D02*
X1629Y1142D01*
X2157Y1142D02*
X2164Y1142D01*
X0Y1141D02*
X7Y1141D01*
X830Y1141D02*
X837Y1141D01*
X1622Y1141D02*
X1629Y1141D01*
X2157Y1141D02*
X2164Y1141D01*
X0Y1140D02*
X7Y1140D01*
X830Y1140D02*
X837Y1140D01*
X1622Y1140D02*
X1629Y1140D01*
X2157Y1140D02*
X2164Y1140D01*
X0Y1139D02*
X7Y1139D01*
X830Y1139D02*
X837Y1139D01*
X1622Y1139D02*
X1629Y1139D01*
X2157Y1139D02*
X2164Y1139D01*
X0Y1138D02*
X7Y1138D01*
X830Y1138D02*
X837Y1138D01*
X1622Y1138D02*
X1629Y1138D01*
X2157Y1138D02*
X2164Y1138D01*
X0Y1137D02*
X7Y1137D01*
X830Y1137D02*
X837Y1137D01*
X1622Y1137D02*
X1629Y1137D01*
X2157Y1137D02*
X2164Y1137D01*
X0Y1136D02*
X7Y1136D01*
X830Y1136D02*
X837Y1136D01*
X1622Y1136D02*
X1629Y1136D01*
X2157Y1136D02*
X2164Y1136D01*
X0Y1135D02*
X7Y1135D01*
X830Y1135D02*
X837Y1135D01*
X1622Y1135D02*
X1629Y1135D01*
X2157Y1135D02*
X2164Y1135D01*
X0Y1134D02*
X7Y1134D01*
X829Y1134D02*
X837Y1134D01*
X929Y1134D02*
X929Y1134D01*
X1622Y1134D02*
X1629Y1134D01*
X2157Y1134D02*
X2164Y1134D01*
X0Y1133D02*
X7Y1133D01*
X827Y1133D02*
X837Y1133D01*
X927Y1133D02*
X931Y1133D01*
X1622Y1133D02*
X1629Y1133D01*
X2157Y1133D02*
X2164Y1133D01*
X0Y1132D02*
X7Y1132D01*
X826Y1132D02*
X837Y1132D01*
X926Y1132D02*
X932Y1132D01*
X1622Y1132D02*
X1629Y1132D01*
X2157Y1132D02*
X2164Y1132D01*
X0Y1131D02*
X7Y1131D01*
X826Y1131D02*
X837Y1131D01*
X925Y1131D02*
X933Y1131D01*
X1622Y1131D02*
X1629Y1131D01*
X2157Y1131D02*
X2164Y1131D01*
X0Y1130D02*
X7Y1130D01*
X826Y1130D02*
X837Y1130D01*
X924Y1130D02*
X933Y1130D01*
X1622Y1130D02*
X1629Y1130D01*
X2157Y1130D02*
X2164Y1130D01*
X0Y1129D02*
X7Y1129D01*
X826Y1129D02*
X837Y1129D01*
X923Y1129D02*
X933Y1129D01*
X1622Y1129D02*
X1629Y1129D01*
X2157Y1129D02*
X2164Y1129D01*
X0Y1128D02*
X7Y1128D01*
X826Y1128D02*
X837Y1128D01*
X922Y1128D02*
X932Y1128D01*
X1622Y1128D02*
X1629Y1128D01*
X2157Y1128D02*
X2164Y1128D01*
X0Y1127D02*
X7Y1127D01*
X827Y1127D02*
X837Y1127D01*
X922Y1127D02*
X931Y1127D01*
X1622Y1127D02*
X1629Y1127D01*
X2157Y1127D02*
X2164Y1127D01*
X0Y1126D02*
X7Y1126D01*
X828Y1126D02*
X837Y1126D01*
X922Y1126D02*
X930Y1126D01*
X1622Y1126D02*
X1629Y1126D01*
X2157Y1126D02*
X2164Y1126D01*
X0Y1125D02*
X7Y1125D01*
X829Y1125D02*
X837Y1125D01*
X922Y1125D02*
X929Y1125D01*
X1622Y1125D02*
X1629Y1125D01*
X2157Y1125D02*
X2164Y1125D01*
X0Y1124D02*
X7Y1124D01*
X830Y1124D02*
X837Y1124D01*
X922Y1124D02*
X928Y1124D01*
X1622Y1124D02*
X1629Y1124D01*
X2157Y1124D02*
X2164Y1124D01*
X0Y1123D02*
X7Y1123D01*
X830Y1123D02*
X837Y1123D01*
X922Y1123D02*
X927Y1123D01*
X1622Y1123D02*
X1629Y1123D01*
X2157Y1123D02*
X2164Y1123D01*
X0Y1122D02*
X7Y1122D01*
X830Y1122D02*
X837Y1122D01*
X922Y1122D02*
X926Y1122D01*
X1622Y1122D02*
X1629Y1122D01*
X2157Y1122D02*
X2164Y1122D01*
X0Y1121D02*
X7Y1121D01*
X830Y1121D02*
X837Y1121D01*
X922Y1121D02*
X925Y1121D01*
X1622Y1121D02*
X1629Y1121D01*
X2157Y1121D02*
X2164Y1121D01*
X0Y1120D02*
X7Y1120D01*
X830Y1120D02*
X837Y1120D01*
X922Y1120D02*
X924Y1120D01*
X1622Y1120D02*
X1629Y1120D01*
X2157Y1120D02*
X2164Y1120D01*
X0Y1119D02*
X7Y1119D01*
X830Y1119D02*
X837Y1119D01*
X922Y1119D02*
X923Y1119D01*
X1622Y1119D02*
X1629Y1119D01*
X2157Y1119D02*
X2164Y1119D01*
X0Y1118D02*
X7Y1118D01*
X830Y1118D02*
X837Y1118D01*
X922Y1118D02*
X922Y1118D01*
X1622Y1118D02*
X1629Y1118D01*
X2157Y1118D02*
X2164Y1118D01*
X0Y1117D02*
X7Y1117D01*
X830Y1117D02*
X837Y1117D01*
X1622Y1117D02*
X1629Y1117D01*
X2157Y1117D02*
X2164Y1117D01*
X0Y1116D02*
X7Y1116D01*
X830Y1116D02*
X837Y1116D01*
X1622Y1116D02*
X1629Y1116D01*
X2157Y1116D02*
X2164Y1116D01*
X0Y1115D02*
X7Y1115D01*
X830Y1115D02*
X837Y1115D01*
X1622Y1115D02*
X1629Y1115D01*
X2157Y1115D02*
X2164Y1115D01*
X0Y1114D02*
X7Y1114D01*
X830Y1114D02*
X837Y1114D01*
X1622Y1114D02*
X1629Y1114D01*
X2157Y1114D02*
X2164Y1114D01*
X0Y1113D02*
X7Y1113D01*
X830Y1113D02*
X837Y1113D01*
X841Y1113D02*
X852Y1113D01*
X907Y1113D02*
X917Y1113D01*
X1622Y1113D02*
X1629Y1113D01*
X2157Y1113D02*
X2164Y1113D01*
X0Y1112D02*
X7Y1112D01*
X830Y1112D02*
X837Y1112D01*
X842Y1112D02*
X853Y1112D01*
X906Y1112D02*
X916Y1112D01*
X1622Y1112D02*
X1629Y1112D01*
X2157Y1112D02*
X2164Y1112D01*
X0Y1111D02*
X7Y1111D01*
X830Y1111D02*
X837Y1111D01*
X843Y1111D02*
X854Y1111D01*
X905Y1111D02*
X915Y1111D01*
X1622Y1111D02*
X1629Y1111D01*
X2157Y1111D02*
X2164Y1111D01*
X0Y1110D02*
X7Y1110D01*
X830Y1110D02*
X837Y1110D01*
X844Y1110D02*
X855Y1110D01*
X904Y1110D02*
X914Y1110D01*
X1622Y1110D02*
X1629Y1110D01*
X2157Y1110D02*
X2164Y1110D01*
X0Y1109D02*
X7Y1109D01*
X830Y1109D02*
X837Y1109D01*
X845Y1109D02*
X856Y1109D01*
X903Y1109D02*
X913Y1109D01*
X1622Y1109D02*
X1629Y1109D01*
X2157Y1109D02*
X2164Y1109D01*
X0Y1108D02*
X7Y1108D01*
X830Y1108D02*
X837Y1108D01*
X846Y1108D02*
X857Y1108D01*
X902Y1108D02*
X912Y1108D01*
X1622Y1108D02*
X1629Y1108D01*
X2157Y1108D02*
X2164Y1108D01*
X0Y1107D02*
X7Y1107D01*
X830Y1107D02*
X837Y1107D01*
X847Y1107D02*
X857Y1107D01*
X901Y1107D02*
X911Y1107D01*
X1622Y1107D02*
X1629Y1107D01*
X2157Y1107D02*
X2164Y1107D01*
X0Y1106D02*
X7Y1106D01*
X830Y1106D02*
X837Y1106D01*
X848Y1106D02*
X858Y1106D01*
X901Y1106D02*
X910Y1106D01*
X1622Y1106D02*
X1629Y1106D01*
X2157Y1106D02*
X2164Y1106D01*
X0Y1105D02*
X7Y1105D01*
X830Y1105D02*
X837Y1105D01*
X849Y1105D02*
X858Y1105D01*
X901Y1105D02*
X909Y1105D01*
X1622Y1105D02*
X1629Y1105D01*
X2157Y1105D02*
X2164Y1105D01*
X0Y1104D02*
X7Y1104D01*
X830Y1104D02*
X837Y1104D01*
X850Y1104D02*
X858Y1104D01*
X901Y1104D02*
X908Y1104D01*
X1622Y1104D02*
X1629Y1104D01*
X2157Y1104D02*
X2164Y1104D01*
X0Y1103D02*
X7Y1103D01*
X830Y1103D02*
X837Y1103D01*
X851Y1103D02*
X857Y1103D01*
X901Y1103D02*
X907Y1103D01*
X1622Y1103D02*
X1629Y1103D01*
X2157Y1103D02*
X2164Y1103D01*
X0Y1102D02*
X7Y1102D01*
X830Y1102D02*
X837Y1102D01*
X852Y1102D02*
X856Y1102D01*
X902Y1102D02*
X906Y1102D01*
X1622Y1102D02*
X1629Y1102D01*
X2157Y1102D02*
X2164Y1102D01*
X0Y1101D02*
X7Y1101D01*
X830Y1101D02*
X837Y1101D01*
X1622Y1101D02*
X1629Y1101D01*
X2157Y1101D02*
X2164Y1101D01*
X0Y1100D02*
X7Y1100D01*
X830Y1100D02*
X837Y1100D01*
X1622Y1100D02*
X1629Y1100D01*
X2157Y1100D02*
X2164Y1100D01*
X0Y1099D02*
X7Y1099D01*
X830Y1099D02*
X837Y1099D01*
X1622Y1099D02*
X1629Y1099D01*
X2157Y1099D02*
X2164Y1099D01*
X0Y1098D02*
X7Y1098D01*
X830Y1098D02*
X837Y1098D01*
X1622Y1098D02*
X1629Y1098D01*
X2157Y1098D02*
X2164Y1098D01*
X0Y1097D02*
X7Y1097D01*
X830Y1097D02*
X837Y1097D01*
X1622Y1097D02*
X1629Y1097D01*
X2157Y1097D02*
X2164Y1097D01*
X0Y1096D02*
X7Y1096D01*
X830Y1096D02*
X837Y1096D01*
X1622Y1096D02*
X1629Y1096D01*
X2157Y1096D02*
X2164Y1096D01*
X0Y1095D02*
X7Y1095D01*
X830Y1095D02*
X837Y1095D01*
X1622Y1095D02*
X1629Y1095D01*
X2157Y1095D02*
X2164Y1095D01*
X0Y1094D02*
X7Y1094D01*
X830Y1094D02*
X837Y1094D01*
X1622Y1094D02*
X1629Y1094D01*
X2157Y1094D02*
X2164Y1094D01*
X0Y1093D02*
X7Y1093D01*
X830Y1093D02*
X837Y1093D01*
X1622Y1093D02*
X1629Y1093D01*
X2157Y1093D02*
X2164Y1093D01*
X0Y1092D02*
X7Y1092D01*
X830Y1092D02*
X837Y1092D01*
X1622Y1092D02*
X1629Y1092D01*
X2157Y1092D02*
X2164Y1092D01*
X0Y1091D02*
X7Y1091D01*
X830Y1091D02*
X837Y1091D01*
X1622Y1091D02*
X1629Y1091D01*
X2157Y1091D02*
X2164Y1091D01*
X0Y1090D02*
X7Y1090D01*
X830Y1090D02*
X837Y1090D01*
X1622Y1090D02*
X1629Y1090D01*
X2157Y1090D02*
X2164Y1090D01*
X0Y1089D02*
X7Y1089D01*
X830Y1089D02*
X837Y1089D01*
X1622Y1089D02*
X1629Y1089D01*
X2157Y1089D02*
X2164Y1089D01*
X0Y1088D02*
X7Y1088D01*
X830Y1088D02*
X837Y1088D01*
X1622Y1088D02*
X1629Y1088D01*
X2157Y1088D02*
X2164Y1088D01*
X0Y1087D02*
X7Y1087D01*
X830Y1087D02*
X837Y1087D01*
X1622Y1087D02*
X1629Y1087D01*
X2157Y1087D02*
X2164Y1087D01*
X0Y1086D02*
X7Y1086D01*
X830Y1086D02*
X837Y1086D01*
X1622Y1086D02*
X1629Y1086D01*
X2157Y1086D02*
X2164Y1086D01*
X0Y1085D02*
X7Y1085D01*
X830Y1085D02*
X837Y1085D01*
X1622Y1085D02*
X1629Y1085D01*
X2157Y1085D02*
X2164Y1085D01*
X0Y1084D02*
X7Y1084D01*
X830Y1084D02*
X837Y1084D01*
X1622Y1084D02*
X1629Y1084D01*
X2157Y1084D02*
X2164Y1084D01*
X0Y1083D02*
X7Y1083D01*
X830Y1083D02*
X837Y1083D01*
X1622Y1083D02*
X1629Y1083D01*
X2157Y1083D02*
X2164Y1083D01*
X0Y1082D02*
X7Y1082D01*
X830Y1082D02*
X837Y1082D01*
X1622Y1082D02*
X1629Y1082D01*
X2157Y1082D02*
X2164Y1082D01*
X0Y1081D02*
X7Y1081D01*
X830Y1081D02*
X837Y1081D01*
X1622Y1081D02*
X1629Y1081D01*
X2157Y1081D02*
X2164Y1081D01*
X0Y1080D02*
X7Y1080D01*
X830Y1080D02*
X837Y1080D01*
X1622Y1080D02*
X1629Y1080D01*
X2157Y1080D02*
X2164Y1080D01*
X0Y1079D02*
X7Y1079D01*
X830Y1079D02*
X837Y1079D01*
X1622Y1079D02*
X1629Y1079D01*
X2157Y1079D02*
X2164Y1079D01*
X0Y1078D02*
X7Y1078D01*
X830Y1078D02*
X837Y1078D01*
X1622Y1078D02*
X1629Y1078D01*
X2157Y1078D02*
X2164Y1078D01*
X0Y1077D02*
X7Y1077D01*
X830Y1077D02*
X837Y1077D01*
X1622Y1077D02*
X1629Y1077D01*
X2157Y1077D02*
X2164Y1077D01*
X0Y1076D02*
X7Y1076D01*
X830Y1076D02*
X837Y1076D01*
X1622Y1076D02*
X1629Y1076D01*
X2157Y1076D02*
X2164Y1076D01*
X0Y1075D02*
X7Y1075D01*
X830Y1075D02*
X837Y1075D01*
X1622Y1075D02*
X1629Y1075D01*
X2157Y1075D02*
X2164Y1075D01*
X0Y1074D02*
X7Y1074D01*
X830Y1074D02*
X837Y1074D01*
X1622Y1074D02*
X1629Y1074D01*
X2157Y1074D02*
X2164Y1074D01*
X0Y1073D02*
X7Y1073D01*
X830Y1073D02*
X837Y1073D01*
X1622Y1073D02*
X1629Y1073D01*
X2157Y1073D02*
X2164Y1073D01*
X0Y1072D02*
X7Y1072D01*
X830Y1072D02*
X837Y1072D01*
X1622Y1072D02*
X1629Y1072D01*
X2157Y1072D02*
X2164Y1072D01*
X0Y1071D02*
X7Y1071D01*
X830Y1071D02*
X837Y1071D01*
X1622Y1071D02*
X1629Y1071D01*
X2157Y1071D02*
X2164Y1071D01*
X0Y1070D02*
X7Y1070D01*
X830Y1070D02*
X837Y1070D01*
X1622Y1070D02*
X1629Y1070D01*
X2157Y1070D02*
X2164Y1070D01*
X0Y1069D02*
X7Y1069D01*
X830Y1069D02*
X837Y1069D01*
X1622Y1069D02*
X1629Y1069D01*
X2157Y1069D02*
X2164Y1069D01*
X0Y1068D02*
X7Y1068D01*
X830Y1068D02*
X837Y1068D01*
X1622Y1068D02*
X1629Y1068D01*
X2157Y1068D02*
X2164Y1068D01*
X0Y1067D02*
X7Y1067D01*
X830Y1067D02*
X837Y1067D01*
X1622Y1067D02*
X1629Y1067D01*
X2157Y1067D02*
X2164Y1067D01*
X0Y1066D02*
X7Y1066D01*
X830Y1066D02*
X837Y1066D01*
X1622Y1066D02*
X1629Y1066D01*
X2157Y1066D02*
X2164Y1066D01*
X0Y1065D02*
X7Y1065D01*
X830Y1065D02*
X837Y1065D01*
X1622Y1065D02*
X1629Y1065D01*
X2157Y1065D02*
X2164Y1065D01*
X0Y1064D02*
X7Y1064D01*
X830Y1064D02*
X837Y1064D01*
X1622Y1064D02*
X1629Y1064D01*
X2157Y1064D02*
X2164Y1064D01*
X0Y1063D02*
X7Y1063D01*
X830Y1063D02*
X837Y1063D01*
X1622Y1063D02*
X1629Y1063D01*
X2157Y1063D02*
X2164Y1063D01*
X0Y1062D02*
X7Y1062D01*
X830Y1062D02*
X837Y1062D01*
X1622Y1062D02*
X1629Y1062D01*
X2157Y1062D02*
X2164Y1062D01*
X0Y1061D02*
X7Y1061D01*
X830Y1061D02*
X837Y1061D01*
X1622Y1061D02*
X1629Y1061D01*
X2157Y1061D02*
X2164Y1061D01*
X0Y1060D02*
X7Y1060D01*
X830Y1060D02*
X837Y1060D01*
X1622Y1060D02*
X1629Y1060D01*
X2157Y1060D02*
X2164Y1060D01*
X0Y1059D02*
X7Y1059D01*
X830Y1059D02*
X837Y1059D01*
X1622Y1059D02*
X1629Y1059D01*
X2157Y1059D02*
X2164Y1059D01*
X0Y1058D02*
X7Y1058D01*
X830Y1058D02*
X837Y1058D01*
X1622Y1058D02*
X1629Y1058D01*
X2157Y1058D02*
X2164Y1058D01*
X0Y1057D02*
X7Y1057D01*
X830Y1057D02*
X837Y1057D01*
X1622Y1057D02*
X1629Y1057D01*
X2157Y1057D02*
X2164Y1057D01*
X0Y1056D02*
X7Y1056D01*
X830Y1056D02*
X837Y1056D01*
X1622Y1056D02*
X1629Y1056D01*
X2157Y1056D02*
X2164Y1056D01*
X0Y1055D02*
X7Y1055D01*
X830Y1055D02*
X837Y1055D01*
X1622Y1055D02*
X1629Y1055D01*
X2157Y1055D02*
X2164Y1055D01*
X0Y1054D02*
X7Y1054D01*
X830Y1054D02*
X837Y1054D01*
X1622Y1054D02*
X1629Y1054D01*
X2157Y1054D02*
X2164Y1054D01*
X0Y1053D02*
X7Y1053D01*
X830Y1053D02*
X837Y1053D01*
X1622Y1053D02*
X1629Y1053D01*
X2157Y1053D02*
X2164Y1053D01*
X0Y1052D02*
X7Y1052D01*
X830Y1052D02*
X837Y1052D01*
X1622Y1052D02*
X1629Y1052D01*
X2157Y1052D02*
X2164Y1052D01*
X0Y1051D02*
X7Y1051D01*
X830Y1051D02*
X837Y1051D01*
X1622Y1051D02*
X1629Y1051D01*
X2157Y1051D02*
X2164Y1051D01*
X0Y1050D02*
X7Y1050D01*
X830Y1050D02*
X837Y1050D01*
X1622Y1050D02*
X1629Y1050D01*
X2157Y1050D02*
X2164Y1050D01*
X0Y1049D02*
X7Y1049D01*
X830Y1049D02*
X837Y1049D01*
X1622Y1049D02*
X1629Y1049D01*
X2157Y1049D02*
X2164Y1049D01*
X0Y1048D02*
X7Y1048D01*
X830Y1048D02*
X837Y1048D01*
X1622Y1048D02*
X1629Y1048D01*
X2157Y1048D02*
X2164Y1048D01*
X0Y1047D02*
X7Y1047D01*
X830Y1047D02*
X837Y1047D01*
X1622Y1047D02*
X1629Y1047D01*
X2157Y1047D02*
X2164Y1047D01*
X0Y1046D02*
X7Y1046D01*
X830Y1046D02*
X837Y1046D01*
X1622Y1046D02*
X1629Y1046D01*
X2157Y1046D02*
X2164Y1046D01*
X0Y1045D02*
X7Y1045D01*
X830Y1045D02*
X837Y1045D01*
X1622Y1045D02*
X1629Y1045D01*
X2157Y1045D02*
X2164Y1045D01*
X0Y1044D02*
X7Y1044D01*
X830Y1044D02*
X837Y1044D01*
X1622Y1044D02*
X1629Y1044D01*
X2157Y1044D02*
X2164Y1044D01*
X0Y1043D02*
X7Y1043D01*
X830Y1043D02*
X837Y1043D01*
X1622Y1043D02*
X1629Y1043D01*
X2157Y1043D02*
X2164Y1043D01*
X0Y1042D02*
X7Y1042D01*
X830Y1042D02*
X837Y1042D01*
X1622Y1042D02*
X1629Y1042D01*
X2157Y1042D02*
X2164Y1042D01*
X0Y1041D02*
X7Y1041D01*
X830Y1041D02*
X837Y1041D01*
X1622Y1041D02*
X1629Y1041D01*
X2157Y1041D02*
X2164Y1041D01*
X0Y1040D02*
X7Y1040D01*
X830Y1040D02*
X837Y1040D01*
X1622Y1040D02*
X1629Y1040D01*
X2157Y1040D02*
X2164Y1040D01*
X0Y1039D02*
X7Y1039D01*
X830Y1039D02*
X837Y1039D01*
X1622Y1039D02*
X1629Y1039D01*
X2157Y1039D02*
X2164Y1039D01*
X0Y1038D02*
X7Y1038D01*
X830Y1038D02*
X837Y1038D01*
X1622Y1038D02*
X1629Y1038D01*
X2157Y1038D02*
X2164Y1038D01*
X0Y1037D02*
X7Y1037D01*
X830Y1037D02*
X837Y1037D01*
X1622Y1037D02*
X1629Y1037D01*
X2157Y1037D02*
X2164Y1037D01*
X0Y1036D02*
X7Y1036D01*
X830Y1036D02*
X837Y1036D01*
X1622Y1036D02*
X1629Y1036D01*
X2157Y1036D02*
X2164Y1036D01*
X0Y1035D02*
X7Y1035D01*
X830Y1035D02*
X837Y1035D01*
X1622Y1035D02*
X1629Y1035D01*
X2157Y1035D02*
X2164Y1035D01*
X0Y1034D02*
X7Y1034D01*
X830Y1034D02*
X837Y1034D01*
X1622Y1034D02*
X1629Y1034D01*
X2157Y1034D02*
X2164Y1034D01*
X0Y1033D02*
X7Y1033D01*
X830Y1033D02*
X837Y1033D01*
X1622Y1033D02*
X1629Y1033D01*
X2157Y1033D02*
X2164Y1033D01*
X0Y1032D02*
X7Y1032D01*
X830Y1032D02*
X837Y1032D01*
X1622Y1032D02*
X1629Y1032D01*
X2157Y1032D02*
X2164Y1032D01*
X0Y1031D02*
X7Y1031D01*
X830Y1031D02*
X837Y1031D01*
X1622Y1031D02*
X1629Y1031D01*
X2157Y1031D02*
X2164Y1031D01*
X0Y1030D02*
X7Y1030D01*
X830Y1030D02*
X837Y1030D01*
X1622Y1030D02*
X1629Y1030D01*
X2157Y1030D02*
X2164Y1030D01*
X0Y1029D02*
X7Y1029D01*
X830Y1029D02*
X837Y1029D01*
X1622Y1029D02*
X1629Y1029D01*
X2157Y1029D02*
X2164Y1029D01*
X0Y1028D02*
X7Y1028D01*
X830Y1028D02*
X837Y1028D01*
X1622Y1028D02*
X1629Y1028D01*
X2157Y1028D02*
X2164Y1028D01*
X0Y1027D02*
X7Y1027D01*
X830Y1027D02*
X837Y1027D01*
X1622Y1027D02*
X1629Y1027D01*
X2157Y1027D02*
X2164Y1027D01*
X0Y1026D02*
X7Y1026D01*
X830Y1026D02*
X837Y1026D01*
X1622Y1026D02*
X1629Y1026D01*
X2157Y1026D02*
X2164Y1026D01*
X0Y1025D02*
X7Y1025D01*
X830Y1025D02*
X837Y1025D01*
X1622Y1025D02*
X1629Y1025D01*
X2157Y1025D02*
X2164Y1025D01*
X0Y1024D02*
X7Y1024D01*
X830Y1024D02*
X837Y1024D01*
X1622Y1024D02*
X1629Y1024D01*
X2157Y1024D02*
X2164Y1024D01*
X0Y1023D02*
X7Y1023D01*
X830Y1023D02*
X837Y1023D01*
X1622Y1023D02*
X1629Y1023D01*
X2157Y1023D02*
X2164Y1023D01*
X0Y1022D02*
X7Y1022D01*
X830Y1022D02*
X837Y1022D01*
X1622Y1022D02*
X1629Y1022D01*
X2157Y1022D02*
X2164Y1022D01*
X0Y1021D02*
X7Y1021D01*
X830Y1021D02*
X837Y1021D01*
X1622Y1021D02*
X1629Y1021D01*
X2157Y1021D02*
X2164Y1021D01*
X0Y1020D02*
X7Y1020D01*
X830Y1020D02*
X837Y1020D01*
X1622Y1020D02*
X1629Y1020D01*
X2157Y1020D02*
X2164Y1020D01*
X0Y1019D02*
X7Y1019D01*
X830Y1019D02*
X837Y1019D01*
X1622Y1019D02*
X1629Y1019D01*
X2157Y1019D02*
X2164Y1019D01*
X0Y1018D02*
X7Y1018D01*
X830Y1018D02*
X837Y1018D01*
X1622Y1018D02*
X1629Y1018D01*
X2157Y1018D02*
X2164Y1018D01*
X0Y1017D02*
X7Y1017D01*
X830Y1017D02*
X837Y1017D01*
X1622Y1017D02*
X1629Y1017D01*
X2157Y1017D02*
X2164Y1017D01*
X0Y1016D02*
X7Y1016D01*
X830Y1016D02*
X837Y1016D01*
X1622Y1016D02*
X1629Y1016D01*
X2157Y1016D02*
X2164Y1016D01*
X0Y1015D02*
X7Y1015D01*
X830Y1015D02*
X837Y1015D01*
X1622Y1015D02*
X1629Y1015D01*
X2157Y1015D02*
X2164Y1015D01*
X0Y1014D02*
X7Y1014D01*
X830Y1014D02*
X837Y1014D01*
X1622Y1014D02*
X1629Y1014D01*
X2157Y1014D02*
X2164Y1014D01*
X0Y1013D02*
X7Y1013D01*
X830Y1013D02*
X837Y1013D01*
X1622Y1013D02*
X1629Y1013D01*
X2157Y1013D02*
X2164Y1013D01*
X0Y1012D02*
X7Y1012D01*
X830Y1012D02*
X837Y1012D01*
X1622Y1012D02*
X1629Y1012D01*
X2157Y1012D02*
X2164Y1012D01*
X0Y1011D02*
X7Y1011D01*
X830Y1011D02*
X837Y1011D01*
X1622Y1011D02*
X1629Y1011D01*
X2157Y1011D02*
X2164Y1011D01*
X0Y1010D02*
X7Y1010D01*
X830Y1010D02*
X837Y1010D01*
X1622Y1010D02*
X1629Y1010D01*
X2157Y1010D02*
X2164Y1010D01*
X0Y1009D02*
X7Y1009D01*
X830Y1009D02*
X837Y1009D01*
X1622Y1009D02*
X1629Y1009D01*
X2157Y1009D02*
X2164Y1009D01*
X0Y1008D02*
X7Y1008D01*
X830Y1008D02*
X837Y1008D01*
X1622Y1008D02*
X1629Y1008D01*
X2157Y1008D02*
X2164Y1008D01*
X0Y1007D02*
X7Y1007D01*
X830Y1007D02*
X837Y1007D01*
X1622Y1007D02*
X1629Y1007D01*
X2157Y1007D02*
X2164Y1007D01*
X0Y1006D02*
X7Y1006D01*
X830Y1006D02*
X837Y1006D01*
X1622Y1006D02*
X1629Y1006D01*
X2157Y1006D02*
X2164Y1006D01*
X0Y1005D02*
X7Y1005D01*
X830Y1005D02*
X837Y1005D01*
X1622Y1005D02*
X1629Y1005D01*
X2157Y1005D02*
X2164Y1005D01*
X0Y1004D02*
X7Y1004D01*
X830Y1004D02*
X837Y1004D01*
X1622Y1004D02*
X1629Y1004D01*
X2157Y1004D02*
X2164Y1004D01*
X0Y1003D02*
X7Y1003D01*
X830Y1003D02*
X837Y1003D01*
X1622Y1003D02*
X1629Y1003D01*
X2157Y1003D02*
X2164Y1003D01*
X0Y1002D02*
X7Y1002D01*
X830Y1002D02*
X837Y1002D01*
X1622Y1002D02*
X1629Y1002D01*
X2157Y1002D02*
X2164Y1002D01*
X0Y1001D02*
X7Y1001D01*
X830Y1001D02*
X837Y1001D01*
X1622Y1001D02*
X1629Y1001D01*
X2157Y1001D02*
X2164Y1001D01*
X0Y1000D02*
X7Y1000D01*
X830Y1000D02*
X837Y1000D01*
X1622Y1000D02*
X1629Y1000D01*
X2157Y1000D02*
X2164Y1000D01*
X0Y999D02*
X7Y999D01*
X830Y999D02*
X837Y999D01*
X1622Y999D02*
X1629Y999D01*
X2157Y999D02*
X2164Y999D01*
X0Y998D02*
X7Y998D01*
X830Y998D02*
X837Y998D01*
X1622Y998D02*
X1629Y998D01*
X2157Y998D02*
X2164Y998D01*
X0Y997D02*
X7Y997D01*
X830Y997D02*
X837Y997D01*
X1622Y997D02*
X1629Y997D01*
X2157Y997D02*
X2164Y997D01*
X0Y996D02*
X7Y996D01*
X830Y996D02*
X837Y996D01*
X1622Y996D02*
X1629Y996D01*
X2157Y996D02*
X2164Y996D01*
X0Y995D02*
X7Y995D01*
X830Y995D02*
X837Y995D01*
X1622Y995D02*
X1629Y995D01*
X2157Y995D02*
X2164Y995D01*
X0Y994D02*
X7Y994D01*
X830Y994D02*
X837Y994D01*
X1622Y994D02*
X1629Y994D01*
X2157Y994D02*
X2164Y994D01*
X0Y993D02*
X7Y993D01*
X830Y993D02*
X837Y993D01*
X1622Y993D02*
X1629Y993D01*
X2157Y993D02*
X2164Y993D01*
X0Y992D02*
X7Y992D01*
X830Y992D02*
X837Y992D01*
X1622Y992D02*
X1629Y992D01*
X2157Y992D02*
X2164Y992D01*
X0Y991D02*
X7Y991D01*
X830Y991D02*
X837Y991D01*
X1622Y991D02*
X1629Y991D01*
X2157Y991D02*
X2164Y991D01*
X0Y990D02*
X7Y990D01*
X830Y990D02*
X837Y990D01*
X1622Y990D02*
X1629Y990D01*
X2157Y990D02*
X2164Y990D01*
X0Y989D02*
X7Y989D01*
X830Y989D02*
X837Y989D01*
X1622Y989D02*
X1629Y989D01*
X2157Y989D02*
X2164Y989D01*
X0Y988D02*
X7Y988D01*
X830Y988D02*
X837Y988D01*
X1622Y988D02*
X1629Y988D01*
X2157Y988D02*
X2164Y988D01*
X0Y987D02*
X7Y987D01*
X830Y987D02*
X837Y987D01*
X1622Y987D02*
X1629Y987D01*
X2157Y987D02*
X2164Y987D01*
X0Y986D02*
X7Y986D01*
X830Y986D02*
X837Y986D01*
X1622Y986D02*
X1629Y986D01*
X2157Y986D02*
X2164Y986D01*
X0Y985D02*
X7Y985D01*
X830Y985D02*
X837Y985D01*
X1622Y985D02*
X1629Y985D01*
X2157Y985D02*
X2164Y985D01*
X0Y984D02*
X7Y984D01*
X830Y984D02*
X837Y984D01*
X1622Y984D02*
X1629Y984D01*
X2157Y984D02*
X2164Y984D01*
X0Y983D02*
X7Y983D01*
X830Y983D02*
X837Y983D01*
X1622Y983D02*
X1629Y983D01*
X2157Y983D02*
X2164Y983D01*
X0Y982D02*
X7Y982D01*
X830Y982D02*
X837Y982D01*
X1622Y982D02*
X1629Y982D01*
X2157Y982D02*
X2164Y982D01*
X0Y981D02*
X7Y981D01*
X830Y981D02*
X837Y981D01*
X1622Y981D02*
X1629Y981D01*
X2157Y981D02*
X2164Y981D01*
X0Y980D02*
X7Y980D01*
X830Y980D02*
X837Y980D01*
X1622Y980D02*
X1629Y980D01*
X2157Y980D02*
X2164Y980D01*
X0Y979D02*
X7Y979D01*
X830Y979D02*
X837Y979D01*
X1622Y979D02*
X1629Y979D01*
X2157Y979D02*
X2164Y979D01*
X0Y978D02*
X7Y978D01*
X830Y978D02*
X837Y978D01*
X1622Y978D02*
X1629Y978D01*
X2157Y978D02*
X2164Y978D01*
X0Y977D02*
X7Y977D01*
X830Y977D02*
X837Y977D01*
X1622Y977D02*
X1629Y977D01*
X2157Y977D02*
X2164Y977D01*
X0Y976D02*
X7Y976D01*
X830Y976D02*
X837Y976D01*
X1622Y976D02*
X1629Y976D01*
X2157Y976D02*
X2164Y976D01*
X0Y975D02*
X7Y975D01*
X830Y975D02*
X837Y975D01*
X1622Y975D02*
X1629Y975D01*
X2157Y975D02*
X2164Y975D01*
X0Y974D02*
X7Y974D01*
X830Y974D02*
X837Y974D01*
X1622Y974D02*
X1629Y974D01*
X2157Y974D02*
X2164Y974D01*
X0Y973D02*
X7Y973D01*
X830Y973D02*
X837Y973D01*
X1622Y973D02*
X1629Y973D01*
X2157Y973D02*
X2164Y973D01*
X0Y972D02*
X7Y972D01*
X830Y972D02*
X837Y972D01*
X1622Y972D02*
X1629Y972D01*
X2157Y972D02*
X2164Y972D01*
X0Y971D02*
X7Y971D01*
X830Y971D02*
X837Y971D01*
X1622Y971D02*
X1629Y971D01*
X2157Y971D02*
X2164Y971D01*
X0Y970D02*
X7Y970D01*
X830Y970D02*
X837Y970D01*
X1622Y970D02*
X1629Y970D01*
X2157Y970D02*
X2164Y970D01*
X0Y969D02*
X7Y969D01*
X830Y969D02*
X837Y969D01*
X1622Y969D02*
X1629Y969D01*
X2157Y969D02*
X2164Y969D01*
X0Y968D02*
X7Y968D01*
X830Y968D02*
X837Y968D01*
X1622Y968D02*
X1629Y968D01*
X2157Y968D02*
X2164Y968D01*
X0Y967D02*
X7Y967D01*
X830Y967D02*
X837Y967D01*
X1622Y967D02*
X1629Y967D01*
X2157Y967D02*
X2164Y967D01*
X0Y966D02*
X7Y966D01*
X830Y966D02*
X837Y966D01*
X1622Y966D02*
X1629Y966D01*
X2157Y966D02*
X2164Y966D01*
X0Y965D02*
X7Y965D01*
X830Y965D02*
X837Y965D01*
X1622Y965D02*
X1629Y965D01*
X2157Y965D02*
X2164Y965D01*
X0Y964D02*
X7Y964D01*
X830Y964D02*
X837Y964D01*
X1622Y964D02*
X1629Y964D01*
X2157Y964D02*
X2164Y964D01*
X0Y963D02*
X7Y963D01*
X830Y963D02*
X837Y963D01*
X1622Y963D02*
X1629Y963D01*
X2157Y963D02*
X2164Y963D01*
X0Y962D02*
X7Y962D01*
X830Y962D02*
X837Y962D01*
X1622Y962D02*
X1629Y962D01*
X2157Y962D02*
X2164Y962D01*
X0Y961D02*
X7Y961D01*
X830Y961D02*
X837Y961D01*
X1622Y961D02*
X1629Y961D01*
X2157Y961D02*
X2164Y961D01*
X0Y960D02*
X7Y960D01*
X830Y960D02*
X837Y960D01*
X1622Y960D02*
X1629Y960D01*
X2157Y960D02*
X2164Y960D01*
X0Y959D02*
X7Y959D01*
X830Y959D02*
X837Y959D01*
X1622Y959D02*
X1629Y959D01*
X2157Y959D02*
X2164Y959D01*
X0Y958D02*
X7Y958D01*
X830Y958D02*
X837Y958D01*
X1622Y958D02*
X1629Y958D01*
X2157Y958D02*
X2164Y958D01*
X0Y957D02*
X7Y957D01*
X830Y957D02*
X837Y957D01*
X1622Y957D02*
X1629Y957D01*
X2157Y957D02*
X2164Y957D01*
X0Y956D02*
X7Y956D01*
X830Y956D02*
X837Y956D01*
X1622Y956D02*
X1629Y956D01*
X2157Y956D02*
X2164Y956D01*
X0Y955D02*
X7Y955D01*
X830Y955D02*
X837Y955D01*
X1622Y955D02*
X1629Y955D01*
X2157Y955D02*
X2164Y955D01*
X0Y954D02*
X7Y954D01*
X830Y954D02*
X837Y954D01*
X1622Y954D02*
X1629Y954D01*
X2157Y954D02*
X2164Y954D01*
X0Y953D02*
X7Y953D01*
X830Y953D02*
X837Y953D01*
X1622Y953D02*
X1629Y953D01*
X2157Y953D02*
X2164Y953D01*
X0Y952D02*
X7Y952D01*
X830Y952D02*
X837Y952D01*
X1622Y952D02*
X1629Y952D01*
X2157Y952D02*
X2164Y952D01*
X0Y951D02*
X7Y951D01*
X830Y951D02*
X837Y951D01*
X1622Y951D02*
X1629Y951D01*
X2157Y951D02*
X2164Y951D01*
X0Y950D02*
X7Y950D01*
X830Y950D02*
X837Y950D01*
X1622Y950D02*
X1629Y950D01*
X2157Y950D02*
X2164Y950D01*
X0Y949D02*
X7Y949D01*
X830Y949D02*
X837Y949D01*
X1622Y949D02*
X1629Y949D01*
X2157Y949D02*
X2164Y949D01*
X0Y948D02*
X7Y948D01*
X830Y948D02*
X837Y948D01*
X1622Y948D02*
X1629Y948D01*
X2157Y948D02*
X2164Y948D01*
X0Y947D02*
X7Y947D01*
X830Y947D02*
X837Y947D01*
X1622Y947D02*
X1629Y947D01*
X2157Y947D02*
X2164Y947D01*
X0Y946D02*
X7Y946D01*
X830Y946D02*
X837Y946D01*
X1622Y946D02*
X1629Y946D01*
X2157Y946D02*
X2164Y946D01*
X0Y945D02*
X7Y945D01*
X830Y945D02*
X837Y945D01*
X1622Y945D02*
X1629Y945D01*
X2157Y945D02*
X2164Y945D01*
X0Y944D02*
X7Y944D01*
X830Y944D02*
X837Y944D01*
X1622Y944D02*
X1629Y944D01*
X2157Y944D02*
X2164Y944D01*
X0Y943D02*
X7Y943D01*
X830Y943D02*
X837Y943D01*
X1622Y943D02*
X1629Y943D01*
X2157Y943D02*
X2164Y943D01*
X0Y942D02*
X7Y942D01*
X830Y942D02*
X837Y942D01*
X1622Y942D02*
X1629Y942D01*
X2157Y942D02*
X2164Y942D01*
X0Y941D02*
X7Y941D01*
X830Y941D02*
X837Y941D01*
X1622Y941D02*
X1629Y941D01*
X2157Y941D02*
X2164Y941D01*
X0Y940D02*
X7Y940D01*
X830Y940D02*
X837Y940D01*
X1622Y940D02*
X1629Y940D01*
X2157Y940D02*
X2164Y940D01*
X0Y939D02*
X7Y939D01*
X830Y939D02*
X837Y939D01*
X1622Y939D02*
X1629Y939D01*
X2157Y939D02*
X2164Y939D01*
X0Y938D02*
X7Y938D01*
X830Y938D02*
X837Y938D01*
X1622Y938D02*
X1629Y938D01*
X2157Y938D02*
X2164Y938D01*
X0Y937D02*
X7Y937D01*
X830Y937D02*
X837Y937D01*
X1622Y937D02*
X1629Y937D01*
X2157Y937D02*
X2164Y937D01*
X0Y936D02*
X7Y936D01*
X830Y936D02*
X837Y936D01*
X1622Y936D02*
X1629Y936D01*
X2157Y936D02*
X2164Y936D01*
X0Y935D02*
X7Y935D01*
X830Y935D02*
X837Y935D01*
X1622Y935D02*
X1629Y935D01*
X2157Y935D02*
X2164Y935D01*
X0Y934D02*
X7Y934D01*
X830Y934D02*
X837Y934D01*
X1622Y934D02*
X1629Y934D01*
X2157Y934D02*
X2164Y934D01*
X0Y933D02*
X7Y933D01*
X830Y933D02*
X837Y933D01*
X1622Y933D02*
X1629Y933D01*
X2157Y933D02*
X2164Y933D01*
X0Y932D02*
X7Y932D01*
X830Y932D02*
X837Y932D01*
X1622Y932D02*
X1629Y932D01*
X2157Y932D02*
X2164Y932D01*
X0Y931D02*
X7Y931D01*
X830Y931D02*
X837Y931D01*
X1622Y931D02*
X1629Y931D01*
X2157Y931D02*
X2164Y931D01*
X0Y930D02*
X7Y930D01*
X830Y930D02*
X837Y930D01*
X1622Y930D02*
X1629Y930D01*
X2157Y930D02*
X2164Y930D01*
X0Y929D02*
X7Y929D01*
X830Y929D02*
X837Y929D01*
X1622Y929D02*
X1629Y929D01*
X2157Y929D02*
X2164Y929D01*
X0Y928D02*
X7Y928D01*
X830Y928D02*
X837Y928D01*
X1622Y928D02*
X1629Y928D01*
X2157Y928D02*
X2164Y928D01*
X0Y927D02*
X7Y927D01*
X830Y927D02*
X837Y927D01*
X1622Y927D02*
X1629Y927D01*
X2157Y927D02*
X2164Y927D01*
X0Y926D02*
X7Y926D01*
X830Y926D02*
X837Y926D01*
X1622Y926D02*
X1629Y926D01*
X2157Y926D02*
X2164Y926D01*
X0Y925D02*
X7Y925D01*
X830Y925D02*
X837Y925D01*
X1622Y925D02*
X1629Y925D01*
X2157Y925D02*
X2164Y925D01*
X0Y924D02*
X7Y924D01*
X830Y924D02*
X837Y924D01*
X1622Y924D02*
X1629Y924D01*
X2157Y924D02*
X2164Y924D01*
X0Y923D02*
X7Y923D01*
X830Y923D02*
X837Y923D01*
X1622Y923D02*
X1629Y923D01*
X2157Y923D02*
X2164Y923D01*
X0Y922D02*
X7Y922D01*
X830Y922D02*
X837Y922D01*
X1622Y922D02*
X1629Y922D01*
X2157Y922D02*
X2164Y922D01*
X0Y921D02*
X7Y921D01*
X830Y921D02*
X837Y921D01*
X1622Y921D02*
X1629Y921D01*
X2157Y921D02*
X2164Y921D01*
X0Y920D02*
X7Y920D01*
X830Y920D02*
X837Y920D01*
X1622Y920D02*
X1629Y920D01*
X2157Y920D02*
X2164Y920D01*
X0Y919D02*
X7Y919D01*
X830Y919D02*
X837Y919D01*
X1622Y919D02*
X1629Y919D01*
X2157Y919D02*
X2164Y919D01*
X0Y918D02*
X7Y918D01*
X830Y918D02*
X837Y918D01*
X1622Y918D02*
X1629Y918D01*
X2157Y918D02*
X2164Y918D01*
X0Y917D02*
X7Y917D01*
X830Y917D02*
X837Y917D01*
X1622Y917D02*
X1629Y917D01*
X2157Y917D02*
X2164Y917D01*
X0Y916D02*
X7Y916D01*
X830Y916D02*
X837Y916D01*
X1622Y916D02*
X1629Y916D01*
X2157Y916D02*
X2164Y916D01*
X0Y915D02*
X7Y915D01*
X830Y915D02*
X837Y915D01*
X1622Y915D02*
X1629Y915D01*
X2157Y915D02*
X2164Y915D01*
X0Y914D02*
X7Y914D01*
X830Y914D02*
X837Y914D01*
X1622Y914D02*
X1629Y914D01*
X2157Y914D02*
X2164Y914D01*
X0Y913D02*
X7Y913D01*
X830Y913D02*
X837Y913D01*
X1622Y913D02*
X1629Y913D01*
X2157Y913D02*
X2164Y913D01*
X0Y912D02*
X7Y912D01*
X830Y912D02*
X837Y912D01*
X1622Y912D02*
X1629Y912D01*
X2157Y912D02*
X2164Y912D01*
X0Y911D02*
X7Y911D01*
X830Y911D02*
X837Y911D01*
X1622Y911D02*
X1629Y911D01*
X2157Y911D02*
X2164Y911D01*
X0Y910D02*
X7Y910D01*
X830Y910D02*
X837Y910D01*
X1622Y910D02*
X1629Y910D01*
X2157Y910D02*
X2164Y910D01*
X0Y909D02*
X7Y909D01*
X830Y909D02*
X837Y909D01*
X1622Y909D02*
X1629Y909D01*
X2157Y909D02*
X2164Y909D01*
X0Y908D02*
X7Y908D01*
X830Y908D02*
X837Y908D01*
X1622Y908D02*
X1629Y908D01*
X2157Y908D02*
X2164Y908D01*
X0Y907D02*
X7Y907D01*
X830Y907D02*
X837Y907D01*
X1622Y907D02*
X1629Y907D01*
X2157Y907D02*
X2164Y907D01*
X0Y906D02*
X7Y906D01*
X830Y906D02*
X837Y906D01*
X1622Y906D02*
X1629Y906D01*
X2157Y906D02*
X2164Y906D01*
X0Y905D02*
X7Y905D01*
X830Y905D02*
X837Y905D01*
X1622Y905D02*
X1629Y905D01*
X2157Y905D02*
X2164Y905D01*
X0Y904D02*
X7Y904D01*
X830Y904D02*
X837Y904D01*
X1622Y904D02*
X1629Y904D01*
X2157Y904D02*
X2164Y904D01*
X0Y903D02*
X7Y903D01*
X830Y903D02*
X837Y903D01*
X1622Y903D02*
X1629Y903D01*
X2157Y903D02*
X2164Y903D01*
X0Y902D02*
X7Y902D01*
X830Y902D02*
X837Y902D01*
X1622Y902D02*
X1629Y902D01*
X2157Y902D02*
X2164Y902D01*
X0Y901D02*
X7Y901D01*
X830Y901D02*
X837Y901D01*
X1622Y901D02*
X1629Y901D01*
X2157Y901D02*
X2164Y901D01*
X0Y900D02*
X7Y900D01*
X830Y900D02*
X837Y900D01*
X1622Y900D02*
X1629Y900D01*
X2157Y900D02*
X2164Y900D01*
X0Y899D02*
X7Y899D01*
X830Y899D02*
X837Y899D01*
X1622Y899D02*
X1629Y899D01*
X2157Y899D02*
X2164Y899D01*
X0Y898D02*
X7Y898D01*
X830Y898D02*
X837Y898D01*
X1622Y898D02*
X1629Y898D01*
X2157Y898D02*
X2164Y898D01*
X0Y897D02*
X7Y897D01*
X830Y897D02*
X837Y897D01*
X1622Y897D02*
X1629Y897D01*
X2157Y897D02*
X2164Y897D01*
X0Y896D02*
X7Y896D01*
X830Y896D02*
X837Y896D01*
X1622Y896D02*
X1629Y896D01*
X2157Y896D02*
X2164Y896D01*
X0Y895D02*
X7Y895D01*
X830Y895D02*
X837Y895D01*
X1622Y895D02*
X1629Y895D01*
X2157Y895D02*
X2164Y895D01*
X0Y894D02*
X7Y894D01*
X830Y894D02*
X837Y894D01*
X1622Y894D02*
X1629Y894D01*
X2157Y894D02*
X2164Y894D01*
X0Y893D02*
X7Y893D01*
X830Y893D02*
X837Y893D01*
X1622Y893D02*
X1629Y893D01*
X2157Y893D02*
X2164Y893D01*
X0Y892D02*
X7Y892D01*
X830Y892D02*
X837Y892D01*
X1622Y892D02*
X1629Y892D01*
X2157Y892D02*
X2164Y892D01*
X0Y891D02*
X7Y891D01*
X830Y891D02*
X837Y891D01*
X1622Y891D02*
X1629Y891D01*
X2157Y891D02*
X2164Y891D01*
X0Y890D02*
X7Y890D01*
X830Y890D02*
X837Y890D01*
X1622Y890D02*
X1629Y890D01*
X2157Y890D02*
X2164Y890D01*
X0Y889D02*
X7Y889D01*
X830Y889D02*
X837Y889D01*
X1622Y889D02*
X1629Y889D01*
X2157Y889D02*
X2164Y889D01*
X0Y888D02*
X7Y888D01*
X830Y888D02*
X837Y888D01*
X1622Y888D02*
X1629Y888D01*
X2157Y888D02*
X2164Y888D01*
X0Y887D02*
X7Y887D01*
X830Y887D02*
X837Y887D01*
X1622Y887D02*
X1629Y887D01*
X2157Y887D02*
X2164Y887D01*
X0Y886D02*
X7Y886D01*
X830Y886D02*
X837Y886D01*
X1622Y886D02*
X1629Y886D01*
X2157Y886D02*
X2164Y886D01*
X0Y885D02*
X7Y885D01*
X830Y885D02*
X837Y885D01*
X1622Y885D02*
X1629Y885D01*
X2157Y885D02*
X2164Y885D01*
X0Y884D02*
X7Y884D01*
X830Y884D02*
X837Y884D01*
X1622Y884D02*
X1629Y884D01*
X2157Y884D02*
X2164Y884D01*
X0Y883D02*
X7Y883D01*
X830Y883D02*
X837Y883D01*
X1622Y883D02*
X1629Y883D01*
X2157Y883D02*
X2164Y883D01*
X0Y882D02*
X7Y882D01*
X830Y882D02*
X837Y882D01*
X1622Y882D02*
X1629Y882D01*
X2157Y882D02*
X2164Y882D01*
X0Y881D02*
X7Y881D01*
X830Y881D02*
X837Y881D01*
X1622Y881D02*
X1629Y881D01*
X2157Y881D02*
X2164Y881D01*
X0Y880D02*
X7Y880D01*
X830Y880D02*
X837Y880D01*
X1622Y880D02*
X1629Y880D01*
X2157Y880D02*
X2164Y880D01*
X0Y879D02*
X7Y879D01*
X830Y879D02*
X837Y879D01*
X1622Y879D02*
X1629Y879D01*
X2157Y879D02*
X2164Y879D01*
X0Y878D02*
X7Y878D01*
X830Y878D02*
X837Y878D01*
X1622Y878D02*
X1629Y878D01*
X2157Y878D02*
X2164Y878D01*
X0Y877D02*
X7Y877D01*
X830Y877D02*
X837Y877D01*
X1622Y877D02*
X1629Y877D01*
X2157Y877D02*
X2164Y877D01*
X0Y876D02*
X7Y876D01*
X830Y876D02*
X837Y876D01*
X1622Y876D02*
X1629Y876D01*
X2157Y876D02*
X2164Y876D01*
X0Y875D02*
X7Y875D01*
X830Y875D02*
X837Y875D01*
X1622Y875D02*
X1629Y875D01*
X2157Y875D02*
X2164Y875D01*
X0Y874D02*
X7Y874D01*
X830Y874D02*
X837Y874D01*
X1622Y874D02*
X1629Y874D01*
X2157Y874D02*
X2164Y874D01*
X0Y873D02*
X7Y873D01*
X830Y873D02*
X837Y873D01*
X1622Y873D02*
X1629Y873D01*
X2157Y873D02*
X2164Y873D01*
X0Y872D02*
X7Y872D01*
X830Y872D02*
X837Y872D01*
X1622Y872D02*
X1629Y872D01*
X2157Y872D02*
X2164Y872D01*
X0Y871D02*
X7Y871D01*
X830Y871D02*
X837Y871D01*
X1622Y871D02*
X1629Y871D01*
X2157Y871D02*
X2164Y871D01*
X0Y870D02*
X7Y870D01*
X830Y870D02*
X837Y870D01*
X1622Y870D02*
X1629Y870D01*
X2157Y870D02*
X2164Y870D01*
X0Y869D02*
X7Y869D01*
X830Y869D02*
X837Y869D01*
X1622Y869D02*
X1629Y869D01*
X2157Y869D02*
X2164Y869D01*
X0Y868D02*
X7Y868D01*
X830Y868D02*
X837Y868D01*
X1622Y868D02*
X1629Y868D01*
X2157Y868D02*
X2164Y868D01*
X0Y867D02*
X7Y867D01*
X830Y867D02*
X837Y867D01*
X1622Y867D02*
X1629Y867D01*
X2157Y867D02*
X2164Y867D01*
X0Y866D02*
X7Y866D01*
X830Y866D02*
X837Y866D01*
X1622Y866D02*
X1629Y866D01*
X2157Y866D02*
X2164Y866D01*
X0Y865D02*
X7Y865D01*
X830Y865D02*
X837Y865D01*
X1622Y865D02*
X1629Y865D01*
X2157Y865D02*
X2164Y865D01*
X0Y864D02*
X7Y864D01*
X830Y864D02*
X837Y864D01*
X1622Y864D02*
X1629Y864D01*
X2157Y864D02*
X2164Y864D01*
X0Y863D02*
X7Y863D01*
X830Y863D02*
X837Y863D01*
X1622Y863D02*
X1629Y863D01*
X2157Y863D02*
X2164Y863D01*
X0Y862D02*
X7Y862D01*
X830Y862D02*
X837Y862D01*
X1622Y862D02*
X1629Y862D01*
X2157Y862D02*
X2164Y862D01*
X0Y861D02*
X7Y861D01*
X830Y861D02*
X837Y861D01*
X1622Y861D02*
X1629Y861D01*
X2157Y861D02*
X2164Y861D01*
X0Y860D02*
X7Y860D01*
X830Y860D02*
X837Y860D01*
X1622Y860D02*
X1629Y860D01*
X2157Y860D02*
X2164Y860D01*
X0Y859D02*
X7Y859D01*
X830Y859D02*
X837Y859D01*
X1622Y859D02*
X1629Y859D01*
X2157Y859D02*
X2164Y859D01*
X0Y858D02*
X7Y858D01*
X830Y858D02*
X837Y858D01*
X1622Y858D02*
X1629Y858D01*
X2157Y858D02*
X2164Y858D01*
X0Y857D02*
X7Y857D01*
X830Y857D02*
X837Y857D01*
X1622Y857D02*
X1629Y857D01*
X2157Y857D02*
X2164Y857D01*
X0Y856D02*
X7Y856D01*
X830Y856D02*
X837Y856D01*
X1622Y856D02*
X1629Y856D01*
X2157Y856D02*
X2164Y856D01*
X0Y855D02*
X7Y855D01*
X830Y855D02*
X837Y855D01*
X1622Y855D02*
X1629Y855D01*
X2157Y855D02*
X2164Y855D01*
X0Y854D02*
X7Y854D01*
X830Y854D02*
X837Y854D01*
X1622Y854D02*
X1629Y854D01*
X2157Y854D02*
X2164Y854D01*
X0Y853D02*
X7Y853D01*
X830Y853D02*
X837Y853D01*
X1622Y853D02*
X1629Y853D01*
X2157Y853D02*
X2164Y853D01*
X0Y852D02*
X7Y852D01*
X830Y852D02*
X837Y852D01*
X1622Y852D02*
X1629Y852D01*
X2157Y852D02*
X2164Y852D01*
X0Y851D02*
X7Y851D01*
X830Y851D02*
X837Y851D01*
X1622Y851D02*
X1629Y851D01*
X2157Y851D02*
X2164Y851D01*
X0Y850D02*
X7Y850D01*
X830Y850D02*
X837Y850D01*
X1622Y850D02*
X1629Y850D01*
X2157Y850D02*
X2164Y850D01*
X0Y849D02*
X7Y849D01*
X830Y849D02*
X837Y849D01*
X1622Y849D02*
X1629Y849D01*
X2157Y849D02*
X2164Y849D01*
X0Y848D02*
X7Y848D01*
X830Y848D02*
X837Y848D01*
X1622Y848D02*
X1629Y848D01*
X2157Y848D02*
X2164Y848D01*
X0Y847D02*
X7Y847D01*
X830Y847D02*
X837Y847D01*
X1622Y847D02*
X1629Y847D01*
X2157Y847D02*
X2164Y847D01*
X0Y846D02*
X7Y846D01*
X830Y846D02*
X837Y846D01*
X1622Y846D02*
X1629Y846D01*
X2157Y846D02*
X2164Y846D01*
X0Y845D02*
X7Y845D01*
X830Y845D02*
X837Y845D01*
X1622Y845D02*
X1629Y845D01*
X2157Y845D02*
X2164Y845D01*
X0Y844D02*
X7Y844D01*
X830Y844D02*
X837Y844D01*
X1622Y844D02*
X1629Y844D01*
X2157Y844D02*
X2164Y844D01*
X0Y843D02*
X7Y843D01*
X830Y843D02*
X837Y843D01*
X1622Y843D02*
X1629Y843D01*
X2157Y843D02*
X2164Y843D01*
X0Y842D02*
X7Y842D01*
X830Y842D02*
X837Y842D01*
X1622Y842D02*
X1629Y842D01*
X2157Y842D02*
X2164Y842D01*
X0Y841D02*
X7Y841D01*
X830Y841D02*
X837Y841D01*
X1622Y841D02*
X1629Y841D01*
X2157Y841D02*
X2164Y841D01*
X0Y840D02*
X7Y840D01*
X830Y840D02*
X837Y840D01*
X1622Y840D02*
X1629Y840D01*
X2157Y840D02*
X2164Y840D01*
X0Y839D02*
X7Y839D01*
X830Y839D02*
X837Y839D01*
X1622Y839D02*
X1629Y839D01*
X2157Y839D02*
X2164Y839D01*
X0Y838D02*
X7Y838D01*
X830Y838D02*
X837Y838D01*
X1622Y838D02*
X1629Y838D01*
X2157Y838D02*
X2164Y838D01*
X0Y837D02*
X7Y837D01*
X830Y837D02*
X837Y837D01*
X1622Y837D02*
X1629Y837D01*
X2157Y837D02*
X2164Y837D01*
X0Y836D02*
X7Y836D01*
X830Y836D02*
X837Y836D01*
X1622Y836D02*
X1629Y836D01*
X2157Y836D02*
X2164Y836D01*
X0Y835D02*
X7Y835D01*
X830Y835D02*
X837Y835D01*
X1622Y835D02*
X1629Y835D01*
X2157Y835D02*
X2164Y835D01*
X0Y834D02*
X7Y834D01*
X830Y834D02*
X837Y834D01*
X1622Y834D02*
X1629Y834D01*
X2157Y834D02*
X2164Y834D01*
X0Y833D02*
X7Y833D01*
X830Y833D02*
X837Y833D01*
X1622Y833D02*
X1629Y833D01*
X2157Y833D02*
X2164Y833D01*
X0Y832D02*
X7Y832D01*
X830Y832D02*
X837Y832D01*
X1622Y832D02*
X1629Y832D01*
X2157Y832D02*
X2164Y832D01*
X0Y831D02*
X7Y831D01*
X830Y831D02*
X837Y831D01*
X1622Y831D02*
X1629Y831D01*
X2157Y831D02*
X2164Y831D01*
X0Y830D02*
X7Y830D01*
X830Y830D02*
X837Y830D01*
X1622Y830D02*
X1629Y830D01*
X2157Y830D02*
X2164Y830D01*
X0Y829D02*
X7Y829D01*
X830Y829D02*
X837Y829D01*
X1622Y829D02*
X1629Y829D01*
X2157Y829D02*
X2164Y829D01*
X0Y828D02*
X7Y828D01*
X830Y828D02*
X837Y828D01*
X1622Y828D02*
X1629Y828D01*
X2157Y828D02*
X2164Y828D01*
X0Y827D02*
X7Y827D01*
X830Y827D02*
X837Y827D01*
X1622Y827D02*
X1629Y827D01*
X2157Y827D02*
X2164Y827D01*
X0Y826D02*
X7Y826D01*
X830Y826D02*
X837Y826D01*
X1622Y826D02*
X1629Y826D01*
X2157Y826D02*
X2164Y826D01*
X0Y825D02*
X7Y825D01*
X830Y825D02*
X837Y825D01*
X1622Y825D02*
X1629Y825D01*
X2157Y825D02*
X2164Y825D01*
X0Y824D02*
X7Y824D01*
X830Y824D02*
X837Y824D01*
X1622Y824D02*
X1629Y824D01*
X2157Y824D02*
X2164Y824D01*
X0Y823D02*
X7Y823D01*
X830Y823D02*
X837Y823D01*
X1622Y823D02*
X1629Y823D01*
X2157Y823D02*
X2164Y823D01*
X0Y822D02*
X7Y822D01*
X830Y822D02*
X837Y822D01*
X1622Y822D02*
X1629Y822D01*
X2157Y822D02*
X2164Y822D01*
X0Y821D02*
X7Y821D01*
X830Y821D02*
X837Y821D01*
X1622Y821D02*
X1629Y821D01*
X2157Y821D02*
X2164Y821D01*
X0Y820D02*
X7Y820D01*
X830Y820D02*
X837Y820D01*
X1622Y820D02*
X1629Y820D01*
X2157Y820D02*
X2164Y820D01*
X0Y819D02*
X7Y819D01*
X830Y819D02*
X837Y819D01*
X1622Y819D02*
X1629Y819D01*
X2157Y819D02*
X2164Y819D01*
X0Y818D02*
X7Y818D01*
X830Y818D02*
X837Y818D01*
X1622Y818D02*
X1629Y818D01*
X2157Y818D02*
X2164Y818D01*
X0Y817D02*
X7Y817D01*
X830Y817D02*
X837Y817D01*
X1622Y817D02*
X1629Y817D01*
X2157Y817D02*
X2164Y817D01*
X0Y816D02*
X7Y816D01*
X830Y816D02*
X837Y816D01*
X1622Y816D02*
X1629Y816D01*
X2157Y816D02*
X2164Y816D01*
X0Y815D02*
X7Y815D01*
X830Y815D02*
X837Y815D01*
X1622Y815D02*
X1629Y815D01*
X2157Y815D02*
X2164Y815D01*
X0Y814D02*
X7Y814D01*
X830Y814D02*
X837Y814D01*
X1622Y814D02*
X1629Y814D01*
X2157Y814D02*
X2164Y814D01*
X0Y813D02*
X7Y813D01*
X830Y813D02*
X837Y813D01*
X1622Y813D02*
X1629Y813D01*
X2157Y813D02*
X2164Y813D01*
X0Y812D02*
X7Y812D01*
X830Y812D02*
X837Y812D01*
X1622Y812D02*
X1629Y812D01*
X2157Y812D02*
X2164Y812D01*
X0Y811D02*
X7Y811D01*
X830Y811D02*
X837Y811D01*
X1622Y811D02*
X1629Y811D01*
X2157Y811D02*
X2164Y811D01*
X0Y810D02*
X7Y810D01*
X830Y810D02*
X837Y810D01*
X1622Y810D02*
X1629Y810D01*
X2157Y810D02*
X2164Y810D01*
X0Y809D02*
X7Y809D01*
X830Y809D02*
X837Y809D01*
X1622Y809D02*
X1629Y809D01*
X2157Y809D02*
X2164Y809D01*
X0Y808D02*
X7Y808D01*
X830Y808D02*
X837Y808D01*
X1622Y808D02*
X1629Y808D01*
X2157Y808D02*
X2164Y808D01*
X0Y807D02*
X7Y807D01*
X830Y807D02*
X837Y807D01*
X1622Y807D02*
X1629Y807D01*
X2157Y807D02*
X2164Y807D01*
X0Y806D02*
X7Y806D01*
X830Y806D02*
X837Y806D01*
X1622Y806D02*
X1629Y806D01*
X2157Y806D02*
X2164Y806D01*
X0Y805D02*
X7Y805D01*
X830Y805D02*
X837Y805D01*
X1622Y805D02*
X1629Y805D01*
X2157Y805D02*
X2164Y805D01*
X0Y804D02*
X7Y804D01*
X830Y804D02*
X837Y804D01*
X1622Y804D02*
X1629Y804D01*
X2157Y804D02*
X2164Y804D01*
X0Y803D02*
X7Y803D01*
X830Y803D02*
X837Y803D01*
X1622Y803D02*
X1629Y803D01*
X2157Y803D02*
X2164Y803D01*
X0Y802D02*
X7Y802D01*
X830Y802D02*
X837Y802D01*
X1622Y802D02*
X1629Y802D01*
X2157Y802D02*
X2164Y802D01*
X0Y801D02*
X7Y801D01*
X830Y801D02*
X837Y801D01*
X1622Y801D02*
X1629Y801D01*
X2157Y801D02*
X2164Y801D01*
X0Y800D02*
X7Y800D01*
X830Y800D02*
X837Y800D01*
X1622Y800D02*
X1629Y800D01*
X2157Y800D02*
X2164Y800D01*
X0Y799D02*
X7Y799D01*
X830Y799D02*
X837Y799D01*
X1622Y799D02*
X1629Y799D01*
X2157Y799D02*
X2164Y799D01*
X0Y798D02*
X7Y798D01*
X830Y798D02*
X837Y798D01*
X1622Y798D02*
X1629Y798D01*
X2157Y798D02*
X2164Y798D01*
X0Y797D02*
X7Y797D01*
X830Y797D02*
X837Y797D01*
X1622Y797D02*
X1629Y797D01*
X2157Y797D02*
X2164Y797D01*
X0Y796D02*
X7Y796D01*
X830Y796D02*
X837Y796D01*
X1622Y796D02*
X1629Y796D01*
X2157Y796D02*
X2164Y796D01*
X0Y795D02*
X7Y795D01*
X830Y795D02*
X837Y795D01*
X1622Y795D02*
X1629Y795D01*
X2157Y795D02*
X2164Y795D01*
X0Y794D02*
X7Y794D01*
X830Y794D02*
X837Y794D01*
X1622Y794D02*
X1629Y794D01*
X2157Y794D02*
X2164Y794D01*
X0Y793D02*
X7Y793D01*
X830Y793D02*
X837Y793D01*
X1622Y793D02*
X1629Y793D01*
X2157Y793D02*
X2164Y793D01*
X0Y792D02*
X7Y792D01*
X830Y792D02*
X837Y792D01*
X1622Y792D02*
X1629Y792D01*
X2157Y792D02*
X2164Y792D01*
X0Y791D02*
X7Y791D01*
X830Y791D02*
X837Y791D01*
X1622Y791D02*
X1629Y791D01*
X2157Y791D02*
X2164Y791D01*
X0Y790D02*
X7Y790D01*
X830Y790D02*
X837Y790D01*
X1622Y790D02*
X1629Y790D01*
X2157Y790D02*
X2164Y790D01*
X0Y789D02*
X7Y789D01*
X830Y789D02*
X837Y789D01*
X1622Y789D02*
X1629Y789D01*
X2157Y789D02*
X2164Y789D01*
X0Y788D02*
X7Y788D01*
X830Y788D02*
X837Y788D01*
X1622Y788D02*
X1629Y788D01*
X2157Y788D02*
X2164Y788D01*
X0Y787D02*
X7Y787D01*
X830Y787D02*
X837Y787D01*
X1622Y787D02*
X1629Y787D01*
X2157Y787D02*
X2164Y787D01*
X0Y786D02*
X7Y786D01*
X830Y786D02*
X837Y786D01*
X1622Y786D02*
X1629Y786D01*
X2157Y786D02*
X2164Y786D01*
X0Y785D02*
X7Y785D01*
X830Y785D02*
X837Y785D01*
X1622Y785D02*
X1629Y785D01*
X2157Y785D02*
X2164Y785D01*
X0Y784D02*
X7Y784D01*
X830Y784D02*
X837Y784D01*
X1622Y784D02*
X1629Y784D01*
X2157Y784D02*
X2164Y784D01*
X0Y783D02*
X7Y783D01*
X830Y783D02*
X837Y783D01*
X1622Y783D02*
X1629Y783D01*
X2157Y783D02*
X2164Y783D01*
X0Y782D02*
X7Y782D01*
X830Y782D02*
X837Y782D01*
X1622Y782D02*
X1629Y782D01*
X2157Y782D02*
X2164Y782D01*
X0Y781D02*
X7Y781D01*
X830Y781D02*
X837Y781D01*
X1622Y781D02*
X1629Y781D01*
X2157Y781D02*
X2164Y781D01*
X0Y780D02*
X7Y780D01*
X830Y780D02*
X837Y780D01*
X1622Y780D02*
X1629Y780D01*
X2157Y780D02*
X2164Y780D01*
X0Y779D02*
X7Y779D01*
X830Y779D02*
X837Y779D01*
X1622Y779D02*
X1629Y779D01*
X2157Y779D02*
X2164Y779D01*
X0Y778D02*
X7Y778D01*
X830Y778D02*
X837Y778D01*
X1622Y778D02*
X1629Y778D01*
X2157Y778D02*
X2164Y778D01*
X0Y777D02*
X7Y777D01*
X830Y777D02*
X837Y777D01*
X1622Y777D02*
X1629Y777D01*
X2157Y777D02*
X2164Y777D01*
X0Y776D02*
X7Y776D01*
X830Y776D02*
X837Y776D01*
X1622Y776D02*
X1629Y776D01*
X2157Y776D02*
X2164Y776D01*
X0Y775D02*
X7Y775D01*
X830Y775D02*
X837Y775D01*
X1622Y775D02*
X1629Y775D01*
X2157Y775D02*
X2164Y775D01*
X0Y774D02*
X7Y774D01*
X830Y774D02*
X837Y774D01*
X1622Y774D02*
X1629Y774D01*
X2157Y774D02*
X2164Y774D01*
X0Y773D02*
X7Y773D01*
X830Y773D02*
X837Y773D01*
X1622Y773D02*
X1629Y773D01*
X2157Y773D02*
X2164Y773D01*
X0Y772D02*
X7Y772D01*
X830Y772D02*
X837Y772D01*
X1622Y772D02*
X1629Y772D01*
X2157Y772D02*
X2164Y772D01*
X0Y771D02*
X7Y771D01*
X830Y771D02*
X837Y771D01*
X1622Y771D02*
X1629Y771D01*
X2157Y771D02*
X2164Y771D01*
X0Y770D02*
X7Y770D01*
X830Y770D02*
X837Y770D01*
X927Y770D02*
X932Y770D01*
X1527Y770D02*
X1532Y770D01*
X1622Y770D02*
X1629Y770D01*
X2157Y770D02*
X2164Y770D01*
X0Y769D02*
X7Y769D01*
X830Y769D02*
X837Y769D01*
X918Y769D02*
X941Y769D01*
X1518Y769D02*
X1540Y769D01*
X1622Y769D02*
X1629Y769D01*
X2157Y769D02*
X2164Y769D01*
X0Y768D02*
X7Y768D01*
X830Y768D02*
X837Y768D01*
X914Y768D02*
X945Y768D01*
X1514Y768D02*
X1545Y768D01*
X1622Y768D02*
X1629Y768D01*
X2157Y768D02*
X2164Y768D01*
X0Y767D02*
X7Y767D01*
X830Y767D02*
X837Y767D01*
X910Y767D02*
X949Y767D01*
X1510Y767D02*
X1548Y767D01*
X1622Y767D02*
X1629Y767D01*
X2157Y767D02*
X2164Y767D01*
X0Y766D02*
X7Y766D01*
X830Y766D02*
X837Y766D01*
X907Y766D02*
X951Y766D01*
X1507Y766D02*
X1551Y766D01*
X1622Y766D02*
X1629Y766D01*
X2157Y766D02*
X2164Y766D01*
X0Y765D02*
X7Y765D01*
X830Y765D02*
X837Y765D01*
X905Y765D02*
X954Y765D01*
X1504Y765D02*
X1554Y765D01*
X1622Y765D02*
X1629Y765D01*
X2157Y765D02*
X2164Y765D01*
X0Y764D02*
X7Y764D01*
X830Y764D02*
X837Y764D01*
X902Y764D02*
X956Y764D01*
X1502Y764D02*
X1556Y764D01*
X1622Y764D02*
X1629Y764D01*
X2157Y764D02*
X2164Y764D01*
X0Y763D02*
X7Y763D01*
X830Y763D02*
X837Y763D01*
X900Y763D02*
X958Y763D01*
X1500Y763D02*
X1558Y763D01*
X1622Y763D02*
X1629Y763D01*
X2157Y763D02*
X2164Y763D01*
X0Y762D02*
X7Y762D01*
X830Y762D02*
X837Y762D01*
X898Y762D02*
X926Y762D01*
X933Y762D02*
X960Y762D01*
X1498Y762D02*
X1526Y762D01*
X1533Y762D02*
X1560Y762D01*
X1622Y762D02*
X1629Y762D01*
X2157Y762D02*
X2164Y762D01*
X0Y761D02*
X7Y761D01*
X830Y761D02*
X837Y761D01*
X897Y761D02*
X917Y761D01*
X941Y761D02*
X962Y761D01*
X1497Y761D02*
X1517Y761D01*
X1541Y761D02*
X1562Y761D01*
X1622Y761D02*
X1629Y761D01*
X2157Y761D02*
X2164Y761D01*
X0Y760D02*
X7Y760D01*
X830Y760D02*
X837Y760D01*
X895Y760D02*
X913Y760D01*
X945Y760D02*
X963Y760D01*
X1495Y760D02*
X1513Y760D01*
X1545Y760D02*
X1563Y760D01*
X1622Y760D02*
X1629Y760D01*
X2157Y760D02*
X2164Y760D01*
X0Y759D02*
X7Y759D01*
X830Y759D02*
X837Y759D01*
X893Y759D02*
X910Y759D01*
X949Y759D02*
X965Y759D01*
X1493Y759D02*
X1510Y759D01*
X1548Y759D02*
X1565Y759D01*
X1622Y759D02*
X1629Y759D01*
X2157Y759D02*
X2164Y759D01*
X0Y758D02*
X7Y758D01*
X830Y758D02*
X837Y758D01*
X892Y758D02*
X907Y758D01*
X951Y758D02*
X966Y758D01*
X1492Y758D02*
X1507Y758D01*
X1551Y758D02*
X1566Y758D01*
X1622Y758D02*
X1629Y758D01*
X2157Y758D02*
X2164Y758D01*
X0Y757D02*
X7Y757D01*
X830Y757D02*
X837Y757D01*
X891Y757D02*
X905Y757D01*
X954Y757D02*
X968Y757D01*
X1491Y757D02*
X1505Y757D01*
X1553Y757D02*
X1568Y757D01*
X1622Y757D02*
X1629Y757D01*
X2157Y757D02*
X2164Y757D01*
X0Y756D02*
X7Y756D01*
X830Y756D02*
X837Y756D01*
X889Y756D02*
X903Y756D01*
X956Y756D02*
X969Y756D01*
X1489Y756D02*
X1503Y756D01*
X1555Y756D02*
X1569Y756D01*
X1622Y756D02*
X1629Y756D01*
X2157Y756D02*
X2164Y756D01*
X0Y755D02*
X7Y755D01*
X830Y755D02*
X837Y755D01*
X888Y755D02*
X901Y755D01*
X957Y755D02*
X970Y755D01*
X1488Y755D02*
X1501Y755D01*
X1557Y755D02*
X1570Y755D01*
X1622Y755D02*
X1629Y755D01*
X2157Y755D02*
X2164Y755D01*
X0Y754D02*
X7Y754D01*
X830Y754D02*
X837Y754D01*
X887Y754D02*
X899Y754D01*
X959Y754D02*
X972Y754D01*
X1487Y754D02*
X1499Y754D01*
X1559Y754D02*
X1571Y754D01*
X1622Y754D02*
X1629Y754D01*
X2157Y754D02*
X2164Y754D01*
X0Y753D02*
X7Y753D01*
X830Y753D02*
X837Y753D01*
X886Y753D02*
X898Y753D01*
X961Y753D02*
X973Y753D01*
X1486Y753D02*
X1498Y753D01*
X1561Y753D02*
X1573Y753D01*
X1622Y753D02*
X1629Y753D01*
X2157Y753D02*
X2164Y753D01*
X0Y752D02*
X7Y752D01*
X830Y752D02*
X837Y752D01*
X885Y752D02*
X896Y752D01*
X962Y752D02*
X974Y752D01*
X1485Y752D02*
X1496Y752D01*
X1562Y752D02*
X1574Y752D01*
X1622Y752D02*
X1629Y752D01*
X2157Y752D02*
X2164Y752D01*
X0Y751D02*
X7Y751D01*
X830Y751D02*
X837Y751D01*
X884Y751D02*
X895Y751D01*
X964Y751D02*
X975Y751D01*
X1484Y751D02*
X1495Y751D01*
X1563Y751D02*
X1575Y751D01*
X1622Y751D02*
X1629Y751D01*
X2157Y751D02*
X2164Y751D01*
X0Y750D02*
X7Y750D01*
X830Y750D02*
X837Y750D01*
X883Y750D02*
X894Y750D01*
X965Y750D02*
X976Y750D01*
X1483Y750D02*
X1494Y750D01*
X1565Y750D02*
X1576Y750D01*
X1622Y750D02*
X1629Y750D01*
X2157Y750D02*
X2164Y750D01*
X0Y749D02*
X7Y749D01*
X830Y749D02*
X837Y749D01*
X882Y749D02*
X892Y749D01*
X966Y749D02*
X977Y749D01*
X1482Y749D02*
X1492Y749D01*
X1566Y749D02*
X1577Y749D01*
X1622Y749D02*
X1626Y749D01*
X2157Y749D02*
X2164Y749D01*
X0Y748D02*
X7Y748D01*
X830Y748D02*
X837Y748D01*
X881Y748D02*
X891Y748D01*
X967Y748D02*
X978Y748D01*
X1481Y748D02*
X1491Y748D01*
X1567Y748D02*
X1577Y748D01*
X2157Y748D02*
X2164Y748D01*
X0Y747D02*
X7Y747D01*
X830Y747D02*
X837Y747D01*
X883Y747D02*
X890Y747D01*
X968Y747D02*
X976Y747D01*
X1480Y747D02*
X1490Y747D01*
X1568Y747D02*
X1578Y747D01*
X2157Y747D02*
X2164Y747D01*
X0Y746D02*
X7Y746D01*
X830Y746D02*
X837Y746D01*
X889Y746D02*
X889Y746D01*
X969Y746D02*
X969Y746D01*
X1479Y746D02*
X1489Y746D01*
X1569Y746D02*
X1579Y746D01*
X2157Y746D02*
X2164Y746D01*
X0Y745D02*
X7Y745D01*
X830Y745D02*
X837Y745D01*
X1478Y745D02*
X1488Y745D01*
X1570Y745D02*
X1580Y745D01*
X2157Y745D02*
X2164Y745D01*
X0Y744D02*
X7Y744D01*
X830Y744D02*
X837Y744D01*
X1478Y744D02*
X1487Y744D01*
X1571Y744D02*
X1581Y744D01*
X2157Y744D02*
X2164Y744D01*
X0Y743D02*
X7Y743D01*
X830Y743D02*
X837Y743D01*
X1477Y743D02*
X1486Y743D01*
X1572Y743D02*
X1581Y743D01*
X2157Y743D02*
X2164Y743D01*
X0Y742D02*
X7Y742D01*
X830Y742D02*
X837Y742D01*
X1476Y742D02*
X1485Y742D01*
X1573Y742D02*
X1582Y742D01*
X2157Y742D02*
X2164Y742D01*
X0Y741D02*
X7Y741D01*
X830Y741D02*
X837Y741D01*
X1476Y741D02*
X1484Y741D01*
X1574Y741D02*
X1583Y741D01*
X2157Y741D02*
X2164Y741D01*
X0Y740D02*
X7Y740D01*
X830Y740D02*
X837Y740D01*
X1475Y740D02*
X1484Y740D01*
X1575Y740D02*
X1583Y740D01*
X2157Y740D02*
X2164Y740D01*
X0Y739D02*
X7Y739D01*
X830Y739D02*
X837Y739D01*
X1474Y739D02*
X1483Y739D01*
X1575Y739D02*
X1584Y739D01*
X2157Y739D02*
X2164Y739D01*
X0Y738D02*
X7Y738D01*
X830Y738D02*
X837Y738D01*
X1474Y738D02*
X1482Y738D01*
X1576Y738D02*
X1585Y738D01*
X2157Y738D02*
X2164Y738D01*
X0Y737D02*
X7Y737D01*
X830Y737D02*
X837Y737D01*
X1473Y737D02*
X1481Y737D01*
X1577Y737D02*
X1585Y737D01*
X2157Y737D02*
X2164Y737D01*
X0Y736D02*
X7Y736D01*
X830Y736D02*
X837Y736D01*
X1473Y736D02*
X1481Y736D01*
X1578Y736D02*
X1586Y736D01*
X2157Y736D02*
X2164Y736D01*
X0Y735D02*
X7Y735D01*
X830Y735D02*
X837Y735D01*
X1472Y735D02*
X1480Y735D01*
X1578Y735D02*
X1586Y735D01*
X2157Y735D02*
X2164Y735D01*
X0Y734D02*
X7Y734D01*
X830Y734D02*
X837Y734D01*
X1472Y734D02*
X1480Y734D01*
X1579Y734D02*
X1587Y734D01*
X2157Y734D02*
X2164Y734D01*
X0Y733D02*
X7Y733D01*
X830Y733D02*
X837Y733D01*
X1471Y733D02*
X1479Y733D01*
X1579Y733D02*
X1587Y733D01*
X2157Y733D02*
X2164Y733D01*
X0Y732D02*
X7Y732D01*
X830Y732D02*
X837Y732D01*
X1471Y732D02*
X1478Y732D01*
X1580Y732D02*
X1588Y732D01*
X2157Y732D02*
X2164Y732D01*
X0Y731D02*
X7Y731D01*
X830Y731D02*
X837Y731D01*
X1470Y731D02*
X1478Y731D01*
X1580Y731D02*
X1588Y731D01*
X2157Y731D02*
X2164Y731D01*
X0Y730D02*
X7Y730D01*
X830Y730D02*
X837Y730D01*
X1470Y730D02*
X1477Y730D01*
X1581Y730D02*
X1589Y730D01*
X2157Y730D02*
X2164Y730D01*
X0Y729D02*
X7Y729D01*
X830Y729D02*
X837Y729D01*
X1469Y729D02*
X1477Y729D01*
X1581Y729D02*
X1589Y729D01*
X2157Y729D02*
X2164Y729D01*
X0Y728D02*
X7Y728D01*
X830Y728D02*
X837Y728D01*
X1469Y728D02*
X1476Y728D01*
X1582Y728D02*
X1589Y728D01*
X2157Y728D02*
X2164Y728D01*
X0Y727D02*
X7Y727D01*
X830Y727D02*
X837Y727D01*
X1469Y727D02*
X1476Y727D01*
X1582Y727D02*
X1590Y727D01*
X2157Y727D02*
X2164Y727D01*
X0Y726D02*
X7Y726D01*
X830Y726D02*
X837Y726D01*
X1468Y726D02*
X1476Y726D01*
X1583Y726D02*
X1590Y726D01*
X2157Y726D02*
X2164Y726D01*
X0Y725D02*
X7Y725D01*
X830Y725D02*
X837Y725D01*
X1468Y725D02*
X1475Y725D01*
X1583Y725D02*
X1589Y725D01*
X2157Y725D02*
X2164Y725D01*
X0Y724D02*
X7Y724D01*
X830Y724D02*
X837Y724D01*
X1468Y724D02*
X1475Y724D01*
X1583Y724D02*
X1589Y724D01*
X2157Y724D02*
X2164Y724D01*
X0Y723D02*
X7Y723D01*
X830Y723D02*
X837Y723D01*
X1467Y723D02*
X1474Y723D01*
X1584Y723D02*
X1588Y723D01*
X2157Y723D02*
X2164Y723D01*
X0Y722D02*
X7Y722D01*
X830Y722D02*
X837Y722D01*
X1467Y722D02*
X1474Y722D01*
X1584Y722D02*
X1588Y722D01*
X2157Y722D02*
X2164Y722D01*
X0Y721D02*
X7Y721D01*
X830Y721D02*
X837Y721D01*
X1467Y721D02*
X1474Y721D01*
X1584Y721D02*
X1588Y721D01*
X2157Y721D02*
X2164Y721D01*
X0Y720D02*
X7Y720D01*
X830Y720D02*
X837Y720D01*
X1466Y720D02*
X1474Y720D01*
X1585Y720D02*
X1587Y720D01*
X2157Y720D02*
X2164Y720D01*
X0Y719D02*
X7Y719D01*
X830Y719D02*
X837Y719D01*
X1466Y719D02*
X1473Y719D01*
X1585Y719D02*
X1587Y719D01*
X2157Y719D02*
X2164Y719D01*
X0Y718D02*
X7Y718D01*
X830Y718D02*
X837Y718D01*
X1466Y718D02*
X1473Y718D01*
X1585Y718D02*
X1587Y718D01*
X2157Y718D02*
X2164Y718D01*
X0Y717D02*
X7Y717D01*
X830Y717D02*
X837Y717D01*
X1466Y717D02*
X1473Y717D01*
X1585Y717D02*
X1586Y717D01*
X2157Y717D02*
X2164Y717D01*
X0Y716D02*
X7Y716D01*
X830Y716D02*
X837Y716D01*
X1466Y716D02*
X1473Y716D01*
X1586Y716D02*
X1586Y716D01*
X2157Y716D02*
X2164Y716D01*
X0Y715D02*
X7Y715D01*
X830Y715D02*
X837Y715D01*
X1466Y715D02*
X1473Y715D01*
X1586Y715D02*
X1586Y715D01*
X2157Y715D02*
X2164Y715D01*
X0Y714D02*
X7Y714D01*
X830Y714D02*
X837Y714D01*
X1465Y714D02*
X1472Y714D01*
X1586Y714D02*
X1586Y714D01*
X2157Y714D02*
X2164Y714D01*
X0Y713D02*
X7Y713D01*
X830Y713D02*
X837Y713D01*
X1465Y713D02*
X1472Y713D01*
X2157Y713D02*
X2164Y713D01*
X0Y712D02*
X7Y712D01*
X830Y712D02*
X837Y712D01*
X1465Y712D02*
X1472Y712D01*
X2157Y712D02*
X2164Y712D01*
X0Y711D02*
X7Y711D01*
X830Y711D02*
X837Y711D01*
X1465Y711D02*
X1472Y711D01*
X2157Y711D02*
X2164Y711D01*
X0Y710D02*
X7Y710D01*
X830Y710D02*
X837Y710D01*
X1465Y710D02*
X1472Y710D01*
X2157Y710D02*
X2164Y710D01*
X0Y709D02*
X7Y709D01*
X830Y709D02*
X837Y709D01*
X1465Y709D02*
X1472Y709D01*
X2157Y709D02*
X2164Y709D01*
X0Y708D02*
X7Y708D01*
X830Y708D02*
X837Y708D01*
X1465Y708D02*
X1472Y708D01*
X2157Y708D02*
X2164Y708D01*
X0Y707D02*
X7Y707D01*
X830Y707D02*
X837Y707D01*
X1465Y707D02*
X1472Y707D01*
X2157Y707D02*
X2164Y707D01*
X0Y706D02*
X7Y706D01*
X830Y706D02*
X837Y706D01*
X1465Y706D02*
X1472Y706D01*
X2157Y706D02*
X2164Y706D01*
X0Y705D02*
X7Y705D01*
X830Y705D02*
X837Y705D01*
X1465Y705D02*
X1472Y705D01*
X2157Y705D02*
X2164Y705D01*
X0Y704D02*
X7Y704D01*
X830Y704D02*
X837Y704D01*
X1465Y704D02*
X1472Y704D01*
X2157Y704D02*
X2164Y704D01*
X0Y703D02*
X7Y703D01*
X830Y703D02*
X837Y703D01*
X1465Y703D02*
X1472Y703D01*
X2157Y703D02*
X2164Y703D01*
X0Y702D02*
X7Y702D01*
X830Y702D02*
X837Y702D01*
X1465Y702D02*
X1472Y702D01*
X2157Y702D02*
X2164Y702D01*
X0Y701D02*
X7Y701D01*
X830Y701D02*
X837Y701D01*
X1465Y701D02*
X1472Y701D01*
X2157Y701D02*
X2164Y701D01*
X0Y700D02*
X7Y700D01*
X830Y700D02*
X837Y700D01*
X1465Y700D02*
X1472Y700D01*
X2157Y700D02*
X2164Y700D01*
X0Y699D02*
X7Y699D01*
X830Y699D02*
X837Y699D01*
X1465Y699D02*
X1472Y699D01*
X2157Y699D02*
X2164Y699D01*
X0Y698D02*
X7Y698D01*
X830Y698D02*
X837Y698D01*
X1465Y698D02*
X1472Y698D01*
X2157Y698D02*
X2164Y698D01*
X0Y697D02*
X7Y697D01*
X830Y697D02*
X837Y697D01*
X1465Y697D02*
X1472Y697D01*
X1586Y697D02*
X1586Y697D01*
X2157Y697D02*
X2164Y697D01*
X0Y696D02*
X7Y696D01*
X830Y696D02*
X837Y696D01*
X1465Y696D02*
X1472Y696D01*
X1586Y696D02*
X1586Y696D01*
X2157Y696D02*
X2164Y696D01*
X0Y695D02*
X7Y695D01*
X830Y695D02*
X837Y695D01*
X1466Y695D02*
X1473Y695D01*
X1586Y695D02*
X1586Y695D01*
X2157Y695D02*
X2164Y695D01*
X0Y694D02*
X7Y694D01*
X830Y694D02*
X837Y694D01*
X1466Y694D02*
X1473Y694D01*
X1586Y694D02*
X1586Y694D01*
X2157Y694D02*
X2164Y694D01*
X0Y693D02*
X7Y693D01*
X830Y693D02*
X837Y693D01*
X1466Y693D02*
X1473Y693D01*
X1585Y693D02*
X1586Y693D01*
X2157Y693D02*
X2164Y693D01*
X0Y692D02*
X7Y692D01*
X830Y692D02*
X837Y692D01*
X1466Y692D02*
X1473Y692D01*
X1585Y692D02*
X1587Y692D01*
X2157Y692D02*
X2164Y692D01*
X0Y691D02*
X7Y691D01*
X830Y691D02*
X837Y691D01*
X1466Y691D02*
X1473Y691D01*
X1585Y691D02*
X1587Y691D01*
X2157Y691D02*
X2164Y691D01*
X0Y690D02*
X7Y690D01*
X830Y690D02*
X837Y690D01*
X1467Y690D02*
X1474Y690D01*
X1585Y690D02*
X1587Y690D01*
X2157Y690D02*
X2164Y690D01*
X0Y689D02*
X7Y689D01*
X830Y689D02*
X837Y689D01*
X1467Y689D02*
X1474Y689D01*
X1584Y689D02*
X1588Y689D01*
X2157Y689D02*
X2164Y689D01*
X0Y688D02*
X7Y688D01*
X830Y688D02*
X837Y688D01*
X1467Y688D02*
X1474Y688D01*
X1584Y688D02*
X1588Y688D01*
X2157Y688D02*
X2164Y688D01*
X0Y687D02*
X7Y687D01*
X830Y687D02*
X837Y687D01*
X1467Y687D02*
X1475Y687D01*
X1584Y687D02*
X1589Y687D01*
X2157Y687D02*
X2164Y687D01*
X0Y686D02*
X7Y686D01*
X830Y686D02*
X837Y686D01*
X1468Y686D02*
X1475Y686D01*
X1583Y686D02*
X1589Y686D01*
X2157Y686D02*
X2164Y686D01*
X0Y685D02*
X7Y685D01*
X830Y685D02*
X837Y685D01*
X1468Y685D02*
X1475Y685D01*
X1583Y685D02*
X1590Y685D01*
X2157Y685D02*
X2164Y685D01*
X0Y684D02*
X7Y684D01*
X830Y684D02*
X837Y684D01*
X1468Y684D02*
X1476Y684D01*
X1583Y684D02*
X1590Y684D01*
X2157Y684D02*
X2164Y684D01*
X0Y683D02*
X7Y683D01*
X830Y683D02*
X837Y683D01*
X1469Y683D02*
X1476Y683D01*
X1582Y683D02*
X1590Y683D01*
X2157Y683D02*
X2164Y683D01*
X0Y682D02*
X7Y682D01*
X830Y682D02*
X837Y682D01*
X1469Y682D02*
X1477Y682D01*
X1582Y682D02*
X1589Y682D01*
X2157Y682D02*
X2164Y682D01*
X0Y681D02*
X7Y681D01*
X830Y681D02*
X837Y681D01*
X1469Y681D02*
X1477Y681D01*
X1581Y681D02*
X1589Y681D01*
X2157Y681D02*
X2164Y681D01*
X0Y680D02*
X7Y680D01*
X830Y680D02*
X837Y680D01*
X1470Y680D02*
X1478Y680D01*
X1581Y680D02*
X1589Y680D01*
X2157Y680D02*
X2164Y680D01*
X0Y679D02*
X7Y679D01*
X830Y679D02*
X837Y679D01*
X1470Y679D02*
X1478Y679D01*
X1580Y679D02*
X1588Y679D01*
X2157Y679D02*
X2164Y679D01*
X0Y678D02*
X7Y678D01*
X830Y678D02*
X837Y678D01*
X1471Y678D02*
X1478Y678D01*
X1580Y678D02*
X1588Y678D01*
X2157Y678D02*
X2164Y678D01*
X0Y677D02*
X7Y677D01*
X830Y677D02*
X837Y677D01*
X1471Y677D02*
X1479Y677D01*
X1579Y677D02*
X1587Y677D01*
X2157Y677D02*
X2164Y677D01*
X0Y676D02*
X7Y676D01*
X830Y676D02*
X837Y676D01*
X1472Y676D02*
X1480Y676D01*
X1579Y676D02*
X1587Y676D01*
X2157Y676D02*
X2164Y676D01*
X0Y675D02*
X7Y675D01*
X830Y675D02*
X837Y675D01*
X1472Y675D02*
X1480Y675D01*
X1578Y675D02*
X1586Y675D01*
X2157Y675D02*
X2164Y675D01*
X0Y674D02*
X7Y674D01*
X830Y674D02*
X837Y674D01*
X1473Y674D02*
X1481Y674D01*
X1577Y674D02*
X1586Y674D01*
X2157Y674D02*
X2164Y674D01*
X0Y673D02*
X7Y673D01*
X830Y673D02*
X837Y673D01*
X1473Y673D02*
X1482Y673D01*
X1577Y673D02*
X1585Y673D01*
X2157Y673D02*
X2164Y673D01*
X0Y672D02*
X7Y672D01*
X830Y672D02*
X837Y672D01*
X1474Y672D02*
X1482Y672D01*
X1576Y672D02*
X1584Y672D01*
X2157Y672D02*
X2164Y672D01*
X0Y671D02*
X7Y671D01*
X830Y671D02*
X837Y671D01*
X1475Y671D02*
X1483Y671D01*
X1575Y671D02*
X1584Y671D01*
X2157Y671D02*
X2164Y671D01*
X0Y670D02*
X7Y670D01*
X830Y670D02*
X837Y670D01*
X1475Y670D02*
X1484Y670D01*
X1574Y670D02*
X1583Y670D01*
X2157Y670D02*
X2164Y670D01*
X0Y669D02*
X7Y669D01*
X830Y669D02*
X837Y669D01*
X1476Y669D02*
X1485Y669D01*
X1574Y669D02*
X1583Y669D01*
X2157Y669D02*
X2164Y669D01*
X0Y668D02*
X7Y668D01*
X830Y668D02*
X837Y668D01*
X1476Y668D02*
X1486Y668D01*
X1573Y668D02*
X1582Y668D01*
X2157Y668D02*
X2164Y668D01*
X0Y667D02*
X7Y667D01*
X830Y667D02*
X837Y667D01*
X1477Y667D02*
X1486Y667D01*
X1572Y667D02*
X1581Y667D01*
X2157Y667D02*
X2164Y667D01*
X0Y666D02*
X7Y666D01*
X830Y666D02*
X837Y666D01*
X1478Y666D02*
X1487Y666D01*
X1571Y666D02*
X1580Y666D01*
X2157Y666D02*
X2164Y666D01*
X0Y665D02*
X7Y665D01*
X830Y665D02*
X837Y665D01*
X1479Y665D02*
X1488Y665D01*
X1570Y665D02*
X1580Y665D01*
X2157Y665D02*
X2164Y665D01*
X0Y664D02*
X7Y664D01*
X830Y664D02*
X837Y664D01*
X888Y664D02*
X889Y664D01*
X969Y664D02*
X971Y664D01*
X1479Y664D02*
X1489Y664D01*
X1569Y664D02*
X1579Y664D01*
X2157Y664D02*
X2164Y664D01*
X0Y663D02*
X7Y663D01*
X830Y663D02*
X837Y663D01*
X880Y663D02*
X891Y663D01*
X968Y663D02*
X978Y663D01*
X1480Y663D02*
X1490Y663D01*
X1568Y663D02*
X1578Y663D01*
X2157Y663D02*
X2164Y663D01*
X0Y662D02*
X7Y662D01*
X830Y662D02*
X837Y662D01*
X881Y662D02*
X892Y662D01*
X967Y662D02*
X977Y662D01*
X1481Y662D02*
X1492Y662D01*
X1567Y662D02*
X1577Y662D01*
X2157Y662D02*
X2164Y662D01*
X0Y661D02*
X7Y661D01*
X830Y661D02*
X837Y661D01*
X882Y661D02*
X893Y661D01*
X966Y661D02*
X976Y661D01*
X1482Y661D02*
X1493Y661D01*
X1566Y661D02*
X1576Y661D01*
X1622Y661D02*
X1629Y661D01*
X2157Y661D02*
X2164Y661D01*
X0Y660D02*
X7Y660D01*
X830Y660D02*
X837Y660D01*
X883Y660D02*
X894Y660D01*
X964Y660D02*
X975Y660D01*
X1483Y660D02*
X1494Y660D01*
X1564Y660D02*
X1575Y660D01*
X1622Y660D02*
X1629Y660D01*
X2157Y660D02*
X2164Y660D01*
X0Y659D02*
X7Y659D01*
X830Y659D02*
X837Y659D01*
X884Y659D02*
X895Y659D01*
X963Y659D02*
X974Y659D01*
X1484Y659D02*
X1495Y659D01*
X1563Y659D02*
X1574Y659D01*
X1622Y659D02*
X1629Y659D01*
X2157Y659D02*
X2164Y659D01*
X0Y658D02*
X7Y658D01*
X830Y658D02*
X837Y658D01*
X885Y658D02*
X897Y658D01*
X962Y658D02*
X973Y658D01*
X1485Y658D02*
X1497Y658D01*
X1562Y658D02*
X1573Y658D01*
X1622Y658D02*
X1629Y658D01*
X2157Y658D02*
X2164Y658D01*
X0Y657D02*
X7Y657D01*
X830Y657D02*
X837Y657D01*
X886Y657D02*
X898Y657D01*
X960Y657D02*
X972Y657D01*
X1486Y657D02*
X1498Y657D01*
X1560Y657D02*
X1572Y657D01*
X1622Y657D02*
X1629Y657D01*
X2157Y657D02*
X2164Y657D01*
X0Y656D02*
X7Y656D01*
X830Y656D02*
X837Y656D01*
X887Y656D02*
X900Y656D01*
X959Y656D02*
X971Y656D01*
X1487Y656D02*
X1500Y656D01*
X1559Y656D02*
X1571Y656D01*
X1622Y656D02*
X1629Y656D01*
X2157Y656D02*
X2164Y656D01*
X0Y655D02*
X7Y655D01*
X830Y655D02*
X837Y655D01*
X888Y655D02*
X902Y655D01*
X957Y655D02*
X970Y655D01*
X1488Y655D02*
X1501Y655D01*
X1557Y655D02*
X1570Y655D01*
X1622Y655D02*
X1629Y655D01*
X2157Y655D02*
X2164Y655D01*
X0Y654D02*
X7Y654D01*
X830Y654D02*
X837Y654D01*
X890Y654D02*
X904Y654D01*
X955Y654D02*
X969Y654D01*
X1490Y654D02*
X1504Y654D01*
X1555Y654D02*
X1569Y654D01*
X1622Y654D02*
X1629Y654D01*
X2157Y654D02*
X2164Y654D01*
X0Y653D02*
X7Y653D01*
X830Y653D02*
X837Y653D01*
X891Y653D02*
X906Y653D01*
X953Y653D02*
X967Y653D01*
X1491Y653D02*
X1506Y653D01*
X1553Y653D02*
X1567Y653D01*
X1622Y653D02*
X1629Y653D01*
X2157Y653D02*
X2164Y653D01*
X0Y652D02*
X7Y652D01*
X830Y652D02*
X837Y652D01*
X893Y652D02*
X908Y652D01*
X950Y652D02*
X966Y652D01*
X1492Y652D02*
X1508Y652D01*
X1550Y652D02*
X1566Y652D01*
X1622Y652D02*
X1629Y652D01*
X2157Y652D02*
X2164Y652D01*
X0Y651D02*
X7Y651D01*
X830Y651D02*
X837Y651D01*
X894Y651D02*
X911Y651D01*
X948Y651D02*
X965Y651D01*
X1494Y651D02*
X1511Y651D01*
X1548Y651D02*
X1564Y651D01*
X1622Y651D02*
X1629Y651D01*
X2157Y651D02*
X2164Y651D01*
X0Y650D02*
X7Y650D01*
X830Y650D02*
X837Y650D01*
X896Y650D02*
X914Y650D01*
X944Y650D02*
X963Y650D01*
X1496Y650D02*
X1514Y650D01*
X1544Y650D02*
X1563Y650D01*
X1622Y650D02*
X1629Y650D01*
X2157Y650D02*
X2164Y650D01*
X0Y649D02*
X7Y649D01*
X830Y649D02*
X837Y649D01*
X897Y649D02*
X919Y649D01*
X939Y649D02*
X961Y649D01*
X1497Y649D02*
X1519Y649D01*
X1539Y649D02*
X1561Y649D01*
X1622Y649D02*
X1626Y649D01*
X2157Y649D02*
X2164Y649D01*
X0Y648D02*
X7Y648D01*
X830Y648D02*
X837Y648D01*
X899Y648D02*
X960Y648D01*
X1499Y648D02*
X1559Y648D01*
X2157Y648D02*
X2164Y648D01*
X0Y647D02*
X7Y647D01*
X830Y647D02*
X837Y647D01*
X901Y647D02*
X957Y647D01*
X1501Y647D02*
X1557Y647D01*
X2157Y647D02*
X2164Y647D01*
X0Y646D02*
X7Y646D01*
X830Y646D02*
X837Y646D01*
X903Y646D02*
X955Y646D01*
X1503Y646D02*
X1555Y646D01*
X2157Y646D02*
X2164Y646D01*
X0Y645D02*
X7Y645D01*
X830Y645D02*
X837Y645D01*
X905Y645D02*
X953Y645D01*
X1505Y645D02*
X1553Y645D01*
X2157Y645D02*
X2164Y645D01*
X0Y644D02*
X7Y644D01*
X830Y644D02*
X837Y644D01*
X908Y644D02*
X950Y644D01*
X1508Y644D02*
X1550Y644D01*
X2157Y644D02*
X2164Y644D01*
X0Y643D02*
X7Y643D01*
X830Y643D02*
X837Y643D01*
X911Y643D02*
X948Y643D01*
X1511Y643D02*
X1547Y643D01*
X2157Y643D02*
X2164Y643D01*
X0Y642D02*
X7Y642D01*
X830Y642D02*
X837Y642D01*
X915Y642D02*
X944Y642D01*
X1515Y642D02*
X1544Y642D01*
X2157Y642D02*
X2164Y642D01*
X0Y641D02*
X7Y641D01*
X830Y641D02*
X837Y641D01*
X920Y641D02*
X938Y641D01*
X1520Y641D02*
X1538Y641D01*
X2157Y641D02*
X2164Y641D01*
X0Y640D02*
X7Y640D01*
X830Y640D02*
X837Y640D01*
X2157Y640D02*
X2164Y640D01*
X0Y639D02*
X7Y639D01*
X830Y639D02*
X837Y639D01*
X2157Y639D02*
X2164Y639D01*
X0Y638D02*
X7Y638D01*
X830Y638D02*
X837Y638D01*
X2157Y638D02*
X2164Y638D01*
X0Y637D02*
X7Y637D01*
X830Y637D02*
X837Y637D01*
X2157Y637D02*
X2164Y637D01*
X0Y636D02*
X7Y636D01*
X830Y636D02*
X837Y636D01*
X2157Y636D02*
X2164Y636D01*
X0Y635D02*
X7Y635D01*
X830Y635D02*
X837Y635D01*
X2157Y635D02*
X2164Y635D01*
X0Y634D02*
X7Y634D01*
X830Y634D02*
X837Y634D01*
X2157Y634D02*
X2164Y634D01*
X0Y633D02*
X7Y633D01*
X830Y633D02*
X837Y633D01*
X2157Y633D02*
X2164Y633D01*
X0Y632D02*
X7Y632D01*
X830Y632D02*
X837Y632D01*
X2157Y632D02*
X2164Y632D01*
X0Y631D02*
X7Y631D01*
X830Y631D02*
X837Y631D01*
X2157Y631D02*
X2164Y631D01*
X0Y630D02*
X7Y630D01*
X830Y630D02*
X837Y630D01*
X2157Y630D02*
X2164Y630D01*
X0Y629D02*
X7Y629D01*
X830Y629D02*
X837Y629D01*
X2157Y629D02*
X2164Y629D01*
X0Y628D02*
X7Y628D01*
X830Y628D02*
X837Y628D01*
X2157Y628D02*
X2164Y628D01*
X0Y627D02*
X7Y627D01*
X830Y627D02*
X837Y627D01*
X2157Y627D02*
X2164Y627D01*
X0Y626D02*
X7Y626D01*
X830Y626D02*
X837Y626D01*
X2157Y626D02*
X2164Y626D01*
X0Y625D02*
X7Y625D01*
X830Y625D02*
X837Y625D01*
X2157Y625D02*
X2164Y625D01*
X0Y624D02*
X7Y624D01*
X830Y624D02*
X837Y624D01*
X2157Y624D02*
X2164Y624D01*
X0Y623D02*
X7Y623D01*
X830Y623D02*
X837Y623D01*
X2157Y623D02*
X2164Y623D01*
X0Y622D02*
X7Y622D01*
X830Y622D02*
X837Y622D01*
X2157Y622D02*
X2164Y622D01*
X0Y621D02*
X7Y621D01*
X830Y621D02*
X837Y621D01*
X2157Y621D02*
X2164Y621D01*
X0Y620D02*
X7Y620D01*
X830Y620D02*
X837Y620D01*
X2157Y620D02*
X2164Y620D01*
X0Y619D02*
X7Y619D01*
X830Y619D02*
X837Y619D01*
X2157Y619D02*
X2164Y619D01*
X0Y618D02*
X7Y618D01*
X830Y618D02*
X837Y618D01*
X2157Y618D02*
X2164Y618D01*
X0Y617D02*
X7Y617D01*
X830Y617D02*
X837Y617D01*
X2157Y617D02*
X2164Y617D01*
X0Y616D02*
X7Y616D01*
X830Y616D02*
X837Y616D01*
X2157Y616D02*
X2164Y616D01*
X0Y615D02*
X7Y615D01*
X830Y615D02*
X837Y615D01*
X2157Y615D02*
X2164Y615D01*
X0Y614D02*
X7Y614D01*
X830Y614D02*
X837Y614D01*
X2157Y614D02*
X2164Y614D01*
X0Y613D02*
X7Y613D01*
X830Y613D02*
X1585Y613D01*
X2157Y613D02*
X2164Y613D01*
X0Y612D02*
X7Y612D01*
X830Y612D02*
X1585Y612D01*
X2157Y612D02*
X2164Y612D01*
X0Y611D02*
X7Y611D01*
X830Y611D02*
X1585Y611D01*
X2157Y611D02*
X2164Y611D01*
X0Y610D02*
X7Y610D01*
X830Y610D02*
X1585Y610D01*
X2157Y610D02*
X2164Y610D01*
X0Y609D02*
X7Y609D01*
X830Y609D02*
X1585Y609D01*
X2157Y609D02*
X2164Y609D01*
X0Y608D02*
X7Y608D01*
X830Y608D02*
X1585Y608D01*
X2157Y608D02*
X2164Y608D01*
X0Y607D02*
X7Y607D01*
X830Y607D02*
X1585Y607D01*
X2157Y607D02*
X2164Y607D01*
X0Y606D02*
X7Y606D01*
X830Y606D02*
X1585Y606D01*
X2157Y606D02*
X2164Y606D01*
X0Y605D02*
X7Y605D01*
X2157Y605D02*
X2164Y605D01*
X0Y604D02*
X7Y604D01*
X2157Y604D02*
X2164Y604D01*
X0Y603D02*
X7Y603D01*
X2157Y603D02*
X2164Y603D01*
X0Y602D02*
X7Y602D01*
X2157Y602D02*
X2164Y602D01*
X0Y601D02*
X7Y601D01*
X136Y601D02*
X152Y601D01*
X2157Y601D02*
X2164Y601D01*
X0Y600D02*
X7Y600D01*
X135Y600D02*
X154Y600D01*
X426Y600D02*
X430Y600D01*
X2157Y600D02*
X2164Y600D01*
X0Y599D02*
X7Y599D01*
X135Y599D02*
X155Y599D01*
X425Y599D02*
X431Y599D01*
X2157Y599D02*
X2164Y599D01*
X0Y598D02*
X7Y598D01*
X135Y598D02*
X155Y598D01*
X425Y598D02*
X431Y598D01*
X2157Y598D02*
X2164Y598D01*
X0Y597D02*
X7Y597D01*
X135Y597D02*
X155Y597D01*
X425Y597D02*
X431Y597D01*
X2157Y597D02*
X2164Y597D01*
X0Y596D02*
X7Y596D01*
X135Y596D02*
X155Y596D01*
X425Y596D02*
X431Y596D01*
X2157Y596D02*
X2164Y596D01*
X0Y595D02*
X7Y595D01*
X135Y595D02*
X154Y595D01*
X425Y595D02*
X431Y595D01*
X2157Y595D02*
X2164Y595D01*
X0Y594D02*
X7Y594D01*
X135Y594D02*
X142Y594D01*
X425Y594D02*
X431Y594D01*
X2157Y594D02*
X2164Y594D01*
X0Y593D02*
X7Y593D01*
X135Y593D02*
X141Y593D01*
X425Y593D02*
X431Y593D01*
X2157Y593D02*
X2164Y593D01*
X0Y592D02*
X7Y592D01*
X135Y592D02*
X141Y592D01*
X425Y592D02*
X431Y592D01*
X2157Y592D02*
X2164Y592D01*
X0Y591D02*
X7Y591D01*
X135Y591D02*
X141Y591D01*
X425Y591D02*
X431Y591D01*
X2157Y591D02*
X2164Y591D01*
X0Y590D02*
X7Y590D01*
X135Y590D02*
X141Y590D01*
X425Y590D02*
X431Y590D01*
X2157Y590D02*
X2164Y590D01*
X0Y589D02*
X7Y589D01*
X135Y589D02*
X141Y589D01*
X425Y589D02*
X431Y589D01*
X2157Y589D02*
X2164Y589D01*
X0Y588D02*
X7Y588D01*
X135Y588D02*
X141Y588D01*
X425Y588D02*
X431Y588D01*
X2157Y588D02*
X2164Y588D01*
X0Y587D02*
X7Y587D01*
X135Y587D02*
X141Y587D01*
X284Y587D02*
X292Y587D01*
X300Y587D02*
X304Y587D01*
X425Y587D02*
X431Y587D01*
X2157Y587D02*
X2164Y587D01*
X0Y586D02*
X7Y586D01*
X135Y586D02*
X141Y586D01*
X232Y586D02*
X245Y586D01*
X282Y586D02*
X294Y586D01*
X300Y586D02*
X305Y586D01*
X329Y586D02*
X331Y586D01*
X341Y586D02*
X345Y586D01*
X352Y586D02*
X353Y586D01*
X374Y586D02*
X375Y586D01*
X401Y586D02*
X403Y586D01*
X425Y586D02*
X431Y586D01*
X2157Y586D02*
X2164Y586D01*
X0Y585D02*
X7Y585D01*
X135Y585D02*
X141Y585D01*
X229Y585D02*
X247Y585D01*
X281Y585D02*
X295Y585D01*
X299Y585D02*
X305Y585D01*
X326Y585D02*
X333Y585D01*
X339Y585D02*
X347Y585D01*
X350Y585D02*
X355Y585D01*
X372Y585D02*
X377Y585D01*
X400Y585D02*
X404Y585D01*
X425Y585D02*
X431Y585D01*
X2157Y585D02*
X2164Y585D01*
X0Y584D02*
X7Y584D01*
X135Y584D02*
X141Y584D01*
X228Y584D02*
X249Y584D01*
X280Y584D02*
X296Y584D01*
X299Y584D02*
X305Y584D01*
X325Y584D02*
X335Y584D01*
X338Y584D02*
X355Y584D01*
X372Y584D02*
X377Y584D01*
X399Y584D02*
X405Y584D01*
X425Y584D02*
X431Y584D01*
X2157Y584D02*
X2164Y584D01*
X0Y583D02*
X7Y583D01*
X135Y583D02*
X141Y583D01*
X227Y583D02*
X250Y583D01*
X278Y583D02*
X297Y583D01*
X299Y583D02*
X305Y583D01*
X324Y583D02*
X356Y583D01*
X371Y583D02*
X377Y583D01*
X399Y583D02*
X405Y583D01*
X425Y583D02*
X431Y583D01*
X2157Y583D02*
X2164Y583D01*
X0Y582D02*
X7Y582D01*
X135Y582D02*
X141Y582D01*
X225Y582D02*
X251Y582D01*
X277Y582D02*
X305Y582D01*
X323Y582D02*
X356Y582D01*
X371Y582D02*
X377Y582D01*
X399Y582D02*
X405Y582D01*
X425Y582D02*
X431Y582D01*
X2157Y582D02*
X2164Y582D01*
X0Y581D02*
X7Y581D01*
X135Y581D02*
X141Y581D01*
X224Y581D02*
X252Y581D01*
X276Y581D02*
X305Y581D01*
X323Y581D02*
X356Y581D01*
X371Y581D02*
X377Y581D01*
X399Y581D02*
X405Y581D01*
X425Y581D02*
X431Y581D01*
X2157Y581D02*
X2164Y581D01*
X0Y580D02*
X7Y580D01*
X135Y580D02*
X141Y580D01*
X224Y580D02*
X253Y580D01*
X275Y580D02*
X285Y580D01*
X291Y580D02*
X305Y580D01*
X322Y580D02*
X356Y580D01*
X371Y580D02*
X377Y580D01*
X399Y580D02*
X405Y580D01*
X425Y580D02*
X431Y580D01*
X2157Y580D02*
X2164Y580D01*
X0Y579D02*
X7Y579D01*
X135Y579D02*
X141Y579D01*
X223Y579D02*
X232Y579D01*
X245Y579D02*
X253Y579D01*
X274Y579D02*
X284Y579D01*
X293Y579D02*
X305Y579D01*
X322Y579D02*
X329Y579D01*
X331Y579D02*
X342Y579D01*
X345Y579D02*
X356Y579D01*
X371Y579D02*
X377Y579D01*
X399Y579D02*
X405Y579D01*
X425Y579D02*
X431Y579D01*
X2157Y579D02*
X2164Y579D01*
X0Y578D02*
X7Y578D01*
X135Y578D02*
X141Y578D01*
X222Y578D02*
X230Y578D01*
X246Y578D02*
X254Y578D01*
X273Y578D02*
X282Y578D01*
X294Y578D02*
X305Y578D01*
X322Y578D02*
X328Y578D01*
X332Y578D02*
X341Y578D01*
X346Y578D02*
X356Y578D01*
X371Y578D02*
X377Y578D01*
X399Y578D02*
X405Y578D01*
X425Y578D02*
X431Y578D01*
X2157Y578D02*
X2164Y578D01*
X0Y577D02*
X7Y577D01*
X135Y577D02*
X141Y577D01*
X222Y577D02*
X229Y577D01*
X247Y577D02*
X254Y577D01*
X273Y577D02*
X281Y577D01*
X295Y577D02*
X305Y577D01*
X322Y577D02*
X328Y577D01*
X333Y577D02*
X341Y577D01*
X347Y577D02*
X356Y577D01*
X371Y577D02*
X377Y577D01*
X399Y577D02*
X405Y577D01*
X425Y577D02*
X431Y577D01*
X2157Y577D02*
X2164Y577D01*
X0Y576D02*
X7Y576D01*
X135Y576D02*
X141Y576D01*
X222Y576D02*
X228Y576D01*
X248Y576D02*
X255Y576D01*
X272Y576D02*
X280Y576D01*
X296Y576D02*
X305Y576D01*
X322Y576D02*
X328Y576D01*
X334Y576D02*
X341Y576D01*
X348Y576D02*
X356Y576D01*
X371Y576D02*
X377Y576D01*
X399Y576D02*
X405Y576D01*
X425Y576D02*
X431Y576D01*
X2157Y576D02*
X2164Y576D01*
X0Y575D02*
X7Y575D01*
X135Y575D02*
X141Y575D01*
X222Y575D02*
X228Y575D01*
X249Y575D02*
X255Y575D01*
X272Y575D02*
X279Y575D01*
X297Y575D02*
X305Y575D01*
X322Y575D02*
X328Y575D01*
X335Y575D02*
X341Y575D01*
X349Y575D02*
X356Y575D01*
X371Y575D02*
X377Y575D01*
X399Y575D02*
X405Y575D01*
X425Y575D02*
X431Y575D01*
X2157Y575D02*
X2164Y575D01*
X0Y574D02*
X7Y574D01*
X135Y574D02*
X141Y574D01*
X221Y574D02*
X228Y574D01*
X249Y574D02*
X255Y574D01*
X272Y574D02*
X278Y574D01*
X298Y574D02*
X305Y574D01*
X322Y574D02*
X328Y574D01*
X335Y574D02*
X341Y574D01*
X350Y574D02*
X356Y574D01*
X371Y574D02*
X377Y574D01*
X399Y574D02*
X405Y574D01*
X425Y574D02*
X431Y574D01*
X2157Y574D02*
X2164Y574D01*
X0Y573D02*
X7Y573D01*
X135Y573D02*
X141Y573D01*
X221Y573D02*
X227Y573D01*
X249Y573D02*
X255Y573D01*
X272Y573D02*
X278Y573D01*
X298Y573D02*
X305Y573D01*
X322Y573D02*
X328Y573D01*
X335Y573D02*
X341Y573D01*
X350Y573D02*
X356Y573D01*
X371Y573D02*
X377Y573D01*
X399Y573D02*
X405Y573D01*
X425Y573D02*
X431Y573D01*
X2157Y573D02*
X2164Y573D01*
X0Y572D02*
X7Y572D01*
X135Y572D02*
X140Y572D01*
X221Y572D02*
X227Y572D01*
X249Y572D02*
X255Y572D01*
X271Y572D02*
X277Y572D01*
X299Y572D02*
X305Y572D01*
X322Y572D02*
X328Y572D01*
X335Y572D02*
X341Y572D01*
X350Y572D02*
X356Y572D01*
X371Y572D02*
X377Y572D01*
X399Y572D02*
X405Y572D01*
X425Y572D02*
X431Y572D01*
X2157Y572D02*
X2164Y572D01*
X0Y571D02*
X7Y571D01*
X123Y571D02*
X126Y571D01*
X135Y571D02*
X140Y571D01*
X221Y571D02*
X227Y571D01*
X249Y571D02*
X255Y571D01*
X271Y571D02*
X277Y571D01*
X299Y571D02*
X305Y571D01*
X322Y571D02*
X328Y571D01*
X335Y571D02*
X341Y571D01*
X350Y571D02*
X356Y571D01*
X371Y571D02*
X377Y571D01*
X399Y571D02*
X405Y571D01*
X425Y571D02*
X431Y571D01*
X447Y571D02*
X450Y571D01*
X2157Y571D02*
X2164Y571D01*
X0Y570D02*
X7Y570D01*
X122Y570D02*
X127Y570D01*
X135Y570D02*
X140Y570D01*
X221Y570D02*
X227Y570D01*
X249Y570D02*
X255Y570D01*
X271Y570D02*
X277Y570D01*
X299Y570D02*
X305Y570D01*
X322Y570D02*
X328Y570D01*
X335Y570D02*
X341Y570D01*
X350Y570D02*
X356Y570D01*
X371Y570D02*
X377Y570D01*
X399Y570D02*
X405Y570D01*
X425Y570D02*
X431Y570D01*
X446Y570D02*
X451Y570D01*
X2157Y570D02*
X2164Y570D01*
X0Y569D02*
X7Y569D01*
X122Y569D02*
X127Y569D01*
X135Y569D02*
X139Y569D01*
X221Y569D02*
X228Y569D01*
X249Y569D02*
X255Y569D01*
X271Y569D02*
X277Y569D01*
X299Y569D02*
X305Y569D01*
X322Y569D02*
X328Y569D01*
X335Y569D02*
X341Y569D01*
X350Y569D02*
X356Y569D01*
X371Y569D02*
X377Y569D01*
X399Y569D02*
X405Y569D01*
X425Y569D02*
X431Y569D01*
X446Y569D02*
X451Y569D01*
X2157Y569D02*
X2164Y569D01*
X0Y568D02*
X7Y568D01*
X122Y568D02*
X127Y568D01*
X135Y568D02*
X139Y568D01*
X221Y568D02*
X255Y568D01*
X271Y568D02*
X277Y568D01*
X299Y568D02*
X305Y568D01*
X322Y568D02*
X328Y568D01*
X335Y568D02*
X341Y568D01*
X350Y568D02*
X356Y568D01*
X371Y568D02*
X377Y568D01*
X399Y568D02*
X405Y568D01*
X425Y568D02*
X431Y568D01*
X446Y568D02*
X452Y568D01*
X2157Y568D02*
X2164Y568D01*
X0Y567D02*
X7Y567D01*
X122Y567D02*
X127Y567D01*
X135Y567D02*
X139Y567D01*
X221Y567D02*
X255Y567D01*
X271Y567D02*
X277Y567D01*
X299Y567D02*
X305Y567D01*
X322Y567D02*
X328Y567D01*
X335Y567D02*
X341Y567D01*
X350Y567D02*
X356Y567D01*
X371Y567D02*
X377Y567D01*
X399Y567D02*
X404Y567D01*
X425Y567D02*
X431Y567D01*
X446Y567D02*
X452Y567D01*
X2157Y567D02*
X2164Y567D01*
X0Y566D02*
X7Y566D01*
X122Y566D02*
X127Y566D01*
X135Y566D02*
X138Y566D01*
X221Y566D02*
X255Y566D01*
X271Y566D02*
X277Y566D01*
X299Y566D02*
X305Y566D01*
X322Y566D02*
X328Y566D01*
X335Y566D02*
X341Y566D01*
X350Y566D02*
X356Y566D01*
X371Y566D02*
X377Y566D01*
X398Y566D02*
X404Y566D01*
X425Y566D02*
X431Y566D01*
X446Y566D02*
X452Y566D01*
X2157Y566D02*
X2164Y566D01*
X0Y565D02*
X7Y565D01*
X123Y565D02*
X127Y565D01*
X135Y565D02*
X138Y565D01*
X221Y565D02*
X255Y565D01*
X271Y565D02*
X277Y565D01*
X299Y565D02*
X305Y565D01*
X321Y565D02*
X327Y565D01*
X335Y565D02*
X341Y565D01*
X350Y565D02*
X356Y565D01*
X371Y565D02*
X377Y565D01*
X398Y565D02*
X404Y565D01*
X425Y565D02*
X431Y565D01*
X446Y565D02*
X452Y565D01*
X2157Y565D02*
X2164Y565D01*
X0Y564D02*
X7Y564D01*
X123Y564D02*
X127Y564D01*
X135Y564D02*
X138Y564D01*
X222Y564D02*
X255Y564D01*
X271Y564D02*
X277Y564D01*
X299Y564D02*
X305Y564D01*
X321Y564D02*
X327Y564D01*
X335Y564D02*
X341Y564D01*
X350Y564D02*
X356Y564D01*
X371Y564D02*
X377Y564D01*
X398Y564D02*
X404Y564D01*
X425Y564D02*
X431Y564D01*
X446Y564D02*
X452Y564D01*
X2157Y564D02*
X2164Y564D01*
X0Y563D02*
X7Y563D01*
X123Y563D02*
X127Y563D01*
X135Y563D02*
X138Y563D01*
X222Y563D02*
X255Y563D01*
X271Y563D02*
X277Y563D01*
X299Y563D02*
X305Y563D01*
X321Y563D02*
X327Y563D01*
X335Y563D02*
X341Y563D01*
X350Y563D02*
X356Y563D01*
X371Y563D02*
X377Y563D01*
X398Y563D02*
X404Y563D01*
X425Y563D02*
X431Y563D01*
X446Y563D02*
X452Y563D01*
X2157Y563D02*
X2164Y563D01*
X0Y562D02*
X7Y562D01*
X123Y562D02*
X127Y562D01*
X135Y562D02*
X138Y562D01*
X223Y562D02*
X255Y562D01*
X271Y562D02*
X277Y562D01*
X299Y562D02*
X305Y562D01*
X321Y562D02*
X327Y562D01*
X335Y562D02*
X341Y562D01*
X350Y562D02*
X356Y562D01*
X371Y562D02*
X377Y562D01*
X398Y562D02*
X404Y562D01*
X425Y562D02*
X431Y562D01*
X446Y562D02*
X452Y562D01*
X2157Y562D02*
X2164Y562D01*
X0Y561D02*
X7Y561D01*
X123Y561D02*
X127Y561D01*
X135Y561D02*
X137Y561D01*
X249Y561D02*
X255Y561D01*
X271Y561D02*
X277Y561D01*
X299Y561D02*
X305Y561D01*
X321Y561D02*
X327Y561D01*
X335Y561D02*
X341Y561D01*
X350Y561D02*
X356Y561D01*
X371Y561D02*
X378Y561D01*
X398Y561D02*
X404Y561D01*
X425Y561D02*
X431Y561D01*
X446Y561D02*
X452Y561D01*
X2157Y561D02*
X2164Y561D01*
X0Y560D02*
X7Y560D01*
X124Y560D02*
X127Y560D01*
X135Y560D02*
X137Y560D01*
X249Y560D02*
X255Y560D01*
X272Y560D02*
X278Y560D01*
X298Y560D02*
X305Y560D01*
X321Y560D02*
X327Y560D01*
X335Y560D02*
X341Y560D01*
X350Y560D02*
X356Y560D01*
X371Y560D02*
X379Y560D01*
X398Y560D02*
X404Y560D01*
X425Y560D02*
X431Y560D01*
X446Y560D02*
X452Y560D01*
X2157Y560D02*
X2164Y560D01*
X0Y559D02*
X7Y559D01*
X124Y559D02*
X127Y559D01*
X135Y559D02*
X137Y559D01*
X249Y559D02*
X255Y559D01*
X272Y559D02*
X278Y559D01*
X298Y559D02*
X305Y559D01*
X321Y559D02*
X327Y559D01*
X335Y559D02*
X341Y559D01*
X350Y559D02*
X356Y559D01*
X371Y559D02*
X381Y559D01*
X398Y559D02*
X404Y559D01*
X425Y559D02*
X431Y559D01*
X446Y559D02*
X452Y559D01*
X2157Y559D02*
X2164Y559D01*
X0Y558D02*
X7Y558D01*
X124Y558D02*
X127Y558D01*
X135Y558D02*
X137Y558D01*
X249Y558D02*
X255Y558D01*
X272Y558D02*
X279Y558D01*
X296Y558D02*
X305Y558D01*
X321Y558D02*
X327Y558D01*
X335Y558D02*
X341Y558D01*
X350Y558D02*
X356Y558D01*
X371Y558D02*
X382Y558D01*
X398Y558D02*
X404Y558D01*
X425Y558D02*
X431Y558D01*
X446Y558D02*
X452Y558D01*
X2157Y558D02*
X2164Y558D01*
X0Y557D02*
X7Y557D01*
X124Y557D02*
X127Y557D01*
X135Y557D02*
X137Y557D01*
X248Y557D02*
X255Y557D01*
X272Y557D02*
X280Y557D01*
X295Y557D02*
X305Y557D01*
X321Y557D02*
X327Y557D01*
X335Y557D02*
X341Y557D01*
X350Y557D02*
X356Y557D01*
X371Y557D02*
X384Y557D01*
X398Y557D02*
X404Y557D01*
X425Y557D02*
X431Y557D01*
X446Y557D02*
X452Y557D01*
X2157Y557D02*
X2164Y557D01*
X0Y556D02*
X7Y556D01*
X124Y556D02*
X127Y556D01*
X135Y556D02*
X137Y556D01*
X247Y556D02*
X254Y556D01*
X273Y556D02*
X281Y556D01*
X294Y556D02*
X305Y556D01*
X321Y556D02*
X327Y556D01*
X335Y556D02*
X341Y556D01*
X350Y556D02*
X356Y556D01*
X371Y556D02*
X386Y556D01*
X398Y556D02*
X404Y556D01*
X425Y556D02*
X431Y556D01*
X445Y556D02*
X451Y556D01*
X2157Y556D02*
X2164Y556D01*
X0Y555D02*
X7Y555D01*
X124Y555D02*
X127Y555D01*
X135Y555D02*
X137Y555D01*
X246Y555D02*
X254Y555D01*
X273Y555D02*
X283Y555D01*
X293Y555D02*
X305Y555D01*
X321Y555D02*
X327Y555D01*
X335Y555D02*
X341Y555D01*
X350Y555D02*
X356Y555D01*
X371Y555D02*
X387Y555D01*
X397Y555D02*
X404Y555D01*
X425Y555D02*
X432Y555D01*
X445Y555D02*
X451Y555D01*
X2157Y555D02*
X2164Y555D01*
X0Y554D02*
X7Y554D01*
X124Y554D02*
X128Y554D01*
X135Y554D02*
X137Y554D01*
X244Y554D02*
X254Y554D01*
X274Y554D02*
X284Y554D01*
X292Y554D02*
X305Y554D01*
X321Y554D02*
X327Y554D01*
X335Y554D02*
X341Y554D01*
X350Y554D02*
X356Y554D01*
X371Y554D02*
X389Y554D01*
X395Y554D02*
X404Y554D01*
X425Y554D02*
X434Y554D01*
X443Y554D02*
X451Y554D01*
X2157Y554D02*
X2164Y554D01*
X0Y553D02*
X7Y553D01*
X124Y553D02*
X137Y553D01*
X223Y553D02*
X253Y553D01*
X275Y553D02*
X285Y553D01*
X291Y553D02*
X305Y553D01*
X321Y553D02*
X327Y553D01*
X335Y553D02*
X341Y553D01*
X350Y553D02*
X356Y553D01*
X371Y553D02*
X403Y553D01*
X426Y553D02*
X451Y553D01*
X2157Y553D02*
X2164Y553D01*
X0Y552D02*
X7Y552D01*
X124Y552D02*
X137Y552D01*
X222Y552D02*
X252Y552D01*
X276Y552D02*
X305Y552D01*
X321Y552D02*
X327Y552D01*
X335Y552D02*
X341Y552D01*
X350Y552D02*
X356Y552D01*
X371Y552D02*
X377Y552D01*
X380Y552D02*
X403Y552D01*
X426Y552D02*
X450Y552D01*
X2157Y552D02*
X2164Y552D01*
X0Y551D02*
X7Y551D01*
X124Y551D02*
X137Y551D01*
X222Y551D02*
X251Y551D01*
X278Y551D02*
X305Y551D01*
X321Y551D02*
X327Y551D01*
X335Y551D02*
X341Y551D01*
X350Y551D02*
X356Y551D01*
X371Y551D02*
X377Y551D01*
X381Y551D02*
X402Y551D01*
X427Y551D02*
X449Y551D01*
X2157Y551D02*
X2164Y551D01*
X0Y550D02*
X7Y550D01*
X124Y550D02*
X137Y550D01*
X222Y550D02*
X250Y550D01*
X279Y550D02*
X297Y550D01*
X299Y550D02*
X305Y550D01*
X321Y550D02*
X327Y550D01*
X335Y550D02*
X341Y550D01*
X350Y550D02*
X355Y550D01*
X372Y550D02*
X377Y550D01*
X383Y550D02*
X401Y550D01*
X428Y550D02*
X448Y550D01*
X2157Y550D02*
X2164Y550D01*
X0Y549D02*
X7Y549D01*
X123Y549D02*
X137Y549D01*
X222Y549D02*
X248Y549D01*
X280Y549D02*
X296Y549D01*
X299Y549D02*
X305Y549D01*
X321Y549D02*
X327Y549D01*
X336Y549D02*
X341Y549D01*
X350Y549D02*
X355Y549D01*
X372Y549D02*
X377Y549D01*
X384Y549D02*
X400Y549D01*
X429Y549D02*
X447Y549D01*
X2157Y549D02*
X2164Y549D01*
X0Y548D02*
X7Y548D01*
X123Y548D02*
X138Y548D01*
X223Y548D02*
X247Y548D01*
X281Y548D02*
X295Y548D01*
X299Y548D02*
X305Y548D01*
X322Y548D02*
X326Y548D01*
X336Y548D02*
X340Y548D01*
X351Y548D02*
X355Y548D01*
X372Y548D02*
X376Y548D01*
X386Y548D02*
X398Y548D01*
X431Y548D02*
X446Y548D01*
X2157Y548D02*
X2164Y548D01*
X0Y547D02*
X7Y547D01*
X124Y547D02*
X138Y547D01*
X224Y547D02*
X244Y547D01*
X282Y547D02*
X294Y547D01*
X299Y547D02*
X305Y547D01*
X324Y547D02*
X324Y547D01*
X338Y547D02*
X338Y547D01*
X352Y547D02*
X353Y547D01*
X374Y547D02*
X375Y547D01*
X389Y547D02*
X395Y547D01*
X434Y547D02*
X442Y547D01*
X2157Y547D02*
X2164Y547D01*
X0Y546D02*
X7Y546D01*
X284Y546D02*
X292Y546D01*
X299Y546D02*
X305Y546D01*
X2157Y546D02*
X2164Y546D01*
X0Y545D02*
X7Y545D01*
X299Y545D02*
X305Y545D01*
X2157Y545D02*
X2164Y545D01*
X0Y544D02*
X7Y544D01*
X299Y544D02*
X305Y544D01*
X2157Y544D02*
X2164Y544D01*
X0Y543D02*
X7Y543D01*
X299Y543D02*
X305Y543D01*
X2157Y543D02*
X2164Y543D01*
X0Y542D02*
X7Y542D01*
X299Y542D02*
X305Y542D01*
X2157Y542D02*
X2164Y542D01*
X0Y541D02*
X7Y541D01*
X299Y541D02*
X305Y541D01*
X2157Y541D02*
X2164Y541D01*
X0Y540D02*
X7Y540D01*
X299Y540D02*
X305Y540D01*
X2157Y540D02*
X2164Y540D01*
X0Y539D02*
X7Y539D01*
X299Y539D02*
X305Y539D01*
X2157Y539D02*
X2164Y539D01*
X0Y538D02*
X7Y538D01*
X299Y538D02*
X305Y538D01*
X2157Y538D02*
X2164Y538D01*
X0Y537D02*
X7Y537D01*
X299Y537D02*
X305Y537D01*
X2157Y537D02*
X2164Y537D01*
X0Y536D02*
X7Y536D01*
X299Y536D02*
X305Y536D01*
X2157Y536D02*
X2164Y536D01*
X0Y535D02*
X7Y535D01*
X299Y535D02*
X305Y535D01*
X2157Y535D02*
X2164Y535D01*
X0Y534D02*
X7Y534D01*
X299Y534D02*
X305Y534D01*
X2157Y534D02*
X2164Y534D01*
X0Y533D02*
X7Y533D01*
X300Y533D02*
X304Y533D01*
X2157Y533D02*
X2164Y533D01*
X0Y532D02*
X7Y532D01*
X2157Y532D02*
X2164Y532D01*
X0Y531D02*
X7Y531D01*
X2157Y531D02*
X2164Y531D01*
X0Y530D02*
X7Y530D01*
X2157Y530D02*
X2164Y530D01*
X0Y529D02*
X7Y529D01*
X2157Y529D02*
X2164Y529D01*
X0Y528D02*
X7Y528D01*
X2157Y528D02*
X2164Y528D01*
X0Y527D02*
X7Y527D01*
X2157Y527D02*
X2164Y527D01*
X0Y526D02*
X7Y526D01*
X2157Y526D02*
X2164Y526D01*
X0Y525D02*
X7Y525D01*
X2157Y525D02*
X2164Y525D01*
X0Y524D02*
X7Y524D01*
X2157Y524D02*
X2164Y524D01*
X0Y523D02*
X7Y523D01*
X2157Y523D02*
X2164Y523D01*
X0Y522D02*
X7Y522D01*
X2157Y522D02*
X2164Y522D01*
X0Y521D02*
X7Y521D01*
X2157Y521D02*
X2164Y521D01*
X0Y520D02*
X7Y520D01*
X2157Y520D02*
X2164Y520D01*
X0Y519D02*
X7Y519D01*
X2157Y519D02*
X2164Y519D01*
X0Y518D02*
X7Y518D01*
X2157Y518D02*
X2164Y518D01*
X0Y517D02*
X7Y517D01*
X2157Y517D02*
X2164Y517D01*
X0Y516D02*
X7Y516D01*
X2157Y516D02*
X2164Y516D01*
X0Y515D02*
X7Y515D01*
X2157Y515D02*
X2164Y515D01*
X0Y514D02*
X7Y514D01*
X2157Y514D02*
X2164Y514D01*
X0Y513D02*
X7Y513D01*
X2157Y513D02*
X2164Y513D01*
X0Y512D02*
X7Y512D01*
X2157Y512D02*
X2164Y512D01*
X0Y511D02*
X7Y511D01*
X2157Y511D02*
X2164Y511D01*
X0Y510D02*
X7Y510D01*
X2157Y510D02*
X2164Y510D01*
X0Y509D02*
X7Y509D01*
X2157Y509D02*
X2164Y509D01*
X0Y508D02*
X7Y508D01*
X2157Y508D02*
X2164Y508D01*
X0Y507D02*
X7Y507D01*
X2157Y507D02*
X2164Y507D01*
X0Y506D02*
X7Y506D01*
X2157Y506D02*
X2164Y506D01*
X0Y505D02*
X7Y505D01*
X2157Y505D02*
X2164Y505D01*
X0Y504D02*
X7Y504D01*
X2157Y504D02*
X2164Y504D01*
X0Y503D02*
X7Y503D01*
X2157Y503D02*
X2164Y503D01*
X0Y502D02*
X7Y502D01*
X2157Y502D02*
X2164Y502D01*
X0Y501D02*
X7Y501D01*
X2157Y501D02*
X2164Y501D01*
X0Y500D02*
X7Y500D01*
X2157Y500D02*
X2164Y500D01*
X0Y499D02*
X7Y499D01*
X2157Y499D02*
X2164Y499D01*
X0Y498D02*
X7Y498D01*
X2157Y498D02*
X2164Y498D01*
X0Y497D02*
X7Y497D01*
X2157Y497D02*
X2164Y497D01*
X0Y496D02*
X7Y496D01*
X2157Y496D02*
X2164Y496D01*
X0Y495D02*
X7Y495D01*
X2157Y495D02*
X2164Y495D01*
X0Y494D02*
X7Y494D01*
X2157Y494D02*
X2164Y494D01*
X0Y493D02*
X7Y493D01*
X2157Y493D02*
X2164Y493D01*
X0Y492D02*
X7Y492D01*
X2157Y492D02*
X2164Y492D01*
X0Y491D02*
X7Y491D01*
X2157Y491D02*
X2164Y491D01*
X0Y490D02*
X7Y490D01*
X2157Y490D02*
X2164Y490D01*
X0Y489D02*
X7Y489D01*
X2157Y489D02*
X2164Y489D01*
X0Y488D02*
X7Y488D01*
X2157Y488D02*
X2164Y488D01*
X0Y487D02*
X7Y487D01*
X2157Y487D02*
X2164Y487D01*
X0Y486D02*
X7Y486D01*
X2157Y486D02*
X2164Y486D01*
X0Y485D02*
X7Y485D01*
X2157Y485D02*
X2164Y485D01*
X0Y484D02*
X7Y484D01*
X2157Y484D02*
X2164Y484D01*
X0Y483D02*
X7Y483D01*
X2157Y483D02*
X2164Y483D01*
X0Y482D02*
X7Y482D01*
X2157Y482D02*
X2164Y482D01*
X0Y481D02*
X7Y481D01*
X2157Y481D02*
X2164Y481D01*
X0Y480D02*
X7Y480D01*
X2157Y480D02*
X2164Y480D01*
X0Y479D02*
X7Y479D01*
X2157Y479D02*
X2164Y479D01*
X0Y478D02*
X7Y478D01*
X2157Y478D02*
X2164Y478D01*
X0Y477D02*
X7Y477D01*
X2157Y477D02*
X2164Y477D01*
X0Y476D02*
X7Y476D01*
X2157Y476D02*
X2164Y476D01*
X0Y475D02*
X7Y475D01*
X2157Y475D02*
X2164Y475D01*
X0Y474D02*
X7Y474D01*
X2157Y474D02*
X2164Y474D01*
X0Y473D02*
X7Y473D01*
X2157Y473D02*
X2164Y473D01*
X0Y472D02*
X7Y472D01*
X2157Y472D02*
X2164Y472D01*
X0Y471D02*
X7Y471D01*
X2157Y471D02*
X2164Y471D01*
X0Y470D02*
X7Y470D01*
X2157Y470D02*
X2164Y470D01*
X0Y469D02*
X7Y469D01*
X2157Y469D02*
X2164Y469D01*
X0Y468D02*
X7Y468D01*
X2157Y468D02*
X2164Y468D01*
X0Y467D02*
X7Y467D01*
X2157Y467D02*
X2164Y467D01*
X0Y466D02*
X7Y466D01*
X2157Y466D02*
X2164Y466D01*
X0Y465D02*
X7Y465D01*
X2157Y465D02*
X2164Y465D01*
X0Y464D02*
X7Y464D01*
X2157Y464D02*
X2164Y464D01*
X0Y463D02*
X7Y463D01*
X2157Y463D02*
X2164Y463D01*
X0Y462D02*
X7Y462D01*
X2157Y462D02*
X2164Y462D01*
X0Y461D02*
X7Y461D01*
X2157Y461D02*
X2164Y461D01*
X0Y460D02*
X7Y460D01*
X2157Y460D02*
X2164Y460D01*
X0Y459D02*
X7Y459D01*
X2157Y459D02*
X2164Y459D01*
X0Y458D02*
X7Y458D01*
X2157Y458D02*
X2164Y458D01*
X0Y457D02*
X7Y457D01*
X2157Y457D02*
X2164Y457D01*
X0Y456D02*
X7Y456D01*
X2157Y456D02*
X2164Y456D01*
X0Y455D02*
X7Y455D01*
X2157Y455D02*
X2164Y455D01*
X0Y454D02*
X7Y454D01*
X2157Y454D02*
X2164Y454D01*
X0Y453D02*
X7Y453D01*
X2157Y453D02*
X2164Y453D01*
X0Y452D02*
X7Y452D01*
X2157Y452D02*
X2164Y452D01*
X0Y451D02*
X7Y451D01*
X2157Y451D02*
X2164Y451D01*
X0Y450D02*
X7Y450D01*
X2157Y450D02*
X2164Y450D01*
X0Y449D02*
X7Y449D01*
X2157Y449D02*
X2164Y449D01*
X0Y448D02*
X7Y448D01*
X2157Y448D02*
X2164Y448D01*
X0Y447D02*
X7Y447D01*
X2157Y447D02*
X2164Y447D01*
X0Y446D02*
X7Y446D01*
X2157Y446D02*
X2164Y446D01*
X0Y445D02*
X7Y445D01*
X2157Y445D02*
X2164Y445D01*
X0Y444D02*
X7Y444D01*
X2157Y444D02*
X2164Y444D01*
X0Y443D02*
X7Y443D01*
X390Y443D02*
X488Y443D01*
X570Y443D02*
X588Y443D01*
X2157Y443D02*
X2164Y443D01*
X0Y442D02*
X7Y442D01*
X389Y442D02*
X488Y442D01*
X570Y442D02*
X588Y442D01*
X2157Y442D02*
X2164Y442D01*
X0Y441D02*
X7Y441D01*
X389Y441D02*
X489Y441D01*
X570Y441D02*
X588Y441D01*
X2157Y441D02*
X2164Y441D01*
X0Y440D02*
X7Y440D01*
X389Y440D02*
X489Y440D01*
X569Y440D02*
X588Y440D01*
X2157Y440D02*
X2164Y440D01*
X0Y439D02*
X7Y439D01*
X389Y439D02*
X490Y439D01*
X569Y439D02*
X588Y439D01*
X2157Y439D02*
X2164Y439D01*
X0Y438D02*
X7Y438D01*
X389Y438D02*
X490Y438D01*
X569Y438D02*
X588Y438D01*
X2157Y438D02*
X2164Y438D01*
X0Y437D02*
X7Y437D01*
X389Y437D02*
X491Y437D01*
X568Y437D02*
X588Y437D01*
X2157Y437D02*
X2164Y437D01*
X0Y436D02*
X7Y436D01*
X389Y436D02*
X491Y436D01*
X568Y436D02*
X588Y436D01*
X2157Y436D02*
X2164Y436D01*
X0Y435D02*
X7Y435D01*
X389Y435D02*
X492Y435D01*
X567Y435D02*
X588Y435D01*
X2157Y435D02*
X2164Y435D01*
X0Y434D02*
X7Y434D01*
X389Y434D02*
X492Y434D01*
X567Y434D02*
X588Y434D01*
X2157Y434D02*
X2164Y434D01*
X0Y433D02*
X7Y433D01*
X2157Y433D02*
X2164Y433D01*
X0Y432D02*
X7Y432D01*
X2157Y432D02*
X2164Y432D01*
X0Y431D02*
X7Y431D01*
X2157Y431D02*
X2164Y431D01*
X0Y430D02*
X7Y430D01*
X2157Y430D02*
X2164Y430D01*
X0Y429D02*
X7Y429D01*
X2157Y429D02*
X2164Y429D01*
X0Y428D02*
X7Y428D01*
X2157Y428D02*
X2164Y428D01*
X0Y427D02*
X7Y427D01*
X2157Y427D02*
X2164Y427D01*
X0Y426D02*
X7Y426D01*
X2157Y426D02*
X2164Y426D01*
X0Y425D02*
X7Y425D01*
X2157Y425D02*
X2164Y425D01*
X0Y424D02*
X7Y424D01*
X2157Y424D02*
X2164Y424D01*
X0Y423D02*
X7Y423D01*
X2157Y423D02*
X2164Y423D01*
X0Y422D02*
X7Y422D01*
X2157Y422D02*
X2164Y422D01*
X0Y421D02*
X7Y421D01*
X2157Y421D02*
X2164Y421D01*
X0Y420D02*
X7Y420D01*
X2157Y420D02*
X2164Y420D01*
X0Y419D02*
X7Y419D01*
X2157Y419D02*
X2164Y419D01*
X0Y418D02*
X7Y418D01*
X2157Y418D02*
X2164Y418D01*
X0Y417D02*
X7Y417D01*
X2157Y417D02*
X2164Y417D01*
X0Y416D02*
X7Y416D01*
X2157Y416D02*
X2164Y416D01*
X0Y415D02*
X7Y415D01*
X2157Y415D02*
X2164Y415D01*
X0Y414D02*
X7Y414D01*
X2157Y414D02*
X2164Y414D01*
X0Y413D02*
X7Y413D01*
X2157Y413D02*
X2164Y413D01*
X0Y412D02*
X7Y412D01*
X2157Y412D02*
X2164Y412D01*
X0Y411D02*
X7Y411D01*
X2157Y411D02*
X2164Y411D01*
X0Y410D02*
X7Y410D01*
X322Y410D02*
X388Y410D01*
X590Y410D02*
X637Y410D01*
X2157Y410D02*
X2164Y410D01*
X0Y409D02*
X7Y409D01*
X322Y409D02*
X388Y409D01*
X589Y409D02*
X637Y409D01*
X2157Y409D02*
X2164Y409D01*
X0Y408D02*
X7Y408D01*
X322Y408D02*
X388Y408D01*
X589Y408D02*
X636Y408D01*
X2157Y408D02*
X2164Y408D01*
X0Y407D02*
X7Y407D01*
X322Y407D02*
X388Y407D01*
X589Y407D02*
X636Y407D01*
X2157Y407D02*
X2164Y407D01*
X0Y406D02*
X7Y406D01*
X322Y406D02*
X388Y406D01*
X589Y406D02*
X636Y406D01*
X2157Y406D02*
X2164Y406D01*
X0Y405D02*
X7Y405D01*
X322Y405D02*
X388Y405D01*
X589Y405D02*
X636Y405D01*
X2157Y405D02*
X2164Y405D01*
X0Y404D02*
X7Y404D01*
X322Y404D02*
X388Y404D01*
X589Y404D02*
X636Y404D01*
X2157Y404D02*
X2164Y404D01*
X0Y403D02*
X7Y403D01*
X322Y403D02*
X388Y403D01*
X589Y403D02*
X636Y403D01*
X2157Y403D02*
X2164Y403D01*
X0Y402D02*
X7Y402D01*
X322Y402D02*
X388Y402D01*
X589Y402D02*
X636Y402D01*
X2157Y402D02*
X2164Y402D01*
X0Y401D02*
X7Y401D01*
X322Y401D02*
X388Y401D01*
X589Y401D02*
X637Y401D01*
X2157Y401D02*
X2164Y401D01*
X0Y400D02*
X7Y400D01*
X2157Y400D02*
X2164Y400D01*
X0Y399D02*
X7Y399D01*
X2157Y399D02*
X2164Y399D01*
X0Y398D02*
X7Y398D01*
X2157Y398D02*
X2164Y398D01*
X0Y397D02*
X7Y397D01*
X2157Y397D02*
X2164Y397D01*
X0Y396D02*
X7Y396D01*
X2157Y396D02*
X2164Y396D01*
X0Y395D02*
X7Y395D01*
X2157Y395D02*
X2164Y395D01*
X0Y394D02*
X7Y394D01*
X2157Y394D02*
X2164Y394D01*
X0Y393D02*
X7Y393D01*
X2157Y393D02*
X2164Y393D01*
X0Y392D02*
X7Y392D01*
X2157Y392D02*
X2164Y392D01*
X0Y391D02*
X7Y391D01*
X2157Y391D02*
X2164Y391D01*
X0Y390D02*
X7Y390D01*
X2157Y390D02*
X2164Y390D01*
X0Y389D02*
X7Y389D01*
X2157Y389D02*
X2164Y389D01*
X0Y388D02*
X7Y388D01*
X2157Y388D02*
X2164Y388D01*
X0Y387D02*
X7Y387D01*
X2157Y387D02*
X2164Y387D01*
X0Y386D02*
X7Y386D01*
X2157Y386D02*
X2164Y386D01*
X0Y385D02*
X7Y385D01*
X2157Y385D02*
X2164Y385D01*
X0Y384D02*
X7Y384D01*
X2157Y384D02*
X2164Y384D01*
X0Y383D02*
X7Y383D01*
X2157Y383D02*
X2164Y383D01*
X0Y382D02*
X7Y382D01*
X2157Y382D02*
X2164Y382D01*
X0Y381D02*
X7Y381D01*
X2157Y381D02*
X2164Y381D01*
X0Y380D02*
X7Y380D01*
X2157Y380D02*
X2164Y380D01*
X0Y379D02*
X7Y379D01*
X2157Y379D02*
X2164Y379D01*
X0Y378D02*
X7Y378D01*
X2157Y378D02*
X2164Y378D01*
X0Y377D02*
X7Y377D01*
X2157Y377D02*
X2164Y377D01*
X0Y376D02*
X7Y376D01*
X2157Y376D02*
X2164Y376D01*
X0Y375D02*
X7Y375D01*
X2157Y375D02*
X2164Y375D01*
X0Y374D02*
X7Y374D01*
X2157Y374D02*
X2164Y374D01*
X0Y373D02*
X7Y373D01*
X2157Y373D02*
X2164Y373D01*
X0Y372D02*
X7Y372D01*
X2157Y372D02*
X2164Y372D01*
X0Y371D02*
X7Y371D01*
X2157Y371D02*
X2164Y371D01*
X0Y370D02*
X7Y370D01*
X2157Y370D02*
X2164Y370D01*
X0Y369D02*
X7Y369D01*
X2157Y369D02*
X2164Y369D01*
X0Y368D02*
X7Y368D01*
X2157Y368D02*
X2164Y368D01*
X0Y367D02*
X7Y367D01*
X2157Y367D02*
X2164Y367D01*
X0Y366D02*
X7Y366D01*
X2157Y366D02*
X2164Y366D01*
X0Y365D02*
X7Y365D01*
X2157Y365D02*
X2164Y365D01*
X0Y364D02*
X7Y364D01*
X2157Y364D02*
X2164Y364D01*
X0Y363D02*
X7Y363D01*
X2157Y363D02*
X2164Y363D01*
X0Y362D02*
X7Y362D01*
X2157Y362D02*
X2164Y362D01*
X0Y361D02*
X7Y361D01*
X2157Y361D02*
X2164Y361D01*
X0Y360D02*
X7Y360D01*
X2157Y360D02*
X2164Y360D01*
X0Y359D02*
X7Y359D01*
X2157Y359D02*
X2164Y359D01*
X0Y358D02*
X7Y358D01*
X2157Y358D02*
X2164Y358D01*
X0Y357D02*
X7Y357D01*
X2157Y357D02*
X2164Y357D01*
X0Y356D02*
X7Y356D01*
X2157Y356D02*
X2164Y356D01*
X0Y355D02*
X7Y355D01*
X2157Y355D02*
X2164Y355D01*
X0Y354D02*
X7Y354D01*
X2157Y354D02*
X2164Y354D01*
X0Y353D02*
X7Y353D01*
X2157Y353D02*
X2164Y353D01*
X0Y352D02*
X7Y352D01*
X2157Y352D02*
X2164Y352D01*
X0Y351D02*
X7Y351D01*
X2157Y351D02*
X2164Y351D01*
X0Y350D02*
X7Y350D01*
X2157Y350D02*
X2164Y350D01*
X0Y349D02*
X7Y349D01*
X2157Y349D02*
X2164Y349D01*
X0Y348D02*
X7Y348D01*
X2157Y348D02*
X2164Y348D01*
X0Y347D02*
X7Y347D01*
X2157Y347D02*
X2164Y347D01*
X0Y346D02*
X7Y346D01*
X2157Y346D02*
X2164Y346D01*
X0Y345D02*
X7Y345D01*
X2157Y345D02*
X2164Y345D01*
X0Y344D02*
X7Y344D01*
X2157Y344D02*
X2164Y344D01*
X0Y343D02*
X7Y343D01*
X2157Y343D02*
X2164Y343D01*
X0Y342D02*
X7Y342D01*
X2157Y342D02*
X2164Y342D01*
X0Y341D02*
X7Y341D01*
X2157Y341D02*
X2164Y341D01*
X0Y340D02*
X7Y340D01*
X2157Y340D02*
X2164Y340D01*
X0Y339D02*
X7Y339D01*
X2157Y339D02*
X2164Y339D01*
X0Y338D02*
X7Y338D01*
X2157Y338D02*
X2164Y338D01*
X0Y337D02*
X7Y337D01*
X2157Y337D02*
X2164Y337D01*
X0Y336D02*
X7Y336D01*
X727Y336D02*
X729Y336D01*
X2157Y336D02*
X2164Y336D01*
X0Y335D02*
X7Y335D01*
X726Y335D02*
X730Y335D01*
X2157Y335D02*
X2164Y335D01*
X0Y334D02*
X7Y334D01*
X725Y334D02*
X731Y334D01*
X2157Y334D02*
X2164Y334D01*
X0Y333D02*
X7Y333D01*
X725Y333D02*
X731Y333D01*
X2157Y333D02*
X2164Y333D01*
X0Y332D02*
X7Y332D01*
X725Y332D02*
X731Y332D01*
X2157Y332D02*
X2164Y332D01*
X0Y331D02*
X7Y331D01*
X725Y331D02*
X731Y331D01*
X2157Y331D02*
X2164Y331D01*
X0Y330D02*
X7Y330D01*
X725Y330D02*
X731Y330D01*
X2157Y330D02*
X2164Y330D01*
X0Y329D02*
X7Y329D01*
X725Y329D02*
X731Y329D01*
X2157Y329D02*
X2164Y329D01*
X0Y328D02*
X7Y328D01*
X725Y328D02*
X731Y328D01*
X2157Y328D02*
X2164Y328D01*
X0Y327D02*
X7Y327D01*
X725Y327D02*
X731Y327D01*
X2157Y327D02*
X2164Y327D01*
X0Y326D02*
X7Y326D01*
X725Y326D02*
X731Y326D01*
X2157Y326D02*
X2164Y326D01*
X0Y325D02*
X7Y325D01*
X725Y325D02*
X731Y325D01*
X2157Y325D02*
X2164Y325D01*
X0Y324D02*
X7Y324D01*
X725Y324D02*
X731Y324D01*
X2157Y324D02*
X2164Y324D01*
X0Y323D02*
X7Y323D01*
X725Y323D02*
X731Y323D01*
X2157Y323D02*
X2164Y323D01*
X0Y322D02*
X7Y322D01*
X725Y322D02*
X731Y322D01*
X2157Y322D02*
X2164Y322D01*
X0Y321D02*
X7Y321D01*
X725Y321D02*
X731Y321D01*
X2157Y321D02*
X2164Y321D01*
X0Y320D02*
X7Y320D01*
X725Y320D02*
X731Y320D01*
X2157Y320D02*
X2164Y320D01*
X0Y319D02*
X7Y319D01*
X725Y319D02*
X731Y319D01*
X2157Y319D02*
X2164Y319D01*
X0Y318D02*
X7Y318D01*
X725Y318D02*
X731Y318D01*
X2157Y318D02*
X2164Y318D01*
X0Y317D02*
X7Y317D01*
X725Y317D02*
X731Y317D01*
X2157Y317D02*
X2164Y317D01*
X0Y316D02*
X7Y316D01*
X725Y316D02*
X731Y316D01*
X2157Y316D02*
X2164Y316D01*
X0Y315D02*
X7Y315D01*
X725Y315D02*
X731Y315D01*
X2157Y315D02*
X2164Y315D01*
X0Y314D02*
X7Y314D01*
X725Y314D02*
X731Y314D01*
X2157Y314D02*
X2164Y314D01*
X0Y313D02*
X7Y313D01*
X725Y313D02*
X731Y313D01*
X2157Y313D02*
X2164Y313D01*
X0Y312D02*
X7Y312D01*
X725Y312D02*
X731Y312D01*
X2157Y312D02*
X2164Y312D01*
X0Y311D02*
X7Y311D01*
X725Y311D02*
X731Y311D01*
X2157Y311D02*
X2164Y311D01*
X0Y310D02*
X7Y310D01*
X422Y310D02*
X488Y310D01*
X689Y310D02*
X737Y310D01*
X2157Y310D02*
X2164Y310D01*
X0Y309D02*
X7Y309D01*
X422Y309D02*
X488Y309D01*
X689Y309D02*
X737Y309D01*
X2157Y309D02*
X2164Y309D01*
X0Y308D02*
X7Y308D01*
X422Y308D02*
X488Y308D01*
X689Y308D02*
X736Y308D01*
X2157Y308D02*
X2164Y308D01*
X0Y307D02*
X7Y307D01*
X422Y307D02*
X488Y307D01*
X689Y307D02*
X736Y307D01*
X2157Y307D02*
X2164Y307D01*
X0Y306D02*
X7Y306D01*
X422Y306D02*
X488Y306D01*
X689Y306D02*
X736Y306D01*
X2157Y306D02*
X2164Y306D01*
X0Y305D02*
X7Y305D01*
X422Y305D02*
X488Y305D01*
X689Y305D02*
X736Y305D01*
X2157Y305D02*
X2164Y305D01*
X0Y304D02*
X7Y304D01*
X422Y304D02*
X488Y304D01*
X689Y304D02*
X736Y304D01*
X2157Y304D02*
X2164Y304D01*
X0Y303D02*
X7Y303D01*
X422Y303D02*
X488Y303D01*
X689Y303D02*
X736Y303D01*
X2157Y303D02*
X2164Y303D01*
X0Y302D02*
X7Y302D01*
X422Y302D02*
X488Y302D01*
X689Y302D02*
X736Y302D01*
X2157Y302D02*
X2164Y302D01*
X0Y301D02*
X7Y301D01*
X422Y301D02*
X488Y301D01*
X689Y301D02*
X737Y301D01*
X2157Y301D02*
X2164Y301D01*
X0Y300D02*
X7Y300D01*
X725Y300D02*
X732Y300D01*
X2157Y300D02*
X2164Y300D01*
X0Y299D02*
X7Y299D01*
X725Y299D02*
X731Y299D01*
X2157Y299D02*
X2164Y299D01*
X0Y298D02*
X7Y298D01*
X725Y298D02*
X731Y298D01*
X2157Y298D02*
X2164Y298D01*
X0Y297D02*
X7Y297D01*
X725Y297D02*
X731Y297D01*
X2157Y297D02*
X2164Y297D01*
X0Y296D02*
X7Y296D01*
X725Y296D02*
X731Y296D01*
X2157Y296D02*
X2164Y296D01*
X0Y295D02*
X7Y295D01*
X725Y295D02*
X731Y295D01*
X2157Y295D02*
X2164Y295D01*
X0Y294D02*
X7Y294D01*
X725Y294D02*
X731Y294D01*
X2157Y294D02*
X2164Y294D01*
X0Y293D02*
X7Y293D01*
X725Y293D02*
X731Y293D01*
X2157Y293D02*
X2164Y293D01*
X0Y292D02*
X7Y292D01*
X725Y292D02*
X731Y292D01*
X2157Y292D02*
X2164Y292D01*
X0Y291D02*
X7Y291D01*
X725Y291D02*
X731Y291D01*
X2157Y291D02*
X2164Y291D01*
X0Y290D02*
X7Y290D01*
X725Y290D02*
X731Y290D01*
X2157Y290D02*
X2164Y290D01*
X0Y289D02*
X7Y289D01*
X725Y289D02*
X740Y289D01*
X2157Y289D02*
X2164Y289D01*
X0Y288D02*
X7Y288D01*
X725Y288D02*
X740Y288D01*
X2157Y288D02*
X2164Y288D01*
X0Y287D02*
X7Y287D01*
X725Y287D02*
X740Y287D01*
X2157Y287D02*
X2164Y287D01*
X0Y286D02*
X7Y286D01*
X725Y286D02*
X741Y286D01*
X2157Y286D02*
X2164Y286D01*
X0Y285D02*
X7Y285D01*
X725Y285D02*
X741Y285D01*
X2157Y285D02*
X2164Y285D01*
X0Y284D02*
X7Y284D01*
X725Y284D02*
X742Y284D01*
X2157Y284D02*
X2164Y284D01*
X0Y283D02*
X7Y283D01*
X725Y283D02*
X743Y283D01*
X2157Y283D02*
X2164Y283D01*
X0Y282D02*
X7Y282D01*
X2157Y282D02*
X2164Y282D01*
X0Y281D02*
X7Y281D01*
X2157Y281D02*
X2164Y281D01*
X0Y280D02*
X7Y280D01*
X2157Y280D02*
X2164Y280D01*
X0Y279D02*
X7Y279D01*
X2157Y279D02*
X2164Y279D01*
X0Y278D02*
X7Y278D01*
X2157Y278D02*
X2164Y278D01*
X0Y277D02*
X7Y277D01*
X2157Y277D02*
X2164Y277D01*
X0Y276D02*
X7Y276D01*
X2157Y276D02*
X2164Y276D01*
X0Y275D02*
X7Y275D01*
X2157Y275D02*
X2164Y275D01*
X0Y274D02*
X7Y274D01*
X2157Y274D02*
X2164Y274D01*
X0Y273D02*
X7Y273D01*
X2157Y273D02*
X2164Y273D01*
X0Y272D02*
X7Y272D01*
X2157Y272D02*
X2164Y272D01*
X0Y271D02*
X7Y271D01*
X2157Y271D02*
X2164Y271D01*
X0Y270D02*
X7Y270D01*
X2157Y270D02*
X2164Y270D01*
X0Y269D02*
X7Y269D01*
X2157Y269D02*
X2164Y269D01*
X0Y268D02*
X7Y268D01*
X2157Y268D02*
X2164Y268D01*
X0Y267D02*
X7Y267D01*
X2157Y267D02*
X2164Y267D01*
X0Y266D02*
X7Y266D01*
X2157Y266D02*
X2164Y266D01*
X0Y265D02*
X7Y265D01*
X2157Y265D02*
X2164Y265D01*
X0Y264D02*
X7Y264D01*
X2157Y264D02*
X2164Y264D01*
X0Y263D02*
X7Y263D01*
X2157Y263D02*
X2164Y263D01*
X0Y262D02*
X7Y262D01*
X2157Y262D02*
X2164Y262D01*
X0Y261D02*
X7Y261D01*
X2157Y261D02*
X2164Y261D01*
X0Y260D02*
X7Y260D01*
X2157Y260D02*
X2164Y260D01*
X0Y259D02*
X7Y259D01*
X2157Y259D02*
X2164Y259D01*
X0Y258D02*
X7Y258D01*
X2157Y258D02*
X2164Y258D01*
X0Y257D02*
X7Y257D01*
X2157Y257D02*
X2164Y257D01*
X0Y256D02*
X7Y256D01*
X2157Y256D02*
X2164Y256D01*
X0Y255D02*
X7Y255D01*
X2157Y255D02*
X2164Y255D01*
X0Y254D02*
X7Y254D01*
X2157Y254D02*
X2164Y254D01*
X0Y253D02*
X7Y253D01*
X2157Y253D02*
X2164Y253D01*
X0Y252D02*
X7Y252D01*
X2157Y252D02*
X2164Y252D01*
X0Y251D02*
X7Y251D01*
X2157Y251D02*
X2164Y251D01*
X0Y250D02*
X7Y250D01*
X2157Y250D02*
X2164Y250D01*
X0Y249D02*
X7Y249D01*
X2157Y249D02*
X2164Y249D01*
X0Y248D02*
X7Y248D01*
X2157Y248D02*
X2164Y248D01*
X0Y247D02*
X7Y247D01*
X2157Y247D02*
X2164Y247D01*
X0Y246D02*
X7Y246D01*
X2157Y246D02*
X2164Y246D01*
X0Y245D02*
X7Y245D01*
X2157Y245D02*
X2164Y245D01*
X0Y244D02*
X7Y244D01*
X2157Y244D02*
X2164Y244D01*
X0Y243D02*
X7Y243D01*
X2157Y243D02*
X2164Y243D01*
X0Y242D02*
X7Y242D01*
X2157Y242D02*
X2164Y242D01*
X0Y241D02*
X7Y241D01*
X2157Y241D02*
X2164Y241D01*
X0Y240D02*
X7Y240D01*
X2157Y240D02*
X2164Y240D01*
X0Y239D02*
X7Y239D01*
X2157Y239D02*
X2164Y239D01*
X0Y238D02*
X7Y238D01*
X2157Y238D02*
X2164Y238D01*
X0Y237D02*
X7Y237D01*
X2157Y237D02*
X2164Y237D01*
X0Y236D02*
X7Y236D01*
X827Y236D02*
X829Y236D01*
X2157Y236D02*
X2164Y236D01*
X0Y235D02*
X7Y235D01*
X826Y235D02*
X830Y235D01*
X2157Y235D02*
X2164Y235D01*
X0Y234D02*
X7Y234D01*
X825Y234D02*
X831Y234D01*
X2157Y234D02*
X2164Y234D01*
X0Y233D02*
X7Y233D01*
X825Y233D02*
X831Y233D01*
X2157Y233D02*
X2164Y233D01*
X0Y232D02*
X7Y232D01*
X825Y232D02*
X831Y232D01*
X2157Y232D02*
X2164Y232D01*
X0Y231D02*
X7Y231D01*
X825Y231D02*
X831Y231D01*
X2157Y231D02*
X2164Y231D01*
X0Y230D02*
X7Y230D01*
X825Y230D02*
X831Y230D01*
X2157Y230D02*
X2164Y230D01*
X0Y229D02*
X7Y229D01*
X825Y229D02*
X831Y229D01*
X2157Y229D02*
X2164Y229D01*
X0Y228D02*
X7Y228D01*
X825Y228D02*
X831Y228D01*
X2157Y228D02*
X2164Y228D01*
X0Y227D02*
X7Y227D01*
X825Y227D02*
X831Y227D01*
X2157Y227D02*
X2164Y227D01*
X0Y226D02*
X7Y226D01*
X825Y226D02*
X831Y226D01*
X2157Y226D02*
X2164Y226D01*
X0Y225D02*
X7Y225D01*
X825Y225D02*
X831Y225D01*
X2157Y225D02*
X2164Y225D01*
X0Y224D02*
X7Y224D01*
X825Y224D02*
X831Y224D01*
X2157Y224D02*
X2164Y224D01*
X0Y223D02*
X7Y223D01*
X825Y223D02*
X831Y223D01*
X2157Y223D02*
X2164Y223D01*
X0Y222D02*
X7Y222D01*
X825Y222D02*
X831Y222D01*
X2157Y222D02*
X2164Y222D01*
X0Y221D02*
X7Y221D01*
X825Y221D02*
X831Y221D01*
X2157Y221D02*
X2164Y221D01*
X0Y220D02*
X7Y220D01*
X825Y220D02*
X831Y220D01*
X2157Y220D02*
X2164Y220D01*
X0Y219D02*
X7Y219D01*
X825Y219D02*
X831Y219D01*
X2157Y219D02*
X2164Y219D01*
X0Y218D02*
X7Y218D01*
X825Y218D02*
X831Y218D01*
X2157Y218D02*
X2164Y218D01*
X0Y217D02*
X7Y217D01*
X825Y217D02*
X831Y217D01*
X2157Y217D02*
X2164Y217D01*
X0Y216D02*
X7Y216D01*
X825Y216D02*
X831Y216D01*
X2157Y216D02*
X2164Y216D01*
X0Y215D02*
X7Y215D01*
X825Y215D02*
X831Y215D01*
X2157Y215D02*
X2164Y215D01*
X0Y214D02*
X7Y214D01*
X825Y214D02*
X831Y214D01*
X2157Y214D02*
X2164Y214D01*
X0Y213D02*
X7Y213D01*
X825Y213D02*
X831Y213D01*
X2157Y213D02*
X2164Y213D01*
X0Y212D02*
X7Y212D01*
X825Y212D02*
X831Y212D01*
X2157Y212D02*
X2164Y212D01*
X0Y211D02*
X7Y211D01*
X825Y211D02*
X831Y211D01*
X2157Y211D02*
X2164Y211D01*
X0Y210D02*
X7Y210D01*
X522Y210D02*
X588Y210D01*
X789Y210D02*
X837Y210D01*
X2157Y210D02*
X2164Y210D01*
X0Y209D02*
X7Y209D01*
X522Y209D02*
X588Y209D01*
X789Y209D02*
X836Y209D01*
X2157Y209D02*
X2164Y209D01*
X0Y208D02*
X7Y208D01*
X522Y208D02*
X588Y208D01*
X789Y208D02*
X836Y208D01*
X2157Y208D02*
X2164Y208D01*
X0Y207D02*
X7Y207D01*
X522Y207D02*
X588Y207D01*
X789Y207D02*
X836Y207D01*
X2157Y207D02*
X2164Y207D01*
X0Y206D02*
X7Y206D01*
X522Y206D02*
X588Y206D01*
X789Y206D02*
X836Y206D01*
X2157Y206D02*
X2164Y206D01*
X0Y205D02*
X7Y205D01*
X522Y205D02*
X588Y205D01*
X789Y205D02*
X836Y205D01*
X2157Y205D02*
X2164Y205D01*
X0Y204D02*
X7Y204D01*
X522Y204D02*
X588Y204D01*
X789Y204D02*
X836Y204D01*
X2157Y204D02*
X2164Y204D01*
X0Y203D02*
X7Y203D01*
X522Y203D02*
X588Y203D01*
X789Y203D02*
X836Y203D01*
X2157Y203D02*
X2164Y203D01*
X0Y202D02*
X7Y202D01*
X522Y202D02*
X588Y202D01*
X789Y202D02*
X836Y202D01*
X2157Y202D02*
X2164Y202D01*
X0Y201D02*
X7Y201D01*
X522Y201D02*
X588Y201D01*
X789Y201D02*
X837Y201D01*
X2157Y201D02*
X2164Y201D01*
X0Y200D02*
X7Y200D01*
X825Y200D02*
X831Y200D01*
X2157Y200D02*
X2164Y200D01*
X0Y199D02*
X7Y199D01*
X825Y199D02*
X831Y199D01*
X2157Y199D02*
X2164Y199D01*
X0Y198D02*
X7Y198D01*
X825Y198D02*
X831Y198D01*
X2157Y198D02*
X2164Y198D01*
X0Y197D02*
X7Y197D01*
X825Y197D02*
X831Y197D01*
X2157Y197D02*
X2164Y197D01*
X0Y196D02*
X7Y196D01*
X825Y196D02*
X831Y196D01*
X2157Y196D02*
X2164Y196D01*
X0Y195D02*
X7Y195D01*
X825Y195D02*
X831Y195D01*
X2157Y195D02*
X2164Y195D01*
X0Y194D02*
X7Y194D01*
X825Y194D02*
X831Y194D01*
X2157Y194D02*
X2164Y194D01*
X0Y193D02*
X7Y193D01*
X825Y193D02*
X831Y193D01*
X2157Y193D02*
X2164Y193D01*
X0Y192D02*
X7Y192D01*
X825Y192D02*
X831Y192D01*
X2157Y192D02*
X2164Y192D01*
X0Y191D02*
X7Y191D01*
X825Y191D02*
X831Y191D01*
X2157Y191D02*
X2164Y191D01*
X0Y190D02*
X7Y190D01*
X825Y190D02*
X831Y190D01*
X2157Y190D02*
X2164Y190D01*
X0Y189D02*
X7Y189D01*
X825Y189D02*
X840Y189D01*
X2157Y189D02*
X2164Y189D01*
X0Y188D02*
X7Y188D01*
X825Y188D02*
X840Y188D01*
X2157Y188D02*
X2164Y188D01*
X0Y187D02*
X7Y187D01*
X825Y187D02*
X840Y187D01*
X2157Y187D02*
X2164Y187D01*
X0Y186D02*
X7Y186D01*
X825Y186D02*
X841Y186D01*
X2157Y186D02*
X2164Y186D01*
X0Y185D02*
X7Y185D01*
X825Y185D02*
X841Y185D01*
X2157Y185D02*
X2164Y185D01*
X0Y184D02*
X7Y184D01*
X825Y184D02*
X842Y184D01*
X2157Y184D02*
X2164Y184D01*
X0Y183D02*
X7Y183D01*
X825Y183D02*
X843Y183D01*
X2157Y183D02*
X2164Y183D01*
X0Y182D02*
X7Y182D01*
X2157Y182D02*
X2164Y182D01*
X0Y181D02*
X7Y181D01*
X2157Y181D02*
X2164Y181D01*
X0Y180D02*
X7Y180D01*
X2157Y180D02*
X2164Y180D01*
X0Y179D02*
X7Y179D01*
X2157Y179D02*
X2164Y179D01*
X0Y178D02*
X7Y178D01*
X2157Y178D02*
X2164Y178D01*
X0Y177D02*
X7Y177D01*
X2157Y177D02*
X2164Y177D01*
X0Y176D02*
X7Y176D01*
X2157Y176D02*
X2164Y176D01*
X0Y175D02*
X7Y175D01*
X2157Y175D02*
X2164Y175D01*
X0Y174D02*
X7Y174D01*
X2157Y174D02*
X2164Y174D01*
X0Y173D02*
X7Y173D01*
X2157Y173D02*
X2164Y173D01*
X0Y172D02*
X7Y172D01*
X2157Y172D02*
X2164Y172D01*
X0Y171D02*
X7Y171D01*
X2157Y171D02*
X2164Y171D01*
X0Y170D02*
X7Y170D01*
X2157Y170D02*
X2164Y170D01*
X0Y169D02*
X7Y169D01*
X2157Y169D02*
X2164Y169D01*
X0Y168D02*
X7Y168D01*
X2157Y168D02*
X2164Y168D01*
X0Y167D02*
X7Y167D01*
X2157Y167D02*
X2164Y167D01*
X0Y166D02*
X7Y166D01*
X2157Y166D02*
X2164Y166D01*
X0Y165D02*
X7Y165D01*
X2157Y165D02*
X2164Y165D01*
X0Y164D02*
X7Y164D01*
X2157Y164D02*
X2164Y164D01*
X0Y163D02*
X7Y163D01*
X2157Y163D02*
X2164Y163D01*
X0Y162D02*
X7Y162D01*
X2157Y162D02*
X2164Y162D01*
X0Y161D02*
X7Y161D01*
X2157Y161D02*
X2164Y161D01*
X0Y160D02*
X7Y160D01*
X2157Y160D02*
X2164Y160D01*
X0Y159D02*
X7Y159D01*
X2157Y159D02*
X2164Y159D01*
X0Y158D02*
X7Y158D01*
X2157Y158D02*
X2164Y158D01*
X0Y157D02*
X7Y157D01*
X2157Y157D02*
X2164Y157D01*
X0Y156D02*
X7Y156D01*
X2157Y156D02*
X2164Y156D01*
X0Y155D02*
X7Y155D01*
X2157Y155D02*
X2164Y155D01*
X0Y154D02*
X7Y154D01*
X2157Y154D02*
X2164Y154D01*
X0Y153D02*
X7Y153D01*
X2157Y153D02*
X2164Y153D01*
X0Y152D02*
X7Y152D01*
X2157Y152D02*
X2164Y152D01*
X0Y151D02*
X7Y151D01*
X2157Y151D02*
X2164Y151D01*
X0Y150D02*
X7Y150D01*
X2157Y150D02*
X2164Y150D01*
X0Y149D02*
X7Y149D01*
X2157Y149D02*
X2164Y149D01*
X0Y148D02*
X7Y148D01*
X2157Y148D02*
X2164Y148D01*
X0Y147D02*
X7Y147D01*
X2157Y147D02*
X2164Y147D01*
X0Y146D02*
X7Y146D01*
X2157Y146D02*
X2164Y146D01*
X0Y145D02*
X7Y145D01*
X2157Y145D02*
X2164Y145D01*
X0Y144D02*
X7Y144D01*
X2157Y144D02*
X2164Y144D01*
X0Y143D02*
X7Y143D01*
X2157Y143D02*
X2164Y143D01*
X0Y142D02*
X7Y142D01*
X2157Y142D02*
X2164Y142D01*
X0Y141D02*
X7Y141D01*
X2157Y141D02*
X2164Y141D01*
X0Y140D02*
X7Y140D01*
X2157Y140D02*
X2164Y140D01*
X0Y139D02*
X7Y139D01*
X2157Y139D02*
X2164Y139D01*
X0Y138D02*
X7Y138D01*
X2157Y138D02*
X2164Y138D01*
X0Y137D02*
X7Y137D01*
X2157Y137D02*
X2164Y137D01*
X0Y136D02*
X7Y136D01*
X927Y136D02*
X929Y136D01*
X2157Y136D02*
X2164Y136D01*
X0Y135D02*
X7Y135D01*
X926Y135D02*
X930Y135D01*
X2157Y135D02*
X2164Y135D01*
X0Y134D02*
X7Y134D01*
X925Y134D02*
X931Y134D01*
X2157Y134D02*
X2164Y134D01*
X0Y133D02*
X7Y133D01*
X925Y133D02*
X931Y133D01*
X2157Y133D02*
X2164Y133D01*
X0Y132D02*
X7Y132D01*
X925Y132D02*
X931Y132D01*
X2157Y132D02*
X2164Y132D01*
X0Y131D02*
X7Y131D01*
X925Y131D02*
X931Y131D01*
X2157Y131D02*
X2164Y131D01*
X0Y130D02*
X7Y130D01*
X925Y130D02*
X931Y130D01*
X2157Y130D02*
X2164Y130D01*
X0Y129D02*
X7Y129D01*
X925Y129D02*
X931Y129D01*
X2157Y129D02*
X2164Y129D01*
X0Y128D02*
X7Y128D01*
X925Y128D02*
X931Y128D01*
X2157Y128D02*
X2164Y128D01*
X0Y127D02*
X7Y127D01*
X925Y127D02*
X931Y127D01*
X2157Y127D02*
X2164Y127D01*
X0Y126D02*
X7Y126D01*
X925Y126D02*
X931Y126D01*
X2157Y126D02*
X2164Y126D01*
X0Y125D02*
X7Y125D01*
X925Y125D02*
X931Y125D01*
X2157Y125D02*
X2164Y125D01*
X0Y124D02*
X7Y124D01*
X925Y124D02*
X931Y124D01*
X2157Y124D02*
X2164Y124D01*
X0Y123D02*
X7Y123D01*
X925Y123D02*
X931Y123D01*
X2157Y123D02*
X2164Y123D01*
X0Y122D02*
X7Y122D01*
X925Y122D02*
X931Y122D01*
X2157Y122D02*
X2164Y122D01*
X0Y121D02*
X7Y121D01*
X925Y121D02*
X931Y121D01*
X2157Y121D02*
X2164Y121D01*
X0Y120D02*
X7Y120D01*
X925Y120D02*
X931Y120D01*
X2157Y120D02*
X2164Y120D01*
X0Y119D02*
X7Y119D01*
X925Y119D02*
X931Y119D01*
X2157Y119D02*
X2164Y119D01*
X0Y118D02*
X7Y118D01*
X925Y118D02*
X931Y118D01*
X2157Y118D02*
X2164Y118D01*
X0Y117D02*
X7Y117D01*
X925Y117D02*
X931Y117D01*
X2157Y117D02*
X2164Y117D01*
X0Y116D02*
X7Y116D01*
X925Y116D02*
X931Y116D01*
X2157Y116D02*
X2164Y116D01*
X0Y115D02*
X7Y115D01*
X925Y115D02*
X931Y115D01*
X2157Y115D02*
X2164Y115D01*
X0Y114D02*
X7Y114D01*
X925Y114D02*
X931Y114D01*
X2157Y114D02*
X2164Y114D01*
X0Y113D02*
X7Y113D01*
X925Y113D02*
X931Y113D01*
X2157Y113D02*
X2164Y113D01*
X0Y112D02*
X7Y112D01*
X925Y112D02*
X931Y112D01*
X2157Y112D02*
X2164Y112D01*
X0Y111D02*
X7Y111D01*
X925Y111D02*
X931Y111D01*
X2157Y111D02*
X2164Y111D01*
X0Y110D02*
X7Y110D01*
X925Y110D02*
X931Y110D01*
X2157Y110D02*
X2164Y110D01*
X0Y109D02*
X7Y109D01*
X925Y109D02*
X931Y109D01*
X2157Y109D02*
X2164Y109D01*
X0Y108D02*
X7Y108D01*
X925Y108D02*
X931Y108D01*
X937Y108D02*
X937Y108D01*
X2157Y108D02*
X2164Y108D01*
X0Y107D02*
X7Y107D01*
X925Y107D02*
X937Y107D01*
X2157Y107D02*
X2164Y107D01*
X0Y106D02*
X7Y106D01*
X925Y106D02*
X937Y106D01*
X2157Y106D02*
X2164Y106D01*
X0Y105D02*
X7Y105D01*
X925Y105D02*
X937Y105D01*
X2157Y105D02*
X2164Y105D01*
X0Y104D02*
X7Y104D01*
X925Y104D02*
X937Y104D01*
X2157Y104D02*
X2164Y104D01*
X0Y103D02*
X7Y103D01*
X925Y103D02*
X937Y103D01*
X2157Y103D02*
X2164Y103D01*
X0Y102D02*
X7Y102D01*
X925Y102D02*
X937Y102D01*
X2157Y102D02*
X2164Y102D01*
X0Y101D02*
X7Y101D01*
X925Y101D02*
X937Y101D01*
X2157Y101D02*
X2164Y101D01*
X0Y100D02*
X7Y100D01*
X925Y100D02*
X931Y100D01*
X2157Y100D02*
X2164Y100D01*
X0Y99D02*
X7Y99D01*
X925Y99D02*
X931Y99D01*
X2157Y99D02*
X2164Y99D01*
X0Y98D02*
X7Y98D01*
X925Y98D02*
X931Y98D01*
X2157Y98D02*
X2164Y98D01*
X0Y97D02*
X7Y97D01*
X925Y97D02*
X931Y97D01*
X2157Y97D02*
X2164Y97D01*
X0Y96D02*
X7Y96D01*
X925Y96D02*
X931Y96D01*
X2157Y96D02*
X2164Y96D01*
X0Y95D02*
X7Y95D01*
X925Y95D02*
X931Y95D01*
X2157Y95D02*
X2164Y95D01*
X0Y94D02*
X7Y94D01*
X925Y94D02*
X931Y94D01*
X2157Y94D02*
X2164Y94D01*
X0Y93D02*
X7Y93D01*
X925Y93D02*
X931Y93D01*
X2157Y93D02*
X2164Y93D01*
X0Y92D02*
X7Y92D01*
X925Y92D02*
X931Y92D01*
X2157Y92D02*
X2164Y92D01*
X0Y91D02*
X7Y91D01*
X925Y91D02*
X931Y91D01*
X2157Y91D02*
X2164Y91D01*
X0Y90D02*
X7Y90D01*
X925Y90D02*
X931Y90D01*
X2157Y90D02*
X2164Y90D01*
X0Y89D02*
X7Y89D01*
X925Y89D02*
X940Y89D01*
X2157Y89D02*
X2164Y89D01*
X0Y88D02*
X7Y88D01*
X925Y88D02*
X941Y88D01*
X2157Y88D02*
X2164Y88D01*
X0Y87D02*
X7Y87D01*
X925Y87D02*
X941Y87D01*
X2157Y87D02*
X2164Y87D01*
X0Y86D02*
X7Y86D01*
X925Y86D02*
X941Y86D01*
X2157Y86D02*
X2164Y86D01*
X0Y85D02*
X7Y85D01*
X925Y85D02*
X942Y85D01*
X2157Y85D02*
X2164Y85D01*
X0Y84D02*
X7Y84D01*
X925Y84D02*
X943Y84D01*
X2157Y84D02*
X2164Y84D01*
X0Y83D02*
X7Y83D01*
X925Y83D02*
X943Y83D01*
X2157Y83D02*
X2164Y83D01*
X0Y82D02*
X7Y82D01*
X2157Y82D02*
X2164Y82D01*
X0Y81D02*
X7Y81D01*
X2157Y81D02*
X2164Y81D01*
X0Y80D02*
X7Y80D01*
X2157Y80D02*
X2164Y80D01*
X0Y79D02*
X7Y79D01*
X2157Y79D02*
X2164Y79D01*
X0Y78D02*
X7Y78D01*
X2157Y78D02*
X2164Y78D01*
X0Y77D02*
X7Y77D01*
X2157Y77D02*
X2164Y77D01*
X0Y76D02*
X7Y76D01*
X2157Y76D02*
X2164Y76D01*
X0Y75D02*
X7Y75D01*
X2157Y75D02*
X2164Y75D01*
X0Y74D02*
X7Y74D01*
X2157Y74D02*
X2164Y74D01*
X0Y73D02*
X7Y73D01*
X2157Y73D02*
X2164Y73D01*
X0Y72D02*
X7Y72D01*
X2157Y72D02*
X2164Y72D01*
X0Y71D02*
X7Y71D01*
X2157Y71D02*
X2164Y71D01*
X0Y70D02*
X7Y70D01*
X2157Y70D02*
X2164Y70D01*
X0Y69D02*
X7Y69D01*
X2157Y69D02*
X2164Y69D01*
X0Y68D02*
X7Y68D01*
X2157Y68D02*
X2164Y68D01*
X0Y67D02*
X7Y67D01*
X2157Y67D02*
X2164Y67D01*
X0Y66D02*
X7Y66D01*
X2157Y66D02*
X2164Y66D01*
X0Y65D02*
X7Y65D01*
X2157Y65D02*
X2164Y65D01*
X0Y64D02*
X7Y64D01*
X2157Y64D02*
X2164Y64D01*
X0Y63D02*
X7Y63D01*
X2157Y63D02*
X2164Y63D01*
X0Y62D02*
X7Y62D01*
X2157Y62D02*
X2164Y62D01*
X0Y61D02*
X7Y61D01*
X2157Y61D02*
X2164Y61D01*
X0Y60D02*
X7Y60D01*
X2157Y60D02*
X2164Y60D01*
X0Y59D02*
X7Y59D01*
X2157Y59D02*
X2164Y59D01*
X0Y58D02*
X7Y58D01*
X2157Y58D02*
X2164Y58D01*
X0Y57D02*
X7Y57D01*
X2157Y57D02*
X2164Y57D01*
X0Y56D02*
X7Y56D01*
X2157Y56D02*
X2164Y56D01*
X0Y55D02*
X7Y55D01*
X2157Y55D02*
X2164Y55D01*
X0Y54D02*
X7Y54D01*
X2157Y54D02*
X2164Y54D01*
X0Y53D02*
X7Y53D01*
X2157Y53D02*
X2164Y53D01*
X0Y52D02*
X7Y52D01*
X2157Y52D02*
X2164Y52D01*
X0Y51D02*
X7Y51D01*
X2157Y51D02*
X2164Y51D01*
X0Y50D02*
X7Y50D01*
X2157Y50D02*
X2164Y50D01*
X0Y49D02*
X7Y49D01*
X2157Y49D02*
X2164Y49D01*
X0Y48D02*
X7Y48D01*
X2157Y48D02*
X2164Y48D01*
X0Y47D02*
X7Y47D01*
X2157Y47D02*
X2164Y47D01*
X0Y46D02*
X7Y46D01*
X2157Y46D02*
X2164Y46D01*
X0Y45D02*
X7Y45D01*
X2157Y45D02*
X2164Y45D01*
X0Y44D02*
X7Y44D01*
X2157Y44D02*
X2164Y44D01*
X0Y43D02*
X7Y43D01*
X2157Y43D02*
X2164Y43D01*
X0Y42D02*
X7Y42D01*
X2157Y42D02*
X2164Y42D01*
X0Y41D02*
X7Y41D01*
X2157Y41D02*
X2164Y41D01*
X0Y40D02*
X7Y40D01*
X2157Y40D02*
X2164Y40D01*
X0Y39D02*
X7Y39D01*
X2157Y39D02*
X2164Y39D01*
X0Y38D02*
X7Y38D01*
X2157Y38D02*
X2164Y38D01*
X0Y37D02*
X7Y37D01*
X2157Y37D02*
X2164Y37D01*
X0Y36D02*
X7Y36D01*
X2157Y36D02*
X2164Y36D01*
X0Y35D02*
X7Y35D01*
X2157Y35D02*
X2164Y35D01*
X0Y34D02*
X7Y34D01*
X2157Y34D02*
X2164Y34D01*
X0Y33D02*
X7Y33D01*
X2157Y33D02*
X2164Y33D01*
X0Y32D02*
X7Y32D01*
X2157Y32D02*
X2164Y32D01*
X0Y31D02*
X7Y31D01*
X2157Y31D02*
X2164Y31D01*
X0Y30D02*
X7Y30D01*
X2157Y30D02*
X2164Y30D01*
X0Y29D02*
X7Y29D01*
X2157Y29D02*
X2164Y29D01*
X0Y28D02*
X7Y28D01*
X2157Y28D02*
X2164Y28D01*
X0Y27D02*
X7Y27D01*
X2157Y27D02*
X2164Y27D01*
X0Y26D02*
X7Y26D01*
X2157Y26D02*
X2164Y26D01*
X0Y25D02*
X7Y25D01*
X2157Y25D02*
X2164Y25D01*
X0Y24D02*
X7Y24D01*
X2157Y24D02*
X2164Y24D01*
X0Y23D02*
X7Y23D01*
X2157Y23D02*
X2164Y23D01*
X0Y22D02*
X7Y22D01*
X2157Y22D02*
X2164Y22D01*
X0Y21D02*
X7Y21D01*
X2157Y21D02*
X2164Y21D01*
X0Y20D02*
X7Y20D01*
X2157Y20D02*
X2164Y20D01*
X0Y19D02*
X7Y19D01*
X2157Y19D02*
X2164Y19D01*
X0Y18D02*
X7Y18D01*
X2157Y18D02*
X2164Y18D01*
X0Y17D02*
X7Y17D01*
X2157Y17D02*
X2164Y17D01*
X0Y16D02*
X7Y16D01*
X2157Y16D02*
X2164Y16D01*
X0Y15D02*
X7Y15D01*
X2157Y15D02*
X2164Y15D01*
X0Y14D02*
X7Y14D01*
X2157Y14D02*
X2164Y14D01*
X0Y13D02*
X7Y13D01*
X2157Y13D02*
X2164Y13D01*
X0Y12D02*
X7Y12D01*
X2157Y12D02*
X2164Y12D01*
X0Y11D02*
X7Y11D01*
X2157Y11D02*
X2164Y11D01*
X0Y10D02*
X7Y10D01*
X2157Y10D02*
X2164Y10D01*
X0Y9D02*
X7Y9D01*
X2157Y9D02*
X2164Y9D01*
X0Y8D02*
X2164Y8D01*
X0Y7D02*
X2164Y7D01*
X0Y6D02*
X2164Y6D01*
X0Y5D02*
X2164Y5D01*
X0Y4D02*
X2164Y4D01*
X0Y3D02*
X2164Y3D01*
X0Y2D02*
X2164Y2D01*
X0Y1D02*
X2164Y1D01*
D02*
G04 End of Silk0*
M02*