G04 MADE WITH FRITZING*
G04 WWW.FRITZING.ORG*
G04 DOUBLE SIDED*
G04 HOLES PLATED*
G04 CONTOUR ON CENTER OF CONTOUR VECTOR*
%ASAXBY*%
%FSLAX23Y23*%
%MOIN*%
%OFA0B0*%
%SFA1.0B1.0*%
%ADD10C,0.074000*%
%ADD11C,0.075000*%
%ADD12C,0.078000*%
%ADD13R,0.074000X0.074000*%
%ADD14C,0.024000*%
%LNCOPPER0*%
G90*
G70*
G54D10*
X880Y1155D03*
X980Y1155D03*
X1080Y1155D03*
X1180Y1155D03*
X1280Y1155D03*
X1380Y1155D03*
X1480Y1155D03*
X1580Y1155D03*
X880Y1155D03*
X980Y1155D03*
X1080Y1155D03*
X1180Y1155D03*
X1280Y1155D03*
X1380Y1155D03*
X1480Y1155D03*
X1580Y1155D03*
X181Y656D03*
X181Y556D03*
X181Y456D03*
X181Y356D03*
X181Y256D03*
X181Y156D03*
X281Y706D03*
X381Y706D03*
X481Y706D03*
X581Y706D03*
X681Y706D03*
X626Y591D03*
X726Y591D03*
X781Y706D03*
X881Y706D03*
X981Y706D03*
X1081Y706D03*
X1181Y706D03*
X1281Y706D03*
X1381Y706D03*
X1381Y106D03*
X1281Y106D03*
X1181Y106D03*
X1081Y106D03*
X981Y106D03*
X881Y106D03*
X781Y106D03*
X681Y106D03*
X581Y106D03*
X481Y106D03*
X381Y106D03*
X281Y106D03*
G54D11*
X980Y855D03*
X580Y855D03*
X2080Y361D03*
X2080Y105D03*
X1903Y361D03*
X1903Y105D03*
X2080Y761D03*
X2080Y505D03*
X1903Y761D03*
X1903Y505D03*
X2080Y1161D03*
X2080Y905D03*
X1903Y1161D03*
X1903Y905D03*
X880Y205D03*
X480Y205D03*
X780Y305D03*
X380Y305D03*
X680Y405D03*
X280Y405D03*
G54D12*
X180Y1155D03*
X280Y1155D03*
X380Y1155D03*
X1630Y705D03*
X1630Y605D03*
X1630Y505D03*
X1630Y405D03*
G54D11*
X980Y955D03*
X580Y955D03*
X479Y404D03*
X1430Y405D03*
G54D12*
X80Y655D03*
X80Y555D03*
X80Y455D03*
X80Y355D03*
X80Y255D03*
X80Y155D03*
X80Y655D03*
X80Y555D03*
X80Y455D03*
X80Y355D03*
X80Y255D03*
X80Y155D03*
G54D13*
X880Y1155D03*
X880Y1155D03*
G54D14*
X681Y304D02*
X680Y376D01*
D02*
X681Y137D02*
X681Y304D01*
D02*
X780Y276D02*
X781Y137D01*
D02*
X880Y176D02*
X881Y137D01*
D02*
X1830Y155D02*
X1479Y155D01*
D02*
X1479Y155D02*
X1330Y206D01*
D02*
X1330Y206D02*
X909Y205D01*
D02*
X1879Y121D02*
X1830Y155D01*
D02*
X980Y254D02*
X808Y298D01*
D02*
X1980Y404D02*
X1980Y254D01*
D02*
X1980Y254D02*
X1930Y204D01*
D02*
X1481Y204D02*
X1330Y254D01*
D02*
X1330Y254D02*
X980Y254D01*
D02*
X1930Y204D02*
X1481Y204D01*
D02*
X1920Y482D02*
X1980Y404D01*
D02*
X1830Y304D02*
X1780Y254D01*
D02*
X1479Y254D02*
X1330Y304D01*
D02*
X1330Y304D02*
X980Y304D01*
D02*
X980Y304D02*
X707Y396D01*
D02*
X1831Y854D02*
X1830Y304D01*
D02*
X1780Y254D02*
X1479Y254D01*
D02*
X1879Y888D02*
X1831Y854D01*
D02*
X1480Y554D02*
X780Y555D01*
D02*
X1609Y683D02*
X1480Y554D01*
D02*
X780Y555D02*
X752Y574D01*
D02*
X1609Y583D02*
X1530Y505D01*
D02*
X1530Y505D02*
X730Y504D01*
D02*
X730Y504D02*
X650Y571D01*
D02*
X1580Y854D02*
X1009Y855D01*
D02*
X1630Y805D02*
X1580Y854D01*
D02*
X1630Y735D02*
X1630Y805D01*
D02*
X1729Y705D02*
X1730Y805D01*
D02*
X1730Y805D02*
X1580Y955D01*
D02*
X1651Y626D02*
X1729Y705D01*
D02*
X1580Y955D02*
X1009Y955D01*
D02*
X1379Y1255D02*
X1380Y1186D01*
D02*
X1781Y1255D02*
X1379Y1255D01*
D02*
X2080Y1206D02*
X2030Y1254D01*
D02*
X2030Y1254D02*
X1781Y1255D01*
D02*
X2080Y1189D02*
X2080Y1206D01*
D02*
X1580Y955D02*
X1580Y1124D01*
D02*
X1430Y1054D02*
X980Y1056D01*
D02*
X980Y1056D02*
X880Y955D01*
D02*
X880Y955D02*
X880Y904D01*
D02*
X880Y904D02*
X954Y867D01*
D02*
X1466Y1127D02*
X1430Y1054D01*
D02*
X2080Y933D02*
X2080Y1132D01*
D02*
X2080Y789D02*
X2080Y876D01*
D02*
X2080Y533D02*
X2080Y732D01*
D02*
X2080Y389D02*
X2080Y476D01*
D02*
X2080Y332D02*
X2080Y133D01*
D02*
X879Y1255D02*
X880Y1186D01*
D02*
X1379Y1255D02*
X879Y1255D01*
D02*
X380Y1255D02*
X380Y1185D01*
D02*
X229Y1255D02*
X380Y1255D01*
D02*
X193Y1182D02*
X229Y1255D01*
D02*
X380Y1255D02*
X380Y1185D01*
D02*
X879Y1255D02*
X380Y1255D01*
D02*
X380Y955D02*
X380Y1125D01*
D02*
X381Y737D02*
X380Y955D01*
D02*
X280Y1125D02*
X281Y737D01*
D02*
X580Y826D02*
X581Y737D01*
D02*
X580Y926D02*
X580Y883D01*
D02*
X780Y955D02*
X958Y1133D01*
D02*
X609Y955D02*
X780Y955D01*
D02*
X1049Y1155D02*
X1011Y1155D01*
D02*
X1730Y406D02*
X1660Y405D01*
D02*
X1781Y454D02*
X1730Y406D01*
D02*
X1781Y1255D02*
X1781Y454D01*
D02*
X479Y604D02*
X479Y433D01*
D02*
X559Y684D02*
X479Y604D01*
D02*
X1456Y418D02*
X1603Y491D01*
D02*
X150Y656D02*
X110Y655D01*
D02*
X150Y556D02*
X110Y555D01*
D02*
X150Y456D02*
X110Y455D01*
D02*
X150Y356D02*
X110Y355D01*
D02*
X150Y256D02*
X110Y255D01*
D02*
X150Y156D02*
X110Y155D01*
D02*
X451Y404D02*
X309Y405D01*
D02*
X479Y376D02*
X479Y304D01*
D02*
X479Y304D02*
X409Y305D01*
D02*
X479Y304D02*
X480Y233D01*
G04 End of Copper0*
M02*