; NON-PLATED HOLES START AT T1
; THROUGH (PLATED) HOLES START AT T100
M48
INCH
T100C0.040000
T101C0.035000
T102C0.038000
%
T100
X008799Y011547
X009799Y011547
X006799Y001047
X009799Y007047
X012799Y007047
X002799Y001047
X001799Y006547
X001799Y003547
X011799Y007047
X012799Y011547
X005799Y007047
X001799Y005547
X013799Y011547
X007799Y007047
X015799Y011547
X007249Y005897
X002799Y007047
X003799Y007047
X001799Y001547
X011799Y001047
X003799Y001047
X004799Y007047
X008799Y001047
X013799Y001047
X006249Y005897
X010799Y011547
X007799Y001047
X012799Y001047
X010799Y007047
X004799Y001047
X005799Y001047
X006799Y007047
X009799Y001047
X001799Y002547
X010799Y001047
X008799Y007047
X001799Y004547
X014799Y011547
X011799Y011547
X013799Y007047
T101
X019027Y009047
X006799Y004047
X019027Y011606
X002799Y004047
X020799Y001047
X005799Y008547
X009799Y009547
X020799Y007606
X005799Y009547
X005299Y004547
X019027Y005047
X003799Y003047
X004799Y002047
X020799Y011606
X020799Y009047
X020799Y003606
X008799Y002047
X009799Y008547
X015299Y004547
X007799Y003047
X020799Y005047
X019027Y007606
X019027Y001047
X019027Y003606
T102
X000799Y003547
X016299Y006047
X002799Y011547
X000799Y005547
X003799Y011547
X016299Y005047
X000799Y001547
X000799Y004547
X000799Y006547
X000799Y002547
X016299Y007047
X001799Y011547
X016299Y004047
T00
M30
